<svg width="129" height="37" viewBox="0 0 129 37" fill="none" xmlns="http://www.w3.org/2000/svg">
<rect x="1" y="0.584717" width="127" height="35" rx="17.5" stroke="white"/>
<path d="M35.9419 16.4246C35.9187 13.8495 38.0536 12.5967 38.1513 12.5384C36.9421 10.7782 35.068 10.5377 34.4095 10.5186C32.8355 10.3532 31.3087 11.459 30.5068 11.459C29.689 11.459 28.4543 10.5345 27.1235 10.5617C25.4111 10.5881 23.8091 11.578 22.9304 13.1152C21.1172 16.2496 22.4695 20.8558 24.2068 23.3893C25.0758 24.6309 26.0913 26.0156 27.4204 25.9668C28.7208 25.9141 29.2065 25.1391 30.7757 25.1391C32.3305 25.1391 32.7866 25.9668 34.1422 25.9349C35.5378 25.9141 36.4164 24.6892 37.255 23.4365C38.2593 22.0159 38.6626 20.6137 38.6786 20.5418C38.6466 20.5314 35.9691 19.5111 35.9419 16.4246Z" fill="white"/>
<path d="M33.3813 8.85198C34.0807 7.9787 34.5592 6.79062 34.4264 5.58496C33.4141 5.6297 32.1482 6.28407 31.4192 7.13817C30.7742 7.89081 30.1981 9.12443 30.3469 10.2846C31.484 10.3692 32.6515 9.71168 33.3813 8.85198Z" fill="white"/>
<path fill-rule="evenodd" clip-rule="evenodd" d="M52.1216 26.4287H53.9104L50.5202 15.7959H48.4359L45.0605 26.4287H46.8022L47.7356 23.3055H51.1417L52.1216 26.4287ZM49.9601 19.2195L50.8463 21.9952H48.031L48.9022 19.2195C49.1298 18.3359 49.2961 17.6679 49.4 17.2157H49.4315C49.6899 18.2671 49.8664 18.9351 49.9601 19.2195Z" fill="white"/>
<path fill-rule="evenodd" clip-rule="evenodd" d="M61.5259 25.5922C62.2246 24.8355 62.5735 23.8049 62.5735 22.5009C62.5735 21.3336 62.275 20.3924 61.6803 19.6757C61.0848 18.9607 60.3404 18.6035 59.4487 18.6035C58.3081 18.6035 57.4582 19.0613 56.8981 19.9778H56.8666L56.7729 18.7617H55.2959C55.3369 19.623 55.3581 20.4627 55.3581 21.2817V29.5367H57.0375V25.5139C57.4747 26.2401 58.1947 26.6021 59.1958 26.6021C60.123 26.6021 60.9004 26.2657 61.5259 25.5922ZM60.3648 20.7176C60.6972 21.2018 60.8626 21.817 60.8626 22.5633C60.8626 23.3734 60.6862 24.0254 60.3333 24.5199C59.9812 25.0129 59.4889 25.2614 58.8563 25.2614C58.3175 25.2614 57.8796 25.0688 57.5424 24.6853C57.2053 24.3002 57.0367 23.8296 57.0367 23.2735V21.9936C57.0367 21.8578 57.0627 21.686 57.1147 21.4758C57.2179 21.0228 57.4385 20.6577 57.7756 20.3788C58.112 20.1008 58.4885 19.9602 58.9028 19.9602C59.5141 19.9602 60.0017 20.2135 60.3648 20.7176Z" fill="white"/>
<path fill-rule="evenodd" clip-rule="evenodd" d="M70.22 25.5922C70.9187 24.8355 71.2677 23.8049 71.2677 22.5009C71.2677 21.3336 70.9683 20.3924 70.3744 19.6757C69.7781 18.9607 69.033 18.6035 68.1421 18.6035C67.0007 18.6035 66.1507 19.0613 65.5915 19.9778H65.5599L65.4662 18.7617H63.9893C64.0302 19.623 64.0515 20.4627 64.0515 21.2817V29.5367H65.7309V25.5139C66.1688 26.2401 66.8888 26.6021 67.8892 26.6021C68.8171 26.6021 69.5938 26.2657 70.22 25.5922ZM69.0574 20.7176C69.3898 21.2018 69.556 21.817 69.556 22.5633C69.556 23.3734 69.3795 24.0254 69.0266 24.5199C68.6753 25.0129 68.183 25.2614 67.5497 25.2614C67.0093 25.2614 66.5714 25.068 66.2342 24.6853C65.8987 24.3002 65.7293 23.8296 65.7293 23.2735V21.9936C65.7293 21.8578 65.7569 21.686 65.8081 21.4758C65.9113 21.0228 66.1318 20.6577 66.4682 20.3788C66.8061 20.1008 67.1826 19.9602 67.597 19.9602C68.2082 19.9602 68.695 20.2135 69.0574 20.7176Z" fill="white"/>
<path d="M80.9881 23.4468C80.9881 24.3513 80.6769 25.0871 80.0562 25.6552C79.3741 26.2752 78.4217 26.586 77.2008 26.586C76.0728 26.586 75.1685 26.3655 74.4863 25.9237L74.8747 24.5039C75.6112 24.9457 76.4202 25.167 77.3008 25.167C77.9341 25.167 78.4264 25.0216 78.7778 24.7332C79.1307 24.4432 79.3079 24.0573 79.3079 23.5747C79.3079 23.1424 79.1614 22.7797 78.8715 22.4849C78.5808 22.1916 78.1003 21.9168 77.4261 21.6659C75.5907 20.9716 74.6722 19.9553 74.6722 18.6202C74.6722 17.7477 74.9968 17.0334 75.6435 16.475C76.291 15.9173 77.1496 15.6384 78.2177 15.6384C79.1716 15.6384 79.9664 15.807 80.5974 16.1434L80.1759 17.532C79.582 17.206 78.9117 17.043 78.1618 17.043C77.5694 17.043 77.1039 17.1908 76.7723 17.4849C76.4926 17.7477 76.35 18.0681 76.35 18.4484C76.35 18.8679 76.5115 19.2163 76.8337 19.4887C77.1125 19.7412 77.6214 20.0152 78.3571 20.3093C79.2598 20.6784 79.9223 21.1082 80.3477 21.602C80.7754 22.0958 80.9881 22.7118 80.9881 23.4468Z" fill="white"/>
<path d="M86.5547 20.0399H84.7036V23.7624C84.7036 24.7092 85.0297 25.1814 85.6835 25.1814C85.9836 25.1814 86.2326 25.1558 86.4295 25.1023L86.476 26.3958C86.1451 26.5212 85.7095 26.5844 85.1707 26.5844C84.5067 26.5844 83.9892 26.3782 83.6142 25.9683C83.2408 25.5577 83.0542 24.8698 83.0542 23.9014V20.0367H81.9521V18.7584H83.0542V17.3546L84.7036 16.8496V18.7584H86.5547V20.0399Z" fill="white"/>
<path fill-rule="evenodd" clip-rule="evenodd" d="M93.8943 25.4348C94.5584 24.6782 94.89 23.7106 94.89 22.5321C94.89 21.3848 94.5694 20.4508 93.9251 19.7261C93.25 18.9807 92.3599 18.606 91.25 18.606C90.0992 18.606 89.1838 18.9855 88.5048 19.7421C87.8274 20.4987 87.4863 21.4719 87.4863 22.66C87.4863 23.7953 87.8156 24.7365 88.4741 25.4828C89.1326 26.229 90.0157 26.6021 91.1263 26.6021C92.2772 26.6021 93.2004 26.213 93.8943 25.4348ZM92.6994 20.7624C92.9995 21.2666 93.1492 21.869 93.1492 22.5713C93.1492 23.2752 92.994 23.8816 92.686 24.3977C92.3213 25.0146 91.8179 25.3262 91.1767 25.3262C90.5198 25.3262 90.0133 25.0218 89.6502 24.4121C89.3485 23.9104 89.1996 23.3063 89.1996 22.6032C89.1996 21.8794 89.3485 21.2666 89.6502 20.7624C90.0007 20.1536 90.5182 19.85 91.1901 19.85C91.8424 19.85 92.3473 20.1536 92.6994 20.7624Z" fill="white"/>
<path d="M100.351 20.2598C100.185 20.2286 100.007 20.2135 99.822 20.2135C99.2312 20.2135 98.7743 20.438 98.453 20.8918C98.1733 21.2913 98.0339 21.7962 98.0339 22.4059V26.4287H96.3545V21.1762C96.3545 20.2934 96.338 19.4872 96.3057 18.7625H97.7684L97.8299 20.2294H97.8764C98.0544 19.7253 98.3332 19.3186 98.7161 19.015C99.091 18.7401 99.4943 18.6035 99.9299 18.6035C100.085 18.6035 100.225 18.6155 100.35 18.6347L100.351 20.2598Z" fill="white"/>
<path fill-rule="evenodd" clip-rule="evenodd" d="M107.801 23.0051C107.842 22.795 107.862 22.5377 107.862 22.2325C107.862 21.2761 107.639 20.4707 107.195 19.8212C106.636 19.0014 105.811 18.5916 104.722 18.5916C103.612 18.5916 102.731 19.0014 102.079 19.8212C101.455 20.589 101.145 21.5518 101.145 22.7071C101.145 23.8832 101.48 24.8236 102.147 25.5227C102.817 26.221 103.737 26.5709 104.909 26.5709C105.883 26.5709 106.728 26.4128 107.443 26.0972L107.18 24.9147C106.568 25.1576 105.887 25.2774 105.141 25.2774C104.468 25.2774 103.918 25.0984 103.493 24.7421C103.026 24.3426 102.781 23.7625 102.763 23.0051H107.801ZM105.935 20.4811C106.162 20.8503 106.273 21.2849 106.261 21.7907L102.763 21.7891C102.814 21.2761 102.981 20.8327 103.26 20.4644C103.601 20.001 104.047 19.77 104.597 19.77C105.197 19.77 105.644 20.0065 105.935 20.4811Z" fill="white"/>
<path fill-rule="evenodd" clip-rule="evenodd" d="M49.5128 12.1343H50.3915L48.7262 6.9082H47.7036L46.0469 12.1343H46.902L47.3606 10.5995H49.0322L49.5128 12.1343ZM48.4524 8.59085L48.8875 9.95551H47.5053L47.9325 8.59085C48.0367 8.19696 48.1092 7.89197 48.1617 7.67112C48.1671 7.64872 48.1722 7.62718 48.1771 7.60651H48.1929C48.3226 8.12585 48.4068 8.45103 48.4524 8.59085Z" fill="white"/>
<path d="M54.5346 8.36621L53.1297 12.1342H52.3281L50.9688 8.36621H51.8545L52.4886 10.3589C52.5955 10.692 52.6868 11.01 52.7552 11.312H52.778C52.8394 11.0412 52.9307 10.7232 53.0447 10.3589L53.6709 8.36621H54.5346Z" fill="white"/>
<path fill-rule="evenodd" clip-rule="evenodd" d="M57.464 11.7005L57.5254 12.1343L58.2672 12.1351C58.2294 11.9106 58.2137 11.6158 58.2137 11.2355V9.84762C58.2137 8.80815 57.7244 8.28882 56.7553 8.28882C56.251 8.28882 55.8239 8.39748 55.4801 8.6148L55.6477 9.1653C55.9293 8.97914 56.2502 8.88566 56.6168 8.88566C57.1281 8.88566 57.3877 9.13414 57.3877 9.6303V9.69981C56.0135 9.69981 55.2197 10.1808 55.2197 11.1108C55.2197 11.7468 55.6933 12.2198 56.3572 12.2198C56.8229 12.2198 57.1895 12.0496 57.4412 11.7005H57.464ZM56.0363 11.0173C56.0363 10.4828 56.4941 10.2575 57.4105 10.2575V10.8392C57.4105 11.281 57.0212 11.6062 56.6011 11.6062C56.273 11.6062 56.0363 11.4128 56.0363 11.0173Z" fill="white"/>
<path fill-rule="evenodd" clip-rule="evenodd" d="M59.5615 7.24128C59.5615 7.52812 59.9383 7.74544 60.4218 7.74544C60.9607 7.74544 61.3361 7.5441 61.3361 7.24128C61.35 6.95445 60.9469 6.74512 60.4495 6.74512C59.9508 6.74512 59.5615 6.95445 59.5615 7.24128ZM61.1754 12.1342V8.36624H59.7236V12.1342H61.1754Z" fill="white"/>
<path d="M61.9424 6.63745H62.7668V12.1344H61.9424V6.63745Z" fill="white"/>
<path fill-rule="evenodd" clip-rule="evenodd" d="M66.2084 11.7005L66.2705 12.1344H67.0107C66.9746 11.9099 66.9588 11.615 66.9588 11.2347V9.84689C66.9588 8.80742 66.4687 8.28809 65.4996 8.28809C64.9954 8.28809 64.5682 8.39675 64.2244 8.61407L64.3928 9.16536C64.6744 8.9792 64.9954 8.88572 65.3619 8.88572C65.8733 8.88572 66.1328 9.1342 66.1328 9.63037V9.69988C64.7586 9.69988 63.9648 10.1809 63.9648 11.1109C63.9648 11.7469 64.4384 12.2199 65.1023 12.2199C65.568 12.2199 65.9346 12.0497 66.1863 11.7005H66.2084ZM64.7814 11.0174C64.7814 10.4829 65.2392 10.2576 66.1557 10.2576V10.8392C66.1557 11.2811 65.7663 11.6062 65.3462 11.6062C65.0182 11.6062 64.7814 11.4129 64.7814 11.0174Z" fill="white"/>
<path fill-rule="evenodd" clip-rule="evenodd" d="M69.1308 11.5528C69.3833 11.9946 69.772 12.2199 70.2982 12.2199C71.2446 12.2199 71.94 11.3666 71.94 10.1969C71.94 9.06555 71.3138 8.28974 70.4201 8.28974C69.8781 8.28974 69.4817 8.49907 69.237 8.91774H69.2221V6.63745H68.3961V11.1189C68.3961 11.4904 68.3882 11.8324 68.3662 12.1344H69.0679L69.1151 11.5528H69.1308ZM69.2221 9.94762C69.2221 9.36596 69.6563 8.9473 70.1307 8.9473C70.7183 8.9473 71.1006 9.46743 71.1014 10.2273C71.1014 11.0414 70.7332 11.5528 70.1157 11.5528C69.6123 11.5528 69.2221 11.1261 69.2221 10.6068V9.94762Z" fill="white"/>
<path d="M73.1602 6.63745H73.9838V12.1344H73.1602V6.63745Z" fill="white"/>
<path fill-rule="evenodd" clip-rule="evenodd" d="M75.9955 10.4516H78.4703C78.4939 10.3509 78.501 10.2191 78.4986 10.0721C78.4986 8.99425 77.9015 8.28076 76.956 8.28076C75.9035 8.28076 75.2002 9.14925 75.2002 10.3046C75.2002 11.4591 75.8869 12.2037 77.048 12.2037C77.5287 12.2037 77.9409 12.1262 78.2917 11.9712L78.1635 11.3896C77.8661 11.5054 77.5302 11.5678 77.1629 11.5678C76.4761 11.5678 76.012 11.1651 75.9955 10.4516ZM76.897 8.86242C77.4241 8.86242 77.7151 9.27309 77.7151 9.85475H75.9955C76.0506 9.28108 76.4234 8.86242 76.897 8.86242Z" fill="white"/>
<path fill-rule="evenodd" clip-rule="evenodd" d="M81.6807 10.2815C81.6807 11.3976 82.3831 12.2198 83.4671 12.2198C84.5747 12.2198 85.3158 11.3976 85.3158 10.2199C85.3158 9.07182 84.5968 8.28882 83.5293 8.28882C82.3981 8.28882 81.6807 9.11816 81.6807 10.2815ZM82.5216 10.2575C82.5216 9.46651 82.9031 8.90084 83.4986 8.90084C84.0784 8.90084 84.4599 9.4745 84.4599 10.2415C84.4599 10.9942 84.0705 11.599 83.4907 11.599C82.911 11.599 82.5216 11.0333 82.5216 10.2575Z" fill="white"/>
<path d="M89.7483 12.1344H88.9255V9.97073C88.9255 9.30439 88.6729 8.97041 88.1766 8.97041C87.6881 8.97041 87.3514 9.39707 87.3514 9.89323V12.1344H86.5285V9.44341C86.5285 9.11023 86.5191 8.75309 86.4971 8.36559H87.2224L87.2609 8.94724H87.2845C87.504 8.54456 87.9555 8.28809 88.4598 8.28809C89.237 8.28809 89.7483 8.89291 89.7483 9.87725V12.1344Z" fill="white"/>
<path d="M95.1418 8.99429H94.2348V10.8239C94.2348 11.2898 94.3945 11.5223 94.7147 11.5223C94.8594 11.5223 94.9829 11.5063 95.0813 11.4831L95.1041 12.1191C94.9436 12.1814 94.7289 12.2126 94.4638 12.2126C93.8132 12.2126 93.4262 11.8482 93.4262 10.8943V8.99429H92.8857V8.36629H93.4262V7.67597L94.2348 7.42749V8.36549H95.1418V8.99429Z" fill="white"/>
<path d="M99.5082 12.1344H98.6831V9.98677C98.6831 9.31243 98.4305 8.97127 97.9349 8.97127C97.5078 8.97127 97.1113 9.26609 97.1113 9.86293V12.1344H96.2861V6.63745H97.1113V8.90096H97.1271C97.3859 8.49028 97.7611 8.28814 98.2417 8.28814C99.0276 8.28814 99.5082 8.90815 99.5082 9.89329V12.1344Z" fill="white"/>
<path fill-rule="evenodd" clip-rule="evenodd" d="M101.246 10.4516H103.72C103.743 10.3509 103.751 10.2191 103.748 10.0721C103.748 8.99425 103.152 8.28076 102.205 8.28076C101.153 8.28076 100.45 9.14925 100.45 10.3046C100.45 11.4591 101.137 12.2037 102.297 12.2037C102.779 12.2037 103.192 12.1262 103.542 11.9712L103.413 11.3896C103.117 11.5054 102.782 11.5678 102.414 11.5678C101.726 11.5678 101.262 11.1651 101.246 10.4516ZM102.148 8.86242C102.675 8.86242 102.964 9.27309 102.964 9.85475H101.246C101.301 9.28108 101.674 8.86242 102.148 8.86242Z" fill="white"/>
</svg>
