<svg width="231" height="182" viewBox="0 0 231 182" fill="none" xmlns="http://www.w3.org/2000/svg">
<g opacity="0.1" filter="url(#filter0_f)">
<path fill-rule="evenodd" clip-rule="evenodd" d="M183.466 129.566C169.313 134.752 162.36 156.759 134.352 164.079C106.344 171.399 74.1549 170.142 57.0438 145.725C39.9326 121.307 54.5249 74.986 36.2631 67.984C18.0014 60.9819 0.909055 18.9448 28.4367 16.4333C55.9642 13.9218 114.315 36.7822 124.333 38.2892C134.352 39.7961 162.836 27.0352 179.928 23.6375C197.021 20.2399 216.992 1.81519 216.992 27.2047C216.992 52.5941 217.901 66.0301 200.683 82.1782C183.466 98.3263 197.618 124.38 183.466 129.566Z" fill="#FF5252" style="mix-blend-mode:multiply"/>
</g>
<defs>
<filter id="filter0_f" x="0.408591" y="0.408591" width="230.183" height="181.183" filterUnits="userSpaceOnUse" color-interpolation-filters="sRGB">
<feFlood flood-opacity="0" result="BackgroundImageFix"/>
<feBlend mode="normal" in="SourceGraphic" in2="BackgroundImageFix" result="shape"/>
<feGaussianBlur stdDeviation="6.7957" result="effect1_foregroundBlur"/>
</filter>
</defs>
</svg>
