<svg width="45" height="45" viewBox="0 0 45 45" fill="none" xmlns="http://www.w3.org/2000/svg">
<path fill-rule="evenodd" clip-rule="evenodd" d="M45 22.5C45 34.9264 34.9264 45 22.5 45C10.0736 45 0 34.9264 0 22.5C0 10.0736 10.0736 0 22.5 0C34.9264 0 45 10.0736 45 22.5ZM0.957447 22.5C0.957447 34.3976 10.6024 44.0426 22.5 44.0426C34.3976 44.0426 44.0426 34.3976 44.0426 22.5C44.0426 10.6024 34.3976 0.957447 22.5 0.957447C10.6024 0.957447 0.957447 10.6024 0.957447 22.5Z" fill="#DCDCDC"/>
<path fill-rule="evenodd" clip-rule="evenodd" d="M22.5005 11.4893C21.2037 11.4893 20.9998 12.8297 20.9998 12.8297H23.9914C23.9914 12.8297 23.7972 11.4893 22.5005 11.4893ZM29.2019 18.4944L29.2197 18.5579V25.507L32.0923 29.2092V31.0681H12.4473V29.2037L15.4424 25.5015V18.564L15.4571 18.5061C16.3982 14.798 18.6974 12.8929 22.2599 12.8929C25.8182 12.8929 28.1619 14.7922 29.2019 18.4944ZM13.4047 29.5425V30.1107H31.1348V29.5371L28.2623 25.8348V18.6905C27.3276 15.4322 25.356 13.8504 22.2599 13.8504C19.1662 13.8504 17.2438 15.4283 16.3998 18.6842V25.8403L13.4047 29.5425ZM19.6281 31.5632H25.3728C25.3728 31.5632 24.8687 33.9568 22.5588 33.9568C20.2488 33.9568 19.6281 31.5632 19.6281 31.5632Z" fill="#FF5252"/>
</svg>
