<svg width="45" height="45" viewBox="0 0 45 45" fill="none" xmlns="http://www.w3.org/2000/svg">
<path fill-rule="evenodd" clip-rule="evenodd" d="M45 22.5C45 34.9264 34.9264 45 22.5 45C10.0736 45 0 34.9264 0 22.5C0 10.0736 10.0736 0 22.5 0C34.9264 0 45 10.0736 45 22.5ZM0.957447 22.5C0.957447 34.3976 10.6024 44.0426 22.5 44.0426C34.3976 44.0426 44.0426 34.3976 44.0426 22.5C44.0426 10.6024 34.3976 0.957447 22.5 0.957447C10.6024 0.957447 0.957447 10.6024 0.957447 22.5Z" fill="#DCDCDC"/>
<path fill-rule="evenodd" clip-rule="evenodd" d="M13.5455 15.4688H27.9389C29.595 15.4688 30.9375 16.9116 30.9375 18.6914V20.5567L35.1562 18.2812V28.8281L30.9375 26.6142V27.7148C30.9375 29.4947 29.595 30.9375 27.9389 30.9375H13.5455C11.8894 30.9375 10.5469 29.4947 10.5469 27.7148V18.6914C10.5469 16.9116 11.8894 15.4688 13.5455 15.4688ZM13.5455 16.7578C12.5518 16.7578 11.7463 17.6235 11.7463 18.6914V27.7148C11.7463 28.7827 12.5518 29.6484 13.5455 29.6484H27.9389C28.9325 29.6484 29.7381 28.7827 29.7381 27.7148V18.6914C29.7381 17.6235 28.9325 16.7578 27.9389 16.7578H13.5455Z" fill="#FF5252"/>
</svg>
