<svg width="45" height="45" viewBox="0 0 45 45" fill="none" xmlns="http://www.w3.org/2000/svg">
<path fill-rule="evenodd" clip-rule="evenodd" d="M45 22.5C45 34.9264 34.9264 45 22.5 45C10.0736 45 0 34.9264 0 22.5C0 10.0736 10.0736 0 22.5 0C34.9264 0 45 10.0736 45 22.5ZM0.957447 22.5C0.957447 34.3976 10.6024 44.0426 22.5 44.0426C34.3976 44.0426 44.0426 34.3976 44.0426 22.5C44.0426 10.6024 34.3976 0.957447 22.5 0.957447C10.6024 0.957447 0.957447 10.6024 0.957447 22.5Z" fill="#DCDCDC"/>
<path fill-rule="evenodd" clip-rule="evenodd" d="M29.7213 19.217L32.5374 22.1626C32.2383 16.7464 27.7517 12.4467 22.2607 12.4467C16.5763 12.4467 11.9682 17.0548 11.9682 22.7393C11.9682 28.4237 16.5763 33.0318 22.2607 33.0318C24.9975 33.0318 27.5638 31.9595 29.4765 30.0789L30.1477 30.7616C28.0577 32.8166 25.2512 33.9893 22.2607 33.9893C16.0475 33.9893 11.0107 28.9525 11.0107 22.7393C11.0107 16.5261 16.0475 11.4893 22.2607 11.4893C28.2472 11.4893 33.1415 16.1651 33.4908 22.0638L35.8166 19.2433L36.5553 19.8524L33.0585 24.0931L29.0292 19.8786L29.7213 19.217ZM26.8086 23.3888C26.8086 24.8739 25.7182 26.0281 24.294 26.0281V26.9855C26.2595 26.9855 27.7661 25.3909 27.7661 23.3888C27.7661 22.1171 26.7056 19.8564 24.5801 16.4991L24.1957 15.892L23.7835 16.4806C23.6542 16.6652 23.5182 16.8613 23.3367 17.1242L23.2959 17.1834C23.1986 17.3245 22.9574 17.6742 22.8755 17.7927L22.7105 18.031C22.32 18.5934 22.0188 19.0165 21.7435 19.3849L22.5104 19.9581C22.7937 19.579 23.1007 19.1478 23.497 18.577L23.6631 18.3372C23.7451 18.2186 23.9851 17.8705 24.083 17.7285L24.0841 17.7269L24.1247 17.6681L24.1548 17.6244C25.9228 20.485 26.8086 22.4357 26.8086 23.3888ZM23.4576 25.6116C23.4576 27.5945 21.8501 29.202 19.8671 29.202C17.8842 29.202 16.2767 27.5945 16.2767 25.6116C16.2767 24.3399 17.3372 22.0792 19.4626 18.7219L19.8671 18.0831L20.2716 18.7219C22.3971 22.0792 23.4576 24.3399 23.4576 25.6116ZM19.8671 28.2446C21.3213 28.2446 22.5001 27.0658 22.5001 25.6116C22.5001 24.6622 21.6212 22.7231 19.8671 19.8809C18.113 22.7231 17.2341 24.6622 17.2341 25.6116C17.2341 27.0658 18.413 28.2446 19.8671 28.2446Z" fill="#FF5252"/>
</svg>
