<svg width="45" height="45" viewBox="0 0 45 45" fill="none" xmlns="http://www.w3.org/2000/svg">
<path fill-rule="evenodd" clip-rule="evenodd" d="M44.978 22.5002C44.978 34.9146 34.9141 44.9785 22.4997 44.9785C10.0853 44.9785 0.0214844 34.9146 0.0214844 22.5002C0.0214844 10.0858 10.0853 0.0219727 22.4997 0.0219727C34.9141 0.0219727 44.978 10.0858 44.978 22.5002ZM0.978006 22.5002C0.978006 34.3864 10.6136 44.022 22.4997 44.022C34.3859 44.022 44.0215 34.3864 44.0215 22.5002C44.0215 10.6141 34.3859 0.978494 22.4997 0.978494C10.6136 0.978494 0.978006 10.6141 0.978006 22.5002Z" fill="#DCDCDC"/>
<path d="M14.7168 14.6295L19.7734 20.248L20.5005 19.5935L15.4439 13.9751L14.7168 14.6295Z" fill="#FF5252"/>
<path fill-rule="evenodd" clip-rule="evenodd" d="M21.5214 16.8671C21.5214 19.0283 19.7695 20.7802 17.6084 20.7802C15.4472 20.7802 13.6953 19.0283 13.6953 16.8671C13.6953 14.706 15.4472 12.9541 17.6084 12.9541C19.7695 12.9541 21.5214 14.706 21.5214 16.8671ZM14.6736 16.8671C14.6736 18.488 15.9875 19.8019 17.6084 19.8019C19.2292 19.8019 20.5431 18.488 20.5431 16.8671C20.5431 15.2463 19.2292 13.9324 17.6084 13.9324C15.9875 13.9324 14.6736 15.2463 14.6736 16.8671Z" fill="#FF5252"/>
<path fill-rule="evenodd" clip-rule="evenodd" d="M34.0476 22.8704C36.0533 20.8647 36.0533 17.6129 34.0476 15.6072C32.0419 13.6015 28.7901 13.6015 26.7844 15.6072L15.3708 27.0208C13.3651 29.0265 13.3651 32.2784 15.3708 34.284C17.3765 36.2897 20.6283 36.2897 22.634 34.284L34.0476 22.8704ZM27.4761 16.2989C29.0998 14.6753 31.7322 14.6753 33.3559 16.2989C34.9795 17.9226 34.9795 20.555 33.3559 22.1787L21.9423 33.5923C20.3186 35.2159 17.6862 35.2159 16.0625 33.5923C14.4389 31.9687 14.4389 29.3362 16.0625 27.7126L27.4761 16.2989Z" fill="#FF5252"/>
<path fill-rule="evenodd" clip-rule="evenodd" d="M26.3737 26.8478L22.915 23.3892L17.3812 28.923C16.4261 29.8781 16.4261 31.4266 17.3812 32.3817C18.3362 33.3368 19.8847 33.3368 20.8398 32.3817L26.3737 26.8478ZM18.0729 29.6148L22.915 24.7726L24.9902 26.8478L20.1481 31.69C19.575 32.263 18.6459 32.263 18.0729 31.69C17.4998 31.1169 17.4998 30.1878 18.0729 29.6148Z" fill="#FF5252"/>
</svg>
