<svg width="45" height="45" viewBox="0 0 45 45" fill="none" xmlns="http://www.w3.org/2000/svg">
<path fill-rule="evenodd" clip-rule="evenodd" d="M45 22.5C45 34.9264 34.9264 45 22.5 45C10.0736 45 0 34.9264 0 22.5C0 10.0736 10.0736 0 22.5 0C34.9264 0 45 10.0736 45 22.5ZM0.957447 22.5C0.957447 34.3976 10.6024 44.0426 22.5 44.0426C34.3976 44.0426 44.0426 34.3976 44.0426 22.5C44.0426 10.6024 34.3976 0.957447 22.5 0.957447C10.6024 0.957447 0.957447 10.6024 0.957447 22.5Z" fill="#DCDCDC"/>
<mask id="mask0" mask-type="alpha" maskUnits="userSpaceOnUse" x="9" y="9" width="27" height="27">
<rect x="9.84375" y="9.84375" width="25.3125" height="25.3125" fill="white"/>
</mask>
<g mask="url(#mask0)">
<path fill-rule="evenodd" clip-rule="evenodd" d="M28.6221 12.1297C29.0538 12.1337 29.48 12.31 29.7886 12.6129C30.6576 13.4765 31.5239 14.3429 32.3876 15.2119C32.6898 15.5199 32.8666 15.94 32.8708 16.3784C32.8863 21.3203 32.8863 26.2624 32.8708 31.2043C32.8626 32.0652 32.1234 32.8602 31.2063 32.8687C25.403 32.8869 19.5996 32.8869 13.7962 32.8687C12.9329 32.8607 12.1404 32.1214 12.1318 31.2043C12.1136 25.4009 12.1136 19.5975 12.1318 13.7941C12.14 12.9268 12.8932 12.1381 13.7962 12.1297C18.7381 12.1143 23.6801 12.1143 28.6221 12.1297ZM13.8073 12.9924C13.3845 12.9937 12.9987 13.36 12.9945 13.7995C12.9763 19.601 12.9399 25.4027 12.9945 31.204C13.0009 31.6207 13.36 32.0019 13.8016 32.006C19.603 32.0242 25.4048 32.0595 31.2061 32.0059C31.6243 31.9995 32.004 31.6369 32.0081 31.1989C32.0236 26.2589 32.0546 21.3186 32.008 16.3787C32.0049 16.1705 31.9193 15.9664 31.7738 15.8181C30.9114 14.9505 30.0518 14.0801 29.1787 13.2231C29.0295 13.0785 28.8245 12.9943 28.6167 12.9924C23.6803 12.977 18.7437 12.9924 13.8073 12.9924Z" fill="#FF5252"/>
<path fill-rule="evenodd" clip-rule="evenodd" d="M27.5099 12.1317C27.726 12.1619 27.8912 12.3401 27.9015 12.5612C27.9015 13.8067 27.9056 15.0521 27.9014 16.2976C27.8935 17.1664 27.1403 17.953 26.2374 17.9616C23.7465 17.9696 21.2555 17.9696 18.7646 17.9616C17.9028 17.9534 17.1038 17.2155 17.1006 16.2876V12.5612C17.1113 12.3302 17.2992 12.1407 17.5319 12.1299H27.4701C27.4834 12.1305 27.4967 12.1311 27.5099 12.1317ZM17.9633 12.9926C17.9633 14.0942 17.9533 15.1959 17.9633 16.2975C17.9701 16.7161 18.3295 17.0947 18.7701 17.0989C21.2592 17.1069 23.7483 17.1225 26.2373 17.0989C26.6557 17.0923 27.0373 16.73 27.0388 16.2861V12.9926C24.0136 12.9926 20.9884 12.9926 17.9633 12.9926Z" fill="#FF5252"/>
<path fill-rule="evenodd" clip-rule="evenodd" d="M28.3079 21.2398C29.1727 21.248 29.9688 21.9888 29.9719 22.9138V32.4374C29.9429 32.6206 29.8457 32.7918 29.6738 32.8476C29.6311 32.8615 29.585 32.8617 29.5406 32.8687H15.4615C15.3721 32.8546 15.2803 32.8389 15.2079 32.7864C15.0991 32.7073 15.052 32.575 15.0302 32.4374C15.0302 29.2595 15.0194 26.0816 15.0302 22.9037C15.0384 22.0398 15.7796 21.2485 16.6942 21.2398C20.5654 21.2274 24.4367 21.2274 28.3079 21.2398ZM16.7057 22.1024C16.2844 22.1038 15.8971 22.4632 15.8929 22.9093V32.006H29.1092C29.1092 28.972 29.1378 25.9379 29.1092 22.9039C29.1025 22.4839 28.743 22.1066 28.3024 22.1024C24.4368 22.09 20.5712 22.1024 16.7057 22.1024Z" fill="#FF5252"/>
</g>
</svg>
