<svg width="45" height="45" viewBox="0 0 45 45" fill="none" xmlns="http://www.w3.org/2000/svg">
<path fill-rule="evenodd" clip-rule="evenodd" d="M45 22.5C45 34.9264 34.9264 45 22.5 45C10.0736 45 0 34.9264 0 22.5C0 10.0736 10.0736 0 22.5 0C34.9264 0 45 10.0736 45 22.5ZM0.957447 22.5C0.957447 34.3976 10.6024 44.0426 22.5 44.0426C34.3976 44.0426 44.0426 34.3976 44.0426 22.5C44.0426 10.6024 34.3976 0.957447 22.5 0.957447C10.6024 0.957447 0.957447 10.6024 0.957447 22.5Z" fill="#DCDCDC"/>
<path fill-rule="evenodd" clip-rule="evenodd" d="M37.3154 16.5271C37.3154 17.7149 36.3684 18.6777 35.2002 18.6777C34.032 18.6777 33.085 17.7149 33.085 16.5271C33.085 15.3393 34.032 14.3765 35.2002 14.3765C36.3684 14.3765 37.3154 15.3393 37.3154 16.5271ZM34.0251 16.5271C34.0251 17.187 34.5512 17.7219 35.2002 17.7219C35.8492 17.7219 36.3753 17.187 36.3753 16.5271C36.3753 15.8672 35.8492 15.3323 35.2002 15.3323C34.5512 15.3323 34.0251 15.8672 34.0251 16.5271Z" fill="#FF5252"/>
<path fill-rule="evenodd" clip-rule="evenodd" d="M29.7949 26.0852C29.7949 27.273 28.8479 28.2358 27.6797 28.2358C26.5115 28.2358 25.5645 27.273 25.5645 26.0852C25.5645 24.8974 26.5115 23.9346 27.6797 23.9346C28.8479 23.9346 29.7949 24.8974 29.7949 26.0852ZM26.5046 26.0852C26.5046 26.7451 27.0307 27.28 27.6797 27.28C28.3287 27.28 28.8548 26.7451 28.8548 26.0852C28.8548 25.4253 28.3287 24.8904 27.6797 24.8904C27.0307 24.8904 26.5046 25.4253 26.5046 26.0852Z" fill="#FF5252"/>
<path fill-rule="evenodd" clip-rule="evenodd" d="M19.9238 19.8723C19.9238 21.0601 18.9768 22.0229 17.8086 22.0229C16.6404 22.0229 15.6934 21.0601 15.6934 19.8723C15.6934 18.6846 16.6404 17.7217 17.8086 17.7217C18.9768 17.7217 19.9238 18.6846 19.9238 19.8723ZM16.6335 19.8723C16.6335 20.5322 17.1596 21.0671 17.8086 21.0671C18.4576 21.0671 18.9837 20.5322 18.9837 19.8723C18.9837 19.2124 18.4576 18.6775 17.8086 18.6775C17.1596 18.6775 16.6335 19.2124 16.6335 19.8723Z" fill="#FF5252"/>
<path fill-rule="evenodd" clip-rule="evenodd" d="M12.873 29.4309C12.873 30.6187 11.926 31.5815 10.7578 31.5815C9.5896 31.5815 8.64258 30.6187 8.64258 29.4309C8.64258 28.2431 9.5896 27.2803 10.7578 27.2803C11.926 27.2803 12.873 28.2431 12.873 29.4309ZM9.58268 29.4309C9.58268 30.0908 10.1088 30.6257 10.7578 30.6257C11.4068 30.6257 11.9329 30.0908 11.9329 29.4309C11.9329 28.771 11.4068 28.2361 10.7578 28.2361C10.1088 28.2361 9.58268 28.771 9.58268 29.4309Z" fill="#FF5252"/>
<path d="M33.9457 17.5288L28.1943 24.9713L28.9336 25.5618L34.6849 18.1193L33.9457 17.5288Z" fill="#FF5252"/>
<path d="M16.508 20.4033L11.5146 27.8851L12.2926 28.4218L17.2859 20.94L16.508 20.4033Z" fill="#FF5252"/>
<path d="M19.2788 20.415L26.6758 24.7126L26.2094 25.5425L18.8124 21.2449L19.2788 20.415Z" fill="#FF5252"/>
</svg>
