<svg width="119" height="37" viewBox="0 0 119 37" fill="none" xmlns="http://www.w3.org/2000/svg">
<path fill-rule="evenodd" clip-rule="evenodd" d="M21.5581 33.1669C21.3158 33.0656 21.0921 32.8912 20.8869 32.6452V29.3121C21.1214 29.0265 21.3708 28.8062 21.6351 28.6487C21.8993 28.492 22.2193 28.4134 22.5962 28.4134C22.8356 28.4134 23.0497 28.4567 23.2381 28.5434C23.4262 28.6311 23.5864 28.7681 23.7187 28.9568C23.8506 29.1451 23.9517 29.39 24.0231 29.6925C24.0937 29.9942 24.1294 30.3621 24.1294 30.7975C24.1294 31.2274 24.0874 31.6004 24.0049 31.9172C23.9216 32.2329 23.8027 32.4958 23.6488 32.7029C23.4946 32.9106 23.3076 33.0656 23.0876 33.1669C22.8675 33.2679 22.6208 33.3192 22.3465 33.3192C22.0632 33.3192 21.8005 33.2679 21.5581 33.1669ZM21.8406 27.3194C21.4492 27.5316 21.0995 27.8095 20.7914 28.1524L20.6446 27.4644C20.5713 27.2467 20.4171 27.138 20.1826 27.138H19.075V37H20.8869V33.9569C21.1214 34.1835 21.3879 34.3611 21.6867 34.4896C21.9848 34.617 22.3439 34.6813 22.765 34.6813C23.2585 34.6813 23.7053 34.5832 24.1037 34.3879C24.5022 34.1923 24.8419 33.921 25.1232 33.5729C25.4042 33.2245 25.6213 32.8141 25.7725 32.3409C25.9242 31.8677 26 31.353 26 30.7975C26 30.1888 25.9327 29.6491 25.7986 29.1778C25.6636 28.7071 25.473 28.311 25.2262 27.9898C24.979 27.6678 24.6858 27.4226 24.3461 27.2537C24.0056 27.0848 23.6302 27 23.2195 27C22.6914 27 22.2316 27.1072 21.8406 27.3194ZM8.72242 27.1068V34.5557H7.08669V30.4109C7.08669 30.2417 7.09523 30.0508 7.11233 29.8382C7.12943 29.626 7.15768 29.4281 7.19707 29.2438L4.98153 33.259C4.87337 33.4668 4.7024 33.5704 4.46788 33.5704H4.27721C4.04194 33.5704 3.87097 33.4668 3.76356 33.259L1.51828 29.2229C1.55285 29.4057 1.5811 29.6066 1.60302 29.8243C1.62495 30.0409 1.63573 30.2373 1.63573 30.4109V34.5557H0V27.1068H1.49635C1.62347 27.1068 1.74946 27.1333 1.87435 27.1865C1.99886 27.2397 2.10255 27.3458 2.18618 27.5048L3.96129 30.6352C4.03971 30.7806 4.1133 30.9333 4.18169 31.0952C4.25008 31.2571 4.31363 31.4209 4.37236 31.5846C4.43108 31.4209 4.49352 31.2564 4.55968 31.0919C4.62547 30.9282 4.69757 30.7762 4.776 30.6352L6.53661 27.5048C6.6247 27.3414 6.72951 27.2335 6.85216 27.1832C6.9737 27.1318 7.09895 27.1068 7.22606 27.1068H8.72242ZM17.2849 27.1379V34.5724H15.473V30.2319C15.473 30.1207 15.4789 29.9996 15.4912 29.8659C15.5034 29.733 15.5194 29.5998 15.5391 29.4643C15.441 29.6864 15.3336 29.8817 15.2161 30.051C15.2065 30.0605 15.1574 30.127 15.0693 30.2499C14.9812 30.3737 14.8675 30.5319 14.7281 30.725L14.7148 30.7435C14.5787 30.9324 14.4256 31.145 14.255 31.3803L13.9071 31.8629L13.7194 32.1234C13.2938 32.7177 12.8122 33.3892 12.2743 34.1374C12.206 34.2391 12.1164 34.3382 12.0067 34.4347C11.8964 34.532 11.7707 34.5798 11.6288 34.5798H10.5208V27.1452H12.3331V31.4857C12.3331 31.5969 12.3268 31.7192 12.3145 31.8517C12.3022 31.9846 12.2866 32.1189 12.2669 32.2544C12.3743 32.0173 12.4821 31.8216 12.5895 31.6667C12.5944 31.6571 12.6412 31.5918 12.7289 31.4713C12.817 31.3502 12.9307 31.1934 13.0701 31C13.2098 30.8072 13.3674 30.5884 13.5432 30.3443C13.7194 30.1002 13.8978 29.8509 14.0788 29.5943C14.5044 28.9999 14.9887 28.3284 15.5313 27.5802C15.6001 27.4741 15.6904 27.3732 15.8026 27.2796C15.9153 27.1848 16.0424 27.1379 16.1843 27.1379H17.2849Z" fill="#BDBDBD"/>
<path fill-rule="evenodd" clip-rule="evenodd" d="M96.0802 9.75082C96.0988 9.73608 96.1181 9.7147 96.1389 9.68706L96.3146 9.43899C96.179 9.29893 96.0243 9.19093 95.8507 9.11463C95.6768 9.03833 95.476 9 95.248 9C95.0035 9 94.7877 9.04202 94.6005 9.12569C94.4137 9.20973 94.2569 9.32584 94.1305 9.47401C94.0042 9.62255 93.9079 9.79911 93.842 10.0037C93.7765 10.2082 93.7436 10.4305 93.7436 10.6701C93.7436 10.9351 93.7801 11.171 93.8531 11.3778C93.9258 11.5846 94.0257 11.7597 94.152 11.9027C94.2784 12.0461 94.4265 12.1552 94.5958 12.2303C94.7655 12.3055 94.9477 12.3435 95.1431 12.3435C95.2562 12.3435 95.3682 12.3343 95.4792 12.3162C95.5902 12.2982 95.6968 12.2687 95.7999 12.2274C95.9026 12.1857 96 12.1323 96.0927 12.0667C96.185 12.0007 96.2692 11.9204 96.3454 11.8249L96.1575 11.5735C96.1285 11.5311 96.0873 11.5097 96.034 11.5097C95.9907 11.5097 95.9502 11.5256 95.9123 11.5577C95.8744 11.5894 95.8285 11.6244 95.7752 11.6623C95.7215 11.7007 95.6549 11.7357 95.5748 11.7678C95.4946 11.7995 95.3908 11.8153 95.2634 11.8153C95.1338 11.8153 95.0175 11.7899 94.9137 11.739C94.8095 11.6881 94.7215 11.6141 94.6481 11.5164C94.5754 11.4187 94.5196 11.2989 94.4802 11.1566C94.4412 11.0147 94.4219 10.8525 94.4219 10.6701C94.4219 10.4939 94.4398 10.3358 94.4759 10.1946C94.5117 10.0534 94.5661 9.93365 94.6391 9.83486C94.7122 9.73645 94.8027 9.66052 94.9105 9.60781C95.0182 9.55473 95.1442 9.52819 95.2881 9.52819C95.399 9.52819 95.4914 9.54073 95.5655 9.56616C95.6396 9.59159 95.7026 9.61997 95.7552 9.65057C95.8074 9.68116 95.8529 9.70954 95.8908 9.73461C95.9288 9.76041 95.9653 9.77294 96 9.77294C96.0351 9.77294 96.0619 9.76557 96.0802 9.75082ZM74.4016 9.9875C74.4334 10.0863 74.4492 10.1928 74.4492 10.3074H72.8861C72.9233 10.0509 73.0107 9.85149 73.1481 9.70921C73.2859 9.5673 73.4749 9.49616 73.7154 9.49616C73.8346 9.49616 73.9398 9.5168 74.0315 9.55809C74.1227 9.59974 74.1997 9.65687 74.2613 9.73022C74.3228 9.8032 74.3694 9.88908 74.4016 9.9875ZM72.9509 11.2061C72.9036 11.0715 72.8757 10.9119 72.8678 10.7273H74.8869C74.9463 10.7273 74.9875 10.7092 75.0104 10.6734C75.033 10.6373 75.0441 10.5662 75.0441 10.46C75.0441 10.2289 75.0108 10.0229 74.9438 9.84153C74.8769 9.66019 74.7842 9.50685 74.665 9.38153C74.5458 9.25658 74.4041 9.16185 74.2398 9.09698C74.0751 9.03247 73.8965 9.00004 73.7032 9.00004C73.471 9.00004 73.263 9.04206 73.0787 9.12573C72.895 9.2094 72.739 9.32329 72.6105 9.46778C72.4816 9.6119 72.3832 9.78145 72.3145 9.97681C72.2454 10.1718 72.211 10.3815 72.211 10.6067C72.211 10.8887 72.2497 11.1375 72.3267 11.3539C72.404 11.5702 72.5106 11.7516 72.6474 11.8979C72.7841 12.0442 72.9452 12.1552 73.1313 12.2304C73.317 12.3056 73.5193 12.3432 73.7369 12.3432C73.8479 12.3432 73.962 12.3343 74.0791 12.3163C74.1965 12.2982 74.3103 12.2687 74.4213 12.2271C74.5322 12.1858 74.6371 12.1323 74.7359 12.0664C74.8347 12.0008 74.9227 11.92 75.0011 11.8249L74.8128 11.5736C74.7842 11.5312 74.743 11.5098 74.6897 11.5098C74.6485 11.5098 74.6034 11.5253 74.554 11.5562C74.5047 11.5868 74.4452 11.6207 74.3751 11.658C74.3053 11.6948 74.223 11.7287 74.1285 11.7597C74.034 11.7903 73.9219 11.8058 73.7927 11.8058C73.6571 11.8058 73.5339 11.784 73.4241 11.7405C73.3142 11.697 73.2197 11.6307 73.1406 11.5419C73.0615 11.4527 72.9981 11.3406 72.9509 11.2061ZM71.5761 12.2958V9.0415H71.0367C70.9916 9.0415 70.9462 9.05146 70.9011 9.07173C70.856 9.092 70.8177 9.13365 70.7869 9.19705L69.9454 10.705C69.9168 10.7603 69.8899 10.8196 69.8652 10.8834C69.8405 10.9468 69.8169 11.0105 69.7944 11.0743C69.7715 11.0105 69.7486 10.9468 69.7253 10.8834C69.7013 10.8196 69.6752 10.7603 69.6462 10.705L68.7925 9.19705C68.7596 9.13586 68.7209 9.09458 68.6769 9.0732C68.6325 9.05219 68.5878 9.0415 68.5427 9.0415H68.0001V12.2958H68.5982V10.3327C68.5982 10.263 68.5935 10.1841 68.5846 10.096C68.5753 10.008 68.5642 9.92686 68.552 9.85241L69.5725 11.7197C69.5929 11.758 69.619 11.7883 69.6512 11.8107C69.6827 11.8329 69.7192 11.8439 69.7604 11.8439H69.8312C69.8724 11.8439 69.9096 11.8329 69.9426 11.8107C69.9751 11.7883 70.002 11.758 70.0224 11.7197L71.0242 9.86199C71.012 9.93645 71.0017 10.0164 70.9934 10.1023C70.9852 10.1882 70.9813 10.2649 70.9813 10.3327V12.2958H71.5761ZM77.7723 11.8025V9.58212H76.8907C76.8721 9.8792 76.8459 10.1453 76.8119 10.3809C76.7779 10.616 76.7389 10.8243 76.6949 11.0056C76.6505 11.187 76.6015 11.3429 76.5485 11.4734C76.4948 11.6035 76.4393 11.7133 76.3817 11.8025H77.7723ZM78.9899 11.78V13.1895C78.9899 13.2533 78.972 13.3034 78.9359 13.3407C78.8997 13.3775 78.8543 13.3963 78.7988 13.3963H78.389V12.2957H75.901V13.2021C75.901 13.2511 75.886 13.2957 75.8563 13.3359C75.8266 13.376 75.7807 13.3963 75.7192 13.3963H75.3V11.8025H75.3953C75.4676 11.8025 75.5381 11.7915 75.6082 11.7693C75.678 11.7469 75.7446 11.7019 75.8087 11.6341C75.8724 11.5663 75.9329 11.4701 75.9905 11.3462C76.0481 11.222 76.1 11.058 76.1462 10.8545C76.1924 10.651 76.2328 10.4019 76.2679 10.107C76.303 9.81249 76.3305 9.46048 76.3509 9.05098H78.4137V11.78H78.9899ZM82.27 12.2957V9.05101H81.8691C81.8175 9.05101 81.7714 9.06907 81.7306 9.10483C81.6894 9.14132 81.6565 9.18039 81.6318 9.22278L80.2659 11.1568C80.223 11.2206 80.1807 11.3009 80.1396 11.3986C80.1478 11.3433 80.1546 11.2884 80.1596 11.2331C80.165 11.1782 80.1675 11.1284 80.1675 11.0838V9.05101H79.5046V12.2987H79.9055C79.957 12.2987 80.0032 12.2803 80.044 12.243C80.0852 12.2062 80.1181 12.1675 80.1428 12.1269L81.5086 10.1896C81.5312 10.1579 81.5523 10.1225 81.5716 10.0831C81.5913 10.044 81.6114 10.0012 81.6318 9.95443C81.6235 10.0097 81.6175 10.0635 81.6132 10.1166C81.6092 10.1697 81.6071 10.2183 81.6071 10.2629V12.2957H82.27ZM86.3358 11.7802V13.1897C86.3358 13.2531 86.3183 13.3036 86.2836 13.3404C86.2485 13.3777 86.2034 13.3961 86.1479 13.3961H85.7381V12.2955H83.0772V9.05112H83.7405V11.7802H85.0999V9.05112H85.7596V11.7802H86.3358ZM89.6159 12.2957V9.05101H89.215C89.1635 9.05101 89.1173 9.06907 89.0765 9.10483C89.035 9.14132 89.0024 9.18039 88.9777 9.22278L87.6118 11.1568C87.5689 11.2206 87.5267 11.3009 87.4855 11.3986C87.4937 11.3433 87.5005 11.2884 87.5055 11.2331C87.5109 11.1782 87.5134 11.1284 87.5134 11.0838V9.05101H86.8505V12.2987H87.2514C87.303 12.2987 87.3491 12.2803 87.3899 12.243C87.4311 12.2062 87.464 12.1675 87.4887 12.1269L88.8546 10.1896C88.8771 10.1579 88.8982 10.1225 88.9176 10.0831C88.9373 10.044 88.9573 10.0012 88.9777 9.95443C88.9695 10.0097 88.9634 10.0635 88.9591 10.1166C88.9552 10.1697 88.953 10.2183 88.953 10.2629V12.2957H89.6159ZM93.1056 9.05101V12.2957H92.4459V10.8228H91.0861V12.2957H90.4236V9.05101H91.0861V10.3075H92.4459V9.05101H93.1056ZM98.7683 9.23549C98.8012 9.18021 98.846 9.13561 98.9025 9.10206C98.9591 9.06778 99.0181 9.0512 99.0797 9.0512H99.5976L98.8238 10.2694C98.7747 10.352 98.7232 10.4187 98.6699 10.4699C98.6162 10.5204 98.5503 10.5598 98.4723 10.5871C98.5732 10.617 98.6566 10.6623 98.7236 10.7228C98.7905 10.7832 98.8506 10.861 98.9039 10.9565L99.6839 12.2956H99.2275C99.1105 12.2956 99.0196 12.2756 98.9548 12.2351C98.89 12.1949 98.8352 12.1356 98.7901 12.0571L98.2565 11.1091C98.2135 11.0287 98.1569 10.9694 98.0872 10.931C98.017 10.8931 97.9379 10.8735 97.8498 10.8735H97.5381V12.2989H96.8756V9.0512H97.5381V10.4157H97.8065C97.8928 10.4157 97.9647 10.3988 98.0224 10.3645C98.08 10.331 98.129 10.279 98.1702 10.2089L98.7683 9.23549ZM102.914 12.2957V9.05101H102.513C102.462 9.05101 102.416 9.06907 102.375 9.10483C102.334 9.14132 102.301 9.18039 102.276 9.22278L100.911 11.1568C100.867 11.2206 100.825 11.3009 100.784 11.3986C100.793 11.3433 100.799 11.2884 100.804 11.2331C100.809 11.1782 100.812 11.1284 100.812 11.0838V9.05101H100.149V12.2987H100.55C100.601 12.2987 100.648 12.2803 100.689 12.243C100.73 12.2062 100.762 12.1675 100.787 12.1269L102.153 10.1896C102.176 10.1579 102.197 10.1225 102.216 10.0831C102.236 10.044 102.256 10.0012 102.276 9.95443C102.268 10.0097 102.262 10.0635 102.258 10.1166C102.254 10.1697 102.251 10.2183 102.251 10.2629V12.2957H102.914ZM105.784 10.3074C105.784 10.1928 105.769 10.0863 105.737 9.9875C105.705 9.88908 105.658 9.8032 105.597 9.73022C105.535 9.65687 105.458 9.59974 105.367 9.55809C105.275 9.5168 105.17 9.49616 105.051 9.49616C104.81 9.49616 104.621 9.5673 104.483 9.70921C104.346 9.85149 104.259 10.0509 104.221 10.3074H105.784ZM104.203 10.7273C104.211 10.9119 104.239 11.0715 104.286 11.2061C104.333 11.3406 104.397 11.4527 104.476 11.5419C104.555 11.6307 104.649 11.697 104.76 11.7405C104.87 11.784 104.992 11.8058 105.128 11.8058C105.257 11.8058 105.369 11.7903 105.464 11.7597C105.558 11.7287 105.641 11.6948 105.71 11.658C105.78 11.6207 105.84 11.5868 105.889 11.5562C105.939 11.5253 105.984 11.5098 106.025 11.5098C106.078 11.5098 106.119 11.5312 106.148 11.5736L106.336 11.8249C106.258 11.92 106.17 12.0008 106.071 12.0664C105.972 12.1323 105.867 12.1858 105.757 12.2271C105.646 12.2687 105.532 12.2982 105.414 12.3163C105.297 12.3343 105.183 12.3432 105.073 12.3432C104.855 12.3432 104.652 12.3056 104.467 12.2304C104.28 12.1552 104.119 12.0442 103.983 11.8979C103.846 11.7516 103.739 11.5702 103.662 11.3539C103.585 11.1375 103.546 10.8887 103.546 10.6067C103.546 10.3815 103.581 10.1718 103.65 9.97681C103.718 9.78145 103.817 9.6119 103.946 9.46778C104.074 9.32329 104.23 9.2094 104.414 9.12573C104.598 9.04206 104.806 9.00004 105.038 9.00004C105.232 9.00004 105.41 9.03247 105.575 9.09698C105.739 9.16185 105.881 9.25658 106 9.38153C106.119 9.50685 106.213 9.66019 106.279 9.84153C106.346 10.0229 106.38 10.2289 106.38 10.46C106.38 10.5662 106.368 10.6373 106.346 10.6734C106.323 10.7092 106.282 10.7273 106.222 10.7273H104.203ZM70.7654 19.6088V16.364H70.3645C70.3133 16.364 70.2671 16.3817 70.226 16.4179C70.1848 16.4543 70.1519 16.4934 70.1272 16.5358L68.7617 18.4698C68.7184 18.5336 68.6765 18.6139 68.6353 18.7116C68.6436 18.6563 68.65 18.6014 68.655 18.5461C68.6604 18.4912 68.6629 18.4411 68.6629 18.3968V16.364H68V19.6117H68.4012C68.4524 19.6117 68.4986 19.5933 68.5398 19.5561C68.5806 19.5192 68.6135 19.4805 68.6382 19.4399L70.004 17.5026C70.0266 17.4709 70.0477 17.4355 70.067 17.3961C70.0867 17.357 70.1068 17.3143 70.1272 17.2675C70.1189 17.3228 70.1129 17.3766 70.1089 17.4296C70.1046 17.4827 70.1025 17.5314 70.1025 17.576V19.6088H70.7654ZM74.255 16.364V19.6088H73.5953V18.1359H72.2356V19.6088H71.573V16.364H72.2356V17.6206H73.5953V16.364H74.255ZM77.9405 18.807C77.7604 19.0064 77.5031 19.1177 77.1681 19.1409V16.8284C77.5031 16.8519 77.7604 16.9636 77.9405 17.1638C78.1202 17.3643 78.21 17.6385 78.21 17.9865C78.21 18.3341 78.1202 18.6079 77.9405 18.807ZM75.8162 17.1638C75.9962 16.9636 76.2536 16.8519 76.5886 16.8284V19.1409C76.2536 19.1177 75.9962 19.0064 75.8162 18.807C75.6365 18.6079 75.5467 18.3341 75.5467 17.9865C75.5467 17.6385 75.6365 17.3643 75.8162 17.1638ZM77.8804 16.4594C77.6724 16.3765 77.4415 16.3289 77.1867 16.316V15.0278H76.5668V16.316C76.3119 16.3289 76.081 16.3772 75.8734 16.4609C75.6658 16.5449 75.489 16.6588 75.343 16.8029C75.1973 16.947 75.0842 17.1192 75.004 17.3182C74.9239 17.5176 74.8838 17.7392 74.8838 17.9832C74.8838 18.229 74.9239 18.4516 75.004 18.651C75.0842 18.8505 75.1973 19.0222 75.343 19.1663C75.489 19.3105 75.6658 19.4247 75.8734 19.5084C76.081 19.5924 76.3119 19.6404 76.5668 19.6533V20.7093H77.1867V19.6533C77.4415 19.6404 77.6724 19.5924 77.8804 19.5084C78.0876 19.4247 78.2644 19.3105 78.4104 19.1663C78.5561 19.0222 78.6692 18.8505 78.7494 18.651C78.8296 18.4516 78.8697 18.229 78.8697 17.9832C78.8697 17.7369 78.8296 17.5143 78.7494 17.3149C78.6692 17.1159 78.5561 16.9441 78.4104 16.7996C78.2644 16.6555 78.0876 16.542 77.8804 16.4594ZM80.8549 19.122C81.1383 19.122 81.3499 19.0236 81.4884 18.8279C81.6273 18.6314 81.6967 18.3509 81.6967 17.9864C81.6967 17.6215 81.6273 17.3402 81.4884 17.1416C81.3499 16.9436 81.1383 16.8441 80.8549 16.8441C80.5671 16.8441 80.3534 16.9436 80.2134 17.1416C80.0739 17.3402 80.0041 17.6215 80.0041 17.9864C80.0041 18.3509 80.0739 18.6314 80.2134 18.8279C80.3534 19.0236 80.5671 19.122 80.8549 19.122ZM80.8549 16.313C81.0872 16.313 81.2973 16.3524 81.4855 16.4309C81.6734 16.509 81.8334 16.6204 81.9662 16.7648C82.099 16.909 82.201 17.0841 82.273 17.2897C82.3449 17.4954 82.3811 17.7265 82.3811 17.983C82.3811 18.2396 82.3449 18.4707 82.273 18.6767C82.201 18.8824 82.099 19.0579 81.9662 19.2031C81.8334 19.3483 81.6734 19.46 81.4855 19.5385C81.2973 19.617 81.0872 19.6565 80.8549 19.6565C80.6208 19.6565 80.4096 19.617 80.2213 19.5385C80.0334 19.46 79.8727 19.3483 79.7388 19.2031C79.6053 19.0579 79.5026 18.8824 79.4307 18.6767C79.3587 18.4707 79.3229 18.2396 79.3229 17.983C79.3229 17.7265 79.3587 17.4954 79.4307 17.2897C79.5026 17.0841 79.6053 16.909 79.7388 16.7648C79.8727 16.6204 80.0334 16.509 80.2213 16.4309C80.4096 16.3524 80.6208 16.313 80.8549 16.313ZM83.9825 19.0537C83.8723 19.0036 83.771 18.9174 83.6786 18.7942V17.2897C83.7835 17.1496 83.897 17.042 84.0194 16.9668C84.1414 16.8916 84.2871 16.8536 84.4553 16.8536C84.5663 16.8536 84.6662 16.8742 84.7546 16.9141C84.8426 16.9546 84.9178 17.0195 84.9797 17.1083C85.0413 17.1971 85.0885 17.3125 85.1214 17.4533C85.1544 17.5945 85.1705 17.7648 85.1705 17.9642C85.1705 18.3497 85.0982 18.6405 84.9536 18.8355C84.8086 19.0309 84.6064 19.1282 84.3476 19.1282C84.2141 19.1282 84.0924 19.1035 83.9825 19.0537ZM84.0935 16.4496C83.9256 16.5473 83.776 16.6756 83.6446 16.8348L83.5891 16.4942C83.5645 16.4072 83.5072 16.3641 83.4166 16.3641H83.0157V20.687H83.6786V19.3095C83.7835 19.4175 83.9002 19.5023 84.0287 19.5639C84.1568 19.6254 84.3136 19.6564 84.4986 19.6564C84.708 19.6564 84.8963 19.6133 85.0627 19.5274C85.2292 19.4415 85.3709 19.3228 85.4883 19.1713C85.6054 19.0195 85.6952 18.8403 85.7578 18.6335C85.8205 18.4268 85.852 18.2038 85.852 17.9642C85.852 17.6966 85.8237 17.4596 85.7672 17.2532C85.7106 17.046 85.6311 16.8728 85.5281 16.7331C85.4253 16.593 85.3022 16.4865 85.1583 16.4135C85.0144 16.3402 84.8544 16.3037 84.6776 16.3037C84.4553 16.3037 84.2606 16.3523 84.0935 16.4496ZM90.0691 16.3545V19.6088H89.4739V17.6457C89.4739 17.5779 89.4782 17.5012 89.4864 17.4153C89.4946 17.3294 89.505 17.2494 89.5172 17.175L88.5153 19.0327C88.4949 19.071 88.4681 19.1012 88.4352 19.1234C88.4022 19.1458 88.3654 19.1569 88.3242 19.1569H88.2533C88.2122 19.1569 88.1757 19.1458 88.1438 19.1234C88.1119 19.1012 88.0858 19.071 88.0651 19.0327L87.045 17.1654C87.0571 17.2399 87.0679 17.3209 87.0772 17.4087C87.0865 17.4971 87.0911 17.5756 87.0911 17.6457V19.6088H86.493V16.3545H87.0357C87.0808 16.3545 87.1255 16.3648 87.1695 16.3862C87.2139 16.4076 87.2526 16.4489 87.2855 16.51L88.1391 18.018C88.1678 18.0732 88.1943 18.1326 88.2179 18.1964C88.2415 18.2598 88.2644 18.3235 88.2873 18.3873C88.3099 18.3235 88.3335 18.2598 88.3582 18.1964C88.3829 18.1326 88.4094 18.0732 88.4384 18.018L89.2799 16.51C89.3106 16.4466 89.3486 16.405 89.394 16.3847C89.4391 16.3644 89.4842 16.3545 89.5297 16.3545H90.0691ZM91.962 18.2489C92.1242 18.2179 92.3235 18.1984 92.5598 18.1899V18.7911C92.4427 18.9182 92.3217 19.0152 92.1975 19.0819C92.0733 19.149 91.9248 19.1822 91.7523 19.1822C91.6843 19.1822 91.622 19.1744 91.5658 19.1582C91.5089 19.1423 91.4598 19.1173 91.4176 19.0819C91.3754 19.0472 91.3428 19.0027 91.3192 18.9485C91.2955 18.8947 91.2837 18.829 91.2837 18.7527C91.2837 18.6746 91.3056 18.6024 91.35 18.5364C91.394 18.4708 91.4663 18.414 91.5672 18.3665C91.6678 18.3185 91.7992 18.2795 91.962 18.2489ZM92.073 16.3034C91.5815 16.3034 91.1581 16.4741 90.8027 16.8154L90.9229 17.0381C90.9433 17.0745 90.9695 17.1048 91.0013 17.1291C91.0335 17.1534 91.0718 17.1656 91.1173 17.1656C91.1728 17.1656 91.225 17.149 91.2744 17.1162C91.3235 17.0834 91.3804 17.0476 91.4437 17.0097C91.5078 16.9713 91.5826 16.936 91.6689 16.9031C91.7551 16.87 91.8622 16.8538 91.9896 16.8538C92.1764 16.8538 92.3185 16.9109 92.4148 17.0255C92.5114 17.1402 92.5598 17.3141 92.5598 17.5474V17.7634C92.2022 17.7719 91.9019 17.8069 91.6581 17.8685C91.4147 17.93 91.2182 18.0082 91.0693 18.1025C90.9201 18.1969 90.8134 18.3034 90.7486 18.4221C90.6838 18.5408 90.6516 18.6628 90.6516 18.7878C90.6516 18.9345 90.6745 19.0616 90.7211 19.1696C90.7672 19.2776 90.8302 19.3683 90.9108 19.4416C90.991 19.5146 91.0858 19.5692 91.1957 19.6053C91.3056 19.6414 91.4244 19.6595 91.5518 19.6595C91.6667 19.6595 91.7723 19.6495 91.8679 19.6293C91.9631 19.6094 92.0526 19.5791 92.136 19.5386C92.219 19.4984 92.2999 19.4494 92.3779 19.3908C92.456 19.3325 92.5351 19.2662 92.6152 19.1917L92.68 19.456C92.7026 19.5176 92.7305 19.5581 92.7634 19.5784C92.7963 19.5987 92.8443 19.6086 92.9084 19.6086H93.204V17.5474C93.204 17.3628 93.179 17.1947 93.1285 17.0432C93.078 16.8917 93.0054 16.7605 92.9098 16.6503C92.8142 16.5401 92.6958 16.4546 92.5551 16.3941C92.4144 16.3337 92.2537 16.3034 92.073 16.3034ZM97.2361 19.0932V20.5023C97.2361 20.5661 97.2185 20.6166 97.1838 20.6535C97.1487 20.6907 97.1036 20.7091 97.0482 20.7091H96.6383V19.6085H93.9775V16.3642H94.6407V19.0932H95.9998V16.3642H96.6598V19.0932H97.2361ZM100.516 19.6088V16.364H100.115C100.064 16.364 100.018 16.3817 99.9768 16.4179C99.9352 16.4543 99.9027 16.4934 99.878 16.5358L98.5121 18.4698C98.4692 18.5336 98.4269 18.6139 98.3858 18.7116C98.394 18.6563 98.4008 18.6014 98.4058 18.5461C98.4112 18.4912 98.4137 18.4411 98.4137 18.3968V16.364H97.7508V19.6117H98.1517C98.2032 19.6117 98.2494 19.5933 98.2902 19.5561C98.3314 19.5192 98.3643 19.4805 98.389 19.4399L99.7549 17.5026C99.7774 17.4709 99.7985 17.4355 99.8178 17.3961C99.8375 17.357 99.8576 17.3143 99.878 17.2675C99.8697 17.3228 99.8637 17.3766 99.8594 17.4296C99.8554 17.4827 99.8533 17.5314 99.8533 17.576V19.6088H100.516ZM102.683 19.122C102.967 19.122 103.178 19.0236 103.317 18.8279C103.455 18.6314 103.525 18.3509 103.525 17.9864C103.525 17.6215 103.455 17.3402 103.317 17.1416C103.178 16.9436 102.967 16.8441 102.683 16.8441C102.395 16.8441 102.182 16.9436 102.042 17.1416C101.902 17.3402 101.832 17.6215 101.832 17.9864C101.832 18.3509 101.902 18.6314 102.042 18.8279C102.182 19.0236 102.395 19.122 102.683 19.122ZM102.683 16.313C102.915 16.313 103.126 16.3524 103.313 16.4309C103.502 16.509 103.662 16.6204 103.794 16.7648C103.927 16.909 104.029 17.0841 104.101 17.2897C104.173 17.4954 104.209 17.7265 104.209 17.983C104.209 18.2396 104.173 18.4707 104.101 18.6767C104.029 18.8824 103.927 19.0579 103.794 19.2031C103.662 19.3483 103.502 19.46 103.313 19.5385C103.126 19.617 102.915 19.6565 102.683 19.6565C102.449 19.6565 102.238 19.617 102.05 19.5385C101.862 19.46 101.701 19.3483 101.567 19.2031C101.434 19.0579 101.331 18.8824 101.259 18.6767C101.187 18.4707 101.151 18.2396 101.151 17.983C101.151 17.7265 101.187 17.4954 101.259 17.2897C101.331 17.0841 101.434 16.909 101.567 16.7648C101.701 16.6204 101.862 16.509 102.05 16.4309C102.238 16.3524 102.449 16.313 102.683 16.313ZM107.526 19.6088V16.364H106.866V17.6206H105.507V16.364H104.844V19.6088H105.507V18.1359H106.866V19.6088H107.526ZM111.019 16.364V19.6088H110.359V18.1359H109V19.6088H108.337V16.364H109V17.6206H110.359V16.364H111.019ZM115.535 19.6086H114.872V16.3639H115.535V19.6086ZM113.332 19.0727C113.259 19.0992 113.175 19.1125 113.078 19.1125H112.458V18.0911H113.072C113.178 18.0911 113.269 18.1048 113.343 18.1309C113.417 18.1575 113.477 18.1936 113.523 18.2393C113.57 18.2846 113.603 18.3377 113.625 18.3982C113.647 18.4586 113.657 18.5227 113.657 18.5906C113.657 18.6669 113.646 18.7369 113.622 18.8007C113.598 18.8644 113.562 18.919 113.514 18.9643C113.466 19.01 113.405 19.0461 113.332 19.0727ZM113.621 17.6794C113.47 17.6252 113.287 17.5983 113.069 17.5983H112.458V16.3639H111.829V19.6086H113.078C113.265 19.6086 113.431 19.5839 113.576 19.5338C113.721 19.484 113.843 19.4136 113.943 19.3222C114.042 19.2312 114.118 19.1235 114.169 18.9993C114.22 18.8755 114.246 18.738 114.246 18.5876C114.246 18.4582 114.226 18.3337 114.185 18.2139C114.143 18.0941 114.077 17.9883 113.984 17.8972C113.892 17.8058 113.77 17.7336 113.621 17.6794ZM118.405 17.6205C118.405 17.5058 118.389 17.3993 118.357 17.3005C118.325 17.2021 118.278 17.1162 118.217 17.0432C118.155 16.9699 118.078 16.9128 117.987 16.8711C117.896 16.8298 117.79 16.8092 117.671 16.8092C117.431 16.8092 117.241 16.8803 117.104 17.0222C116.966 17.1645 116.879 17.3639 116.842 17.6205H118.405ZM116.823 18.0403C116.832 18.225 116.86 18.3846 116.906 18.5191C116.954 18.6536 117.017 18.7657 117.096 18.8545C117.175 18.9437 117.27 19.0101 117.38 19.0536C117.49 19.097 117.613 19.1188 117.748 19.1188C117.878 19.1188 117.99 19.1033 118.084 19.0724C118.179 19.0418 118.261 19.0078 118.331 18.971C118.401 18.9338 118.46 18.8998 118.51 18.8693C118.559 18.8383 118.604 18.8228 118.645 18.8228C118.699 18.8228 118.74 18.8442 118.768 18.8866L118.957 19.138C118.878 19.2331 118.79 19.3138 118.691 19.3794C118.593 19.4454 118.488 19.4988 118.377 19.5401C118.266 19.5817 118.152 19.6112 118.035 19.6293C117.918 19.6474 117.804 19.6562 117.693 19.6562C117.475 19.6562 117.273 19.6186 117.087 19.5434C116.901 19.4682 116.74 19.3573 116.603 19.2109C116.466 19.0646 116.36 18.8833 116.282 18.6669C116.205 18.4505 116.167 18.2017 116.167 17.9198C116.167 17.6946 116.201 17.4848 116.27 17.2898C116.339 17.0945 116.438 16.9249 116.566 16.7808C116.695 16.6363 116.851 16.5224 117.035 16.4388C117.219 16.3551 117.427 16.3131 117.659 16.3131C117.852 16.3131 118.031 16.3455 118.195 16.41C118.36 16.4749 118.501 16.5696 118.621 16.6946C118.74 16.8199 118.833 16.9732 118.9 17.1546C118.966 17.3359 119 17.542 119 17.7731C119 17.8792 118.989 17.9504 118.966 17.9865C118.943 18.0222 118.902 18.0403 118.843 18.0403H116.823ZM68.9666 26.3664C68.8567 26.3166 68.7554 26.2304 68.6631 26.1073V24.6023C68.7676 24.4626 68.8814 24.355 69.0038 24.2798C69.1259 24.2046 69.2712 24.1666 69.4398 24.1666C69.5507 24.1666 69.6506 24.1873 69.739 24.2271C69.8271 24.2676 69.9022 24.3321 69.9638 24.4213C70.0257 24.5102 70.0726 24.6255 70.1059 24.7663C70.1388 24.9075 70.1549 25.0778 70.1549 25.2772C70.1549 25.6628 70.0826 25.9536 69.9377 26.1486C69.793 26.3439 69.5908 26.4412 69.332 26.4412C69.1985 26.4412 69.0765 26.4165 68.9666 26.3664ZM69.0775 23.7627C68.91 23.8603 68.7604 23.9886 68.6291 24.1478L68.5736 23.8073C68.5489 23.7203 68.4916 23.6768 68.4011 23.6768H68.0002V28H68.6631V26.6226C68.7676 26.7306 68.8843 26.8153 69.0131 26.8769C69.1413 26.9385 69.298 26.9694 69.4831 26.9694C69.6925 26.9694 69.8807 26.9263 70.0472 26.8404C70.2136 26.7545 70.3554 26.6358 70.4724 26.484C70.5898 26.3325 70.6796 26.1534 70.7423 25.9466C70.8049 25.7398 70.8364 25.5168 70.8364 25.2772C70.8364 25.0096 70.8081 24.7726 70.7516 24.5662C70.695 24.359 70.6152 24.1858 70.5125 24.0461C70.4098 23.906 70.2866 23.7995 70.1427 23.7262C69.9989 23.6528 69.8385 23.6167 69.6617 23.6167C69.4398 23.6167 69.2451 23.6653 69.0775 23.7627ZM73.5399 24.9335C73.5399 24.8188 73.5241 24.7123 73.4919 24.6135C73.46 24.5151 73.4135 24.4292 73.3519 24.3562C73.29 24.2829 73.2134 24.2258 73.1221 24.1841C73.0305 24.1428 72.9253 24.1222 72.8061 24.1222C72.5656 24.1222 72.3766 24.1933 72.2388 24.3352C72.101 24.4775 72.014 24.6769 71.9768 24.9335H73.5399ZM71.9585 25.3533C71.9664 25.5379 71.9943 25.6975 72.0416 25.8321C72.0888 25.9666 72.1522 26.0787 72.2313 26.1675C72.3104 26.2567 72.4049 26.323 72.5147 26.3665C72.6246 26.41 72.7478 26.4318 72.8834 26.4318C73.0126 26.4318 73.1247 26.4163 73.2191 26.3853C73.3136 26.3547 73.396 26.3208 73.4658 26.2836C73.5356 26.2468 73.5953 26.2128 73.6444 26.1819C73.6941 26.1513 73.7392 26.1358 73.78 26.1358C73.8337 26.1358 73.8749 26.1572 73.9035 26.1996L74.0918 26.451C74.0134 26.546 73.925 26.6268 73.8266 26.6924C73.7278 26.7584 73.6229 26.8118 73.5119 26.8531C73.401 26.8947 73.2872 26.9242 73.1698 26.9423C73.0527 26.9603 72.9385 26.9692 72.8276 26.9692C72.61 26.9692 72.4077 26.9316 72.222 26.8564C72.0358 26.7812 71.8748 26.6703 71.738 26.5239C71.6013 26.3776 71.4946 26.1963 71.4173 25.9799C71.34 25.7635 71.3017 25.5147 71.3017 25.2324C71.3017 25.0075 71.3361 24.7978 71.4052 24.6025C71.4739 24.4075 71.5723 24.2379 71.7012 24.0938C71.8293 23.9493 71.9857 23.8354 72.1693 23.7517C72.3533 23.6677 72.5616 23.6261 72.7939 23.6261C72.9869 23.6261 73.1658 23.6585 73.3305 23.723C73.4948 23.7879 73.6365 23.8826 73.7557 24.0076C73.8749 24.1329 73.9676 24.2862 74.0345 24.4672C74.1011 24.6489 74.1347 24.8549 74.1347 25.0861C74.1347 25.1922 74.1236 25.2633 74.1007 25.2991C74.0782 25.3352 74.037 25.3533 73.9776 25.3533H71.9585ZM79.0423 26.9216V23.6768H78.3826V26.4063H77.2297V23.6768H76.5669V26.4063H75.414V23.6768H74.7511V26.9216H79.0423ZM81.9154 24.9335C81.9154 24.8188 81.8996 24.7123 81.8674 24.6135C81.8355 24.5151 81.789 24.4292 81.7275 24.3562C81.6655 24.2829 81.5889 24.2258 81.4977 24.1841C81.406 24.1428 81.3008 24.1222 81.1816 24.1222C80.9411 24.1222 80.7521 24.1933 80.6143 24.3352C80.4765 24.4775 80.3895 24.6769 80.3523 24.9335H81.9154ZM80.334 25.3533C80.3419 25.5379 80.3698 25.6975 80.4171 25.8321C80.4643 25.9666 80.5277 26.0787 80.6068 26.1675C80.6859 26.2567 80.7804 26.323 80.8903 26.3665C81.0001 26.41 81.1233 26.4318 81.2589 26.4318C81.3881 26.4318 81.5002 26.4163 81.5947 26.3853C81.6892 26.3547 81.7715 26.3208 81.8413 26.2836C81.9111 26.2468 81.9708 26.2128 82.0199 26.1819C82.0696 26.1513 82.1147 26.1358 82.1555 26.1358C82.2092 26.1358 82.2504 26.1572 82.279 26.1996L82.4673 26.451C82.3889 26.546 82.3005 26.6268 82.2021 26.6924C82.1033 26.7584 81.9984 26.8118 81.8874 26.8531C81.7765 26.8947 81.6627 26.9242 81.5453 26.9423C81.4282 26.9603 81.314 26.9692 81.2031 26.9692C80.9855 26.9692 80.7832 26.9316 80.5975 26.8564C80.4113 26.7812 80.2503 26.6703 80.1135 26.5239C79.9768 26.3776 79.8702 26.1963 79.7928 25.9799C79.7155 25.7635 79.6772 25.5147 79.6772 25.2324C79.6772 25.0075 79.7116 24.7978 79.7807 24.6025C79.8494 24.4075 79.9478 24.2379 80.0767 24.0938C80.2048 23.9493 80.3612 23.8354 80.5449 23.7517C80.7288 23.6677 80.9371 23.6261 81.1694 23.6261C81.3624 23.6261 81.5413 23.6585 81.706 23.723C81.8703 23.7879 82.012 23.8826 82.1312 24.0076C82.2504 24.1329 82.3431 24.2862 82.41 24.4672C82.4766 24.6489 82.5102 24.8549 82.5102 25.0861C82.5102 25.1922 82.4991 25.2633 82.4762 25.2991C82.4537 25.3352 82.4125 25.3533 82.3531 25.3533H80.334ZM85.8087 26.9216V23.6768H85.149V24.9334H83.7896V23.6768H83.1267V26.9216H83.7896V25.4487H85.149V26.9216H85.8087ZM89.3847 23.6768V26.9216H88.7218V24.8888C88.7218 24.8442 88.724 24.7955 88.7283 24.7428C88.7322 24.6897 88.7383 24.6356 88.7465 24.5803C88.7261 24.6271 88.7061 24.6698 88.6864 24.7093C88.6671 24.7483 88.6459 24.7837 88.6234 24.8158L87.2575 26.7531C87.2328 26.7933 87.1999 26.832 87.1591 26.8692C87.1179 26.9061 87.0718 26.9249 87.0202 26.9249H86.6193V23.6768H87.2822V25.7096C87.2822 25.7542 87.2797 25.804 87.2744 25.8589C87.2693 25.9142 87.2625 25.9695 87.2543 26.0244C87.2958 25.9271 87.3377 25.8464 87.3807 25.7826L88.7465 23.8486C88.7712 23.8062 88.8041 23.7672 88.8453 23.731C88.8861 23.6949 88.9326 23.6768 88.9838 23.6768H89.3847ZM91.8383 24.1287V25.1593H91.4224C91.2352 25.1593 91.0866 25.1136 90.9767 25.0222C90.8669 24.9312 90.8117 24.8062 90.8117 24.647C90.8117 24.5876 90.821 24.5272 90.8397 24.466C90.8583 24.4045 90.889 24.3488 90.932 24.299C90.9753 24.2489 91.0329 24.208 91.1049 24.1763C91.1768 24.1446 91.2659 24.1287 91.373 24.1287H91.8383ZM92.4704 26.9216V23.6768H91.3544C91.1385 23.6768 90.9542 23.7038 90.801 23.7579C90.6478 23.8121 90.5232 23.8833 90.4266 23.971C90.33 24.0591 90.2595 24.1593 90.2154 24.2718C90.171 24.3842 90.1492 24.4988 90.1492 24.6153C90.1492 24.7045 90.1639 24.7941 90.1936 24.884C90.2237 24.9743 90.2713 25.0576 90.3371 25.1339C90.403 25.2102 90.4892 25.2769 90.5963 25.334C90.7029 25.3915 90.8325 25.4317 90.9846 25.4553C90.8447 25.5058 90.7359 25.6016 90.6578 25.7413L89.8099 26.9216H90.2663C90.3837 26.9216 90.4713 26.902 90.5297 26.863C90.5884 26.8235 90.6392 26.7638 90.6825 26.6831L91.2713 25.8147C91.2917 25.7808 91.3128 25.7502 91.3343 25.7222C91.3558 25.6949 91.3808 25.6713 91.4084 25.6521C91.436 25.6333 91.4696 25.6186 91.5086 25.6079C91.5476 25.5972 91.597 25.5921 91.6564 25.5921H91.8383V26.9216H92.4704Z" fill="#BDBDBD"/>
<path fill-rule="evenodd" clip-rule="evenodd" d="M44.7201 7.58891C44.7337 7.39629 44.6712 7.21046 44.5447 7.06502C44.4182 6.91922 44.2424 6.83166 44.0502 6.81844C44.0327 6.81701 44.0155 6.81665 43.9988 6.81665C43.8255 6.81665 43.6575 6.87955 43.5264 6.99355C43.3806 7.12041 43.2931 7.29623 43.2799 7.48849C43.2663 7.68039 43.3288 7.86658 43.4553 8.01238C43.5821 8.15783 43.7576 8.24574 43.9498 8.25896C44.1399 8.27325 44.3271 8.21107 44.4736 8.08385C44.619 7.95699 44.7066 7.78153 44.7201 7.58891ZM53.0076 23.2381C53.1991 23.252 53.3849 23.1902 53.5318 23.0626C53.6772 22.9361 53.7647 22.7603 53.778 22.568C53.7915 22.3754 53.7294 22.1892 53.6029 22.0438C53.476 21.8983 53.3006 21.8108 53.1084 21.7976C53.0909 21.7961 53.0737 21.7954 53.0569 21.7954C52.8836 21.7954 52.7157 21.8587 52.5842 21.9727C52.4388 22.0992 52.3513 22.275 52.3377 22.4673C52.3245 22.6595 52.3866 22.8453 52.5135 22.9915C52.6403 23.137 52.8158 23.2245 53.0076 23.2381ZM61 17.0032C61 7.61249 53.3889 0 43.9998 0C34.6111 0 27 7.61249 27 17.0032C27 25.1546 32.7353 31.9648 40.3897 33.6208V23.3464C40.3897 23.2945 40.369 23.2438 40.3322 23.2074L38.585 21.4591C38.5478 21.422 38.4982 21.4016 38.4456 21.4016H36.6574C36.5756 21.4016 36.5037 21.4516 36.4741 21.5292C36.379 21.779 36.2218 22.0041 36.0185 22.1807C35.7202 22.4405 35.3386 22.5834 34.9441 22.5834H34.9281C34.4882 22.5795 34.0577 22.3869 33.7483 22.0545C33.4392 21.7232 33.2773 21.2815 33.3041 20.8427C33.3309 20.3996 33.5303 19.9947 33.8655 19.7034C34.1952 19.4165 34.6197 19.2746 35.0563 19.305C35.4933 19.3357 35.8928 19.5344 36.1804 19.8653C36.3069 20.0108 36.4055 20.1759 36.4741 20.356C36.5034 20.4328 36.5752 20.4825 36.657 20.4825H38.7719C38.8594 20.4825 38.9419 20.5168 39.0037 20.5786L41.2133 22.7885C41.2751 22.8503 41.3094 22.9329 41.3094 23.0205L41.309 33.7934C42.0383 33.9096 42.7832 33.98 43.5403 34V20.5772C43.5403 20.5254 43.5196 20.4746 43.4828 20.4382L38.5857 15.5402C38.5493 15.5034 38.4982 15.4823 38.4464 15.4823H35.0874C35.0056 15.4823 34.9338 15.5323 34.9045 15.6099C34.8091 15.8597 34.6515 16.0848 34.4486 16.2613C34.1502 16.5211 33.7686 16.6641 33.3742 16.6641H33.3599C32.9183 16.6602 32.4881 16.4675 32.1783 16.1352C31.8692 15.8039 31.7077 15.3622 31.7342 14.9234C31.761 14.4803 31.9604 14.0754 32.2955 13.7841C32.6253 13.4968 33.049 13.3542 33.4864 13.3853C33.9237 13.416 34.3228 13.6151 34.6104 13.946C34.7369 14.0914 34.8355 14.2562 34.9041 14.4367C34.9334 14.5135 35.0052 14.5632 35.0871 14.5632H37.83C37.9386 14.5632 38.0269 14.4749 38.0269 14.3663V12.4047C38.0269 12.3232 37.9762 12.251 37.8983 12.221C37.2205 11.9598 36.7989 11.2987 36.8496 10.5754C36.88 10.1383 37.079 9.73915 37.4098 9.45112C37.74 9.16416 38.1641 9.02228 38.6007 9.05266C39.038 9.08339 39.4371 9.28208 39.7248 9.613C40.012 9.94392 40.1539 10.3667 40.1235 10.8044C40.0928 11.2415 39.8938 11.6407 39.5629 11.9283C39.4171 12.0556 39.2521 12.1542 39.0723 12.2228C38.9955 12.2521 38.9459 12.3239 38.9459 12.4058V14.5188C38.9459 14.5707 38.9669 14.6214 39.0034 14.6582L43.4285 19.0838C43.4571 19.1127 43.4903 19.102 43.5 19.0981C43.5096 19.0941 43.5403 19.0781 43.5403 19.0373V9.2535C43.5403 9.17202 43.49 9.09983 43.4117 9.06981C42.7339 8.80894 42.3127 8.14746 42.363 7.42452C42.3938 6.98711 42.5924 6.58794 42.9233 6.30027C43.2534 6.01295 43.6779 5.87108 44.1142 5.90145C44.5515 5.93219 44.9509 6.13088 45.2382 6.46179C45.5258 6.79271 45.6673 7.21582 45.637 7.65323C45.6062 8.09029 45.4072 8.48981 45.0767 8.77713C44.9309 8.904 44.7659 9.00334 44.5861 9.0716C44.5093 9.1009 44.4597 9.17273 44.4597 9.25457V21.402C44.4597 21.4427 44.4904 21.4588 44.5 21.4627C44.5093 21.4663 44.5426 21.4774 44.5715 21.4484L48.9963 17.0225C49.0331 16.9861 49.0541 16.9353 49.0541 16.8835V13.1923C49.0541 13.1108 49.0034 13.0387 48.9255 13.0086C48.2477 12.7478 47.8261 12.0866 47.8765 11.3634C47.9072 10.9259 48.1062 10.5268 48.4367 10.2391C48.7672 9.95178 49.1917 9.80919 49.6276 9.84028C50.0649 9.87101 50.4644 10.0701 50.7517 10.401C51.0393 10.7315 51.1811 11.1547 51.1504 11.5921C51.12 12.0295 50.9207 12.4286 50.5902 12.7163C50.4444 12.8432 50.2793 12.9422 50.0996 13.0104C50.0228 13.0401 49.9731 13.1119 49.9731 13.1934V16.7327C49.9731 16.8413 50.0614 16.9296 50.17 16.9296H52.9179C52.9998 16.9296 53.0716 16.8799 53.1012 16.8024C53.1959 16.5526 53.3535 16.3271 53.5564 16.1506C53.8866 15.8636 54.311 15.7224 54.7473 15.7517C55.185 15.7825 55.5841 15.9815 55.8714 16.3124C56.159 16.643 56.3005 17.0661 56.2701 17.5035C56.2397 17.9409 56.0407 18.3401 55.7099 18.6278C55.3819 18.913 54.9549 19.0577 54.519 19.0266C53.8873 18.9823 53.3317 18.5702 53.103 17.9774C53.0727 17.8995 53.0005 17.8487 52.919 17.8487H49.5515C49.499 17.8487 49.4497 17.8691 49.4125 17.9066L44.5172 22.8028C44.4804 22.8393 44.4597 22.89 44.4597 22.9418V34C45.2168 33.98 45.9617 33.9096 46.6913 33.7934L46.6917 24.5961C46.6917 24.5085 46.7256 24.426 46.7875 24.3638L48.997 22.1539C49.0591 22.092 49.1417 22.0577 49.2292 22.0577L51.483 22.0581C51.5706 21.7558 51.7421 21.4874 51.9815 21.2794C52.3116 20.9921 52.7361 20.8498 53.1723 20.8802C53.6093 20.911 54.0088 21.11 54.2964 21.4409C54.5837 21.7718 54.7252 22.1946 54.6948 22.632C54.6644 23.0694 54.4654 23.4689 54.1345 23.7563C53.8069 24.0414 53.3803 24.1847 52.9437 24.1551C52.257 24.1072 51.6763 23.6362 51.4841 22.9776H49.5551C49.5022 22.9776 49.4532 22.9979 49.4157 23.0351L47.6678 24.7833C47.6307 24.8208 47.6099 24.8702 47.6099 24.9227V33.6208C55.2647 31.9648 61 25.1546 61 17.0032ZM34.992 20.222C34.9749 20.2205 34.9577 20.2198 34.9409 20.2198C34.7676 20.2198 34.5997 20.2827 34.4682 20.3971C34.3228 20.5239 34.2353 20.6998 34.222 20.892C34.2085 21.0839 34.2706 21.2701 34.3975 21.4155C34.524 21.5613 34.6997 21.6493 34.8916 21.6625C35.0824 21.6761 35.2689 21.6146 35.4154 21.4874C35.5612 21.3605 35.6487 21.1847 35.6619 20.9924C35.6759 20.7998 35.6134 20.614 35.4869 20.4685C35.36 20.3227 35.1846 20.2352 34.992 20.222ZM54.583 18.1092C54.7745 18.1243 54.9603 18.0617 55.1071 17.9341C55.2525 17.8076 55.3401 17.6318 55.3533 17.4392C55.3669 17.2469 55.3047 17.0608 55.1782 16.9153C55.0514 16.7699 54.8759 16.6823 54.6834 16.6691C54.6658 16.6677 54.6491 16.6669 54.6323 16.6669C54.4586 16.6669 54.291 16.7302 54.1596 16.8442C54.0141 16.9707 53.9266 17.1465 53.913 17.3388C53.8998 17.531 53.962 17.7169 54.0888 17.863C54.2157 18.0085 54.3911 18.096 54.583 18.1092ZM39.2063 10.7401C39.2199 10.5475 39.1577 10.3617 39.0313 10.2162C38.9048 10.0704 38.729 9.98287 38.5368 9.96965C38.5192 9.96822 38.5021 9.96786 38.4853 9.96786C38.3117 9.96786 38.1441 10.0308 38.0126 10.1448C37.8672 10.2716 37.7796 10.4474 37.7664 10.6397C37.7528 10.8316 37.815 11.0178 37.9419 11.1636C38.0687 11.309 38.2441 11.3969 38.4364 11.4102C38.6264 11.4241 38.8137 11.3623 38.9602 11.2351C39.1056 11.1082 39.1931 10.9324 39.2063 10.7401ZM49.9874 12.0227C50.1328 11.8962 50.2204 11.7204 50.2336 11.5277C50.2472 11.3355 50.185 11.1493 50.0581 11.0038C49.9317 10.8584 49.7562 10.7708 49.5636 10.7573C49.5465 10.7562 49.5293 10.7555 49.5126 10.7555C49.3389 10.7555 49.1713 10.8184 49.0399 10.9327C48.8944 11.0592 48.8069 11.2351 48.7933 11.4273C48.7801 11.6196 48.8423 11.8054 48.9691 11.9512C49.0959 12.097 49.2714 12.1846 49.4632 12.1978C49.6551 12.2121 49.8406 12.1499 49.9874 12.0227ZM33.9169 14.5489C34.0434 14.6943 34.1056 14.8805 34.092 15.0728C34.0788 15.2654 33.9912 15.4412 33.8458 15.5677C33.6993 15.6953 33.5124 15.7571 33.3217 15.7432C33.1298 15.7296 32.9543 15.642 32.8275 15.4962C32.7007 15.3504 32.6385 15.1646 32.6521 14.9723C32.6653 14.7801 32.7528 14.6043 32.8983 14.4777C33.0297 14.3638 33.1973 14.3005 33.371 14.3005C33.3878 14.3005 33.4049 14.3012 33.4224 14.3026C33.6146 14.3159 33.7901 14.4034 33.9169 14.5489Z" fill="#BDBDBD"/>
</svg>
