<svg width="110" height="42" viewBox="0 0 110 42" fill="none" xmlns="http://www.w3.org/2000/svg">
<path d="M62.2353 7V16.8671H60.3729V11.1919C60.3729 11.0609 60.376 10.9189 60.3821 10.7658C60.3821 10.6122 60.4004 10.4553 60.4171 10.2984L57.9985 15.3707C57.9311 15.5196 57.8252 15.6442 57.6937 15.7291C57.5619 15.8119 57.4117 15.8541 57.2594 15.8513H56.9729C56.8205 15.8541 56.6704 15.8119 56.5385 15.7291C56.407 15.6442 56.3011 15.5196 56.2337 15.3707L53.8151 10.2852C53.8273 10.447 53.838 10.6056 53.8471 10.7609C53.8547 10.9178 53.8593 11.0615 53.8593 11.1919V16.8671H52V7H53.6078C53.6993 7 53.7801 7 53.8486 7C53.9117 7.00349 53.9739 7.01741 54.033 7.04129C54.0901 7.06383 54.142 7.09931 54.1854 7.14535C54.2372 7.20458 54.2803 7.27196 54.3135 7.3452L56.6559 12.3564C56.7382 12.5215 56.8189 12.7065 56.8951 12.8915C56.9713 13.0765 57.0475 13.2664 57.1176 13.4597C57.1878 13.2615 57.27 13.0682 57.3402 12.8783C57.4103 12.6884 57.4926 12.5083 57.587 12.3366L59.9234 7.35181C59.9565 7.27857 59.9996 7.21118 60.0514 7.15195C60.0948 7.10591 60.1467 7.07044 60.2038 7.0479C60.2629 7.02402 60.3251 7.01009 60.3882 7.00661C60.4568 7.00661 60.5406 7.00661 60.629 7.00661L62.2353 7Z" fill="white"/>
<path fill-rule="evenodd" clip-rule="evenodd" d="M67.6754 10.6761C67.264 10.5236 66.8282 10.4482 66.3897 10.4537C65.9488 10.4481 65.5106 10.5235 65.0967 10.6761C64.721 10.8151 64.3788 11.0319 64.0923 11.3126C63.8056 11.5961 63.5833 11.9385 63.4407 12.3163C63.2819 12.7414 63.2038 13.1925 63.2103 13.6464C63.2038 14.1036 63.2819 14.5581 63.4407 14.9867C63.5828 15.3678 63.805 15.7136 64.0923 16.0007C64.3786 16.2827 64.7208 16.5011 65.0967 16.6416C65.9302 16.9421 66.8419 16.9421 67.6754 16.6416C68.0482 16.501 68.3871 16.2825 68.6696 16.0007C68.9536 15.7122 69.1737 15.3666 69.3154 14.9867C69.4741 14.5581 69.5522 14.1036 69.5457 13.6464C69.5523 13.1925 69.4741 12.7414 69.3154 12.3163C69.1732 11.9397 68.9531 11.5976 68.6696 11.3126C68.3868 11.0321 68.048 10.8152 67.6754 10.6761ZM67.3314 15.035C67.1312 15.3364 66.8173 15.4872 66.3897 15.4872C65.9524 15.4872 65.6302 15.3379 65.4276 15.035C65.2249 14.7321 65.1229 14.2741 65.1229 13.6581C65.1229 13.0421 65.2235 12.5885 65.4276 12.2841C65.6317 11.9798 65.9626 11.8335 66.3897 11.8335C66.8168 11.8335 67.1302 11.9842 67.3314 12.2841C67.5326 12.5841 67.6331 13.0421 67.6331 13.6581C67.6331 14.2741 67.5326 14.7321 67.3314 15.035Z" fill="white"/>
<path fill-rule="evenodd" clip-rule="evenodd" d="M72.8499 15.1241C72.5945 14.89 72.4369 14.5139 72.377 13.993H75.9509C76.0207 13.9955 76.0904 13.9856 76.1567 13.9637C76.2109 13.944 76.2565 13.9057 76.2851 13.8555C76.3213 13.791 76.3441 13.7198 76.3523 13.6462C76.3653 13.5326 76.3712 13.4182 76.3698 13.3038C76.3766 12.8934 76.3063 12.4854 76.1625 12.101C76.0367 11.7648 75.8412 11.4591 75.589 11.204C75.3405 10.9572 75.0419 10.7671 74.7134 10.6465C73.9318 10.3719 73.0774 10.3907 72.3085 10.6992C71.9458 10.8541 71.6181 11.0811 71.3453 11.3664C71.0788 11.648 70.8713 11.9804 70.7353 12.3439C70.5924 12.7215 70.5201 13.1223 70.5222 13.5262C70.5125 14.0215 70.5967 14.5141 70.7703 14.9778C70.9204 15.3694 71.1511 15.7249 71.4475 16.0211C71.7317 16.3008 72.0719 16.5168 72.4456 16.6547C72.8378 16.7983 73.2525 16.8702 73.67 16.8669C73.893 16.8661 74.1157 16.8514 74.3369 16.823C74.575 16.7912 74.8096 16.7368 75.0374 16.6605C75.2766 16.5797 75.5054 16.4707 75.7189 16.3357C75.9508 16.1893 76.1594 16.0088 76.3377 15.8001L75.7992 15.1329C75.7227 15.0253 75.5966 14.9645 75.465 14.9719C75.3533 14.9714 75.2431 14.998 75.1439 15.0495L74.8097 15.2236C74.6758 15.2923 74.5367 15.3505 74.3938 15.3977C74.2137 15.4527 74.0261 15.4788 73.8378 15.4753C73.4757 15.4904 73.1217 15.3646 72.8499 15.1241ZM74.6551 12.4815C74.6931 12.6222 74.7122 12.7673 74.712 12.9131L72.4019 12.919C72.4392 12.5922 72.5775 12.2852 72.7973 12.041C73.0194 11.8304 73.3181 11.7208 73.6233 11.7381C73.798 11.7329 73.9716 11.7675 74.1312 11.8391C74.2629 11.9014 74.3786 11.9929 74.4697 12.1069C74.556 12.2179 74.6191 12.3454 74.6551 12.4815Z" fill="white"/>
<path d="M52.2947 23.3235C52.6507 22.9854 53.06 22.7299 53.5002 22.571C54.0006 22.3823 54.5243 22.2888 55.0508 22.2943C55.483 22.2884 55.9138 22.3521 56.3307 22.4837C56.6801 22.5922 57.0102 22.7708 57.306 23.0112C57.5632 23.2228 57.7749 23.4996 57.9249 23.8203C58.0693 24.1433 58.143 24.5022 58.1396 24.8657C58.1427 25.2837 58.059 25.6965 57.8954 26.0696C57.7205 26.4539 57.4542 26.7728 57.1278 26.9888C57.3008 27.0927 57.4644 27.2163 57.6161 27.3577C57.7609 27.4901 57.8897 27.6441 57.9992 27.8157C58.1041 27.9797 58.1874 28.1607 58.2462 28.3529C58.307 28.5497 58.3374 28.7573 58.336 28.9662C58.3393 29.3959 58.2657 29.8217 58.1199 30.2171C57.9767 30.6034 57.7616 30.9486 57.4898 31.2285C57.1926 31.5305 56.8463 31.7615 56.471 31.9081C56.0281 32.0829 55.5624 32.1683 55.0943 32.1606C54.803 32.1601 54.5122 32.1293 54.2257 32.0683C53.9394 32.0067 53.6579 31.9191 53.3837 31.8062C53.121 31.6967 52.8666 31.5625 52.6231 31.4048C52.3994 31.2593 52.1905 31.0856 52 30.887L52.5754 29.8384C52.6231 29.761 52.6849 29.6964 52.7564 29.6491C52.8303 29.5988 52.9147 29.5725 53.0006 29.573C53.1307 29.5767 53.2576 29.6203 53.3682 29.6993C53.4959 29.7834 53.6405 29.8756 53.8033 29.9776C53.9867 30.0894 54.1783 30.1825 54.3758 30.2559C54.8155 30.4022 55.2796 30.4217 55.7272 30.3126C55.8829 30.2728 56.0293 30.195 56.1567 30.0844C56.2749 29.9759 56.3671 29.8344 56.4247 29.6734C56.4898 29.4761 56.5208 29.2661 56.5159 29.0552C56.5192 28.8796 56.4824 28.706 56.4093 28.5519C56.337 28.4029 56.2344 28.2763 56.1104 28.183C55.9695 28.0782 55.8137 28.0031 55.6501 27.9613C55.4568 27.9107 55.2588 27.8884 55.0607 27.895H53.8313V26.157H54.8951C55.3778 26.157 55.7366 26.0626 55.9714 25.8738C56.2034 25.6893 56.3361 25.3796 56.3223 25.055C56.329 24.7652 56.2073 24.4914 55.9995 24.3284C55.7848 24.1488 55.4634 24.0598 55.0326 24.0598C54.8123 24.0558 54.5925 24.088 54.38 24.1553C54.2104 24.213 54.0448 24.2855 53.8847 24.3721C53.7443 24.4514 53.6152 24.5226 53.5058 24.5873C53.4132 24.6463 53.3098 24.679 53.2041 24.6828C53.1169 24.6874 53.0309 24.6596 52.9585 24.6035C52.8859 24.5379 52.8245 24.4572 52.7774 24.3656L52.2947 23.3235Z" fill="white"/>
<path fill-rule="evenodd" clip-rule="evenodd" d="M66.6208 34.5212V31.2955H65.4982V25.7473H61.1683C61.1304 26.6228 61.0793 27.3704 61.015 27.9902C60.9653 28.5119 60.8914 29.0301 60.7936 29.5424C60.732 29.8803 60.6402 30.2098 60.5197 30.5252C60.4428 30.7282 60.3345 30.9128 60.2004 31.0698C60.0991 31.1835 59.9745 31.2647 59.8385 31.3055C59.7118 31.3389 59.5823 31.3556 59.4525 31.3553H59.3105V35.1205H60.4572C60.5331 35.1224 60.6084 35.106 60.6786 35.0724C60.7374 35.0432 60.7898 34.999 60.8319 34.9429C60.8723 34.8891 60.9032 34.8265 60.9227 34.7586C60.9422 34.6907 60.9518 34.6194 60.9511 34.5478V32.8063H64.9788V35.1205H66.1141C66.2512 35.1273 66.3843 35.0661 66.4808 34.952C66.5773 34.8379 66.6281 34.6815 66.6208 34.5212ZM63.764 27.3062V31.3553H61.8665C61.9649 31.136 62.0494 30.9085 62.1191 30.6747C62.207 30.3851 62.28 30.0896 62.3377 29.7898C62.4044 29.4594 62.4626 29.0875 62.5151 28.6742C62.5676 28.2608 62.6116 27.8042 62.6471 27.3062H63.764Z" fill="white"/>
<path fill-rule="evenodd" clip-rule="evenodd" d="M72.0622 25.97C71.6507 25.8177 71.215 25.7423 70.7765 25.7476C70.3351 25.7422 69.8964 25.8175 69.482 25.97C69.107 26.1094 68.7653 26.3262 68.4791 26.6065C68.1924 26.89 67.9701 27.2324 67.8275 27.6102C67.668 28.035 67.5899 28.4863 67.5972 28.9402C67.5898 29.3975 67.6679 29.8521 67.8275 30.2804C67.9696 30.6615 68.1919 31.0073 68.4791 31.2944C68.7651 31.5761 69.1067 31.7944 69.482 31.9353C69.8959 32.0901 70.3348 32.1665 70.7765 32.1606C71.2153 32.1664 71.6513 32.09 72.0622 31.9353C72.435 31.7946 72.7738 31.5762 73.0563 31.2944C73.3403 31.0059 73.5604 30.6603 73.7021 30.2804C73.8609 29.8519 73.939 29.3974 73.9324 28.9402C73.939 28.4863 73.8609 28.0352 73.7021 27.6102C73.5599 27.2336 73.3398 26.8915 73.0563 26.6065C72.7736 26.3261 72.4347 26.1091 72.0622 25.97ZM71.7181 30.3287C71.518 30.6301 71.2041 30.7808 70.7765 30.7808C70.3377 30.7808 70.017 30.6316 69.8144 30.3287C69.6117 30.0259 69.5097 29.5679 69.5097 28.9519C69.5097 28.3359 69.6117 27.8823 69.8144 27.578C70.017 27.2737 70.3493 27.1273 70.7765 27.1273C71.2036 27.1273 71.517 27.278 71.7181 27.578C71.9193 27.8779 72.0199 28.3359 72.0199 28.9519C72.0199 29.5679 71.9193 30.0259 71.7181 30.3287Z" fill="white"/>
<path fill-rule="evenodd" clip-rule="evenodd" d="M77.656 26.0286C77.3254 26.2157 77.0264 26.4592 76.7709 26.7493L76.6227 26.2364C76.5594 26.0131 76.3571 25.8667 76.1372 25.8851H74.9072V35.1211H76.8911V32.4294C77.0823 32.6038 77.2982 32.7452 77.5311 32.8483C77.809 32.9599 78.1049 33.0126 78.4021 33.0034C78.8024 33.0088 79.1983 32.9138 79.5571 32.7263C79.9051 32.5412 80.2108 32.2784 80.4531 31.9561C80.7115 31.6085 80.9087 31.2146 81.0353 30.7933C81.1777 30.321 81.2478 29.8277 81.2429 29.3321C81.2493 28.8221 81.1883 28.3136 81.0618 27.8213C80.9581 27.4176 80.788 27.0363 80.5592 26.6949C80.36 26.4018 80.0993 26.1613 79.7975 25.9923C79.5013 25.829 79.1717 25.7452 78.8376 25.7482C78.4278 25.7369 78.0218 25.8333 77.656 26.0286ZM77.3781 31.3541C77.1919 31.2729 77.0254 31.1483 76.8911 30.9896V28.0127C77.041 27.8149 77.2235 27.6473 77.4296 27.5179C77.651 27.3985 77.8978 27.3417 78.1461 27.3529C78.2947 27.3505 78.4417 27.3849 78.5753 27.4536C78.7117 27.5294 78.8257 27.6436 78.9047 27.7834C79.0085 27.973 79.0808 28.1799 79.1185 28.3953C79.1745 28.7028 79.2002 29.0157 79.195 29.3288C79.201 29.6615 79.1691 29.9937 79.0998 30.3184C79.0504 30.5536 78.9605 30.7772 78.8344 30.9781C78.7337 31.1356 78.596 31.2629 78.4349 31.3475C78.2763 31.4243 78.1036 31.4632 77.9291 31.4613C77.7407 31.4626 77.5538 31.4262 77.3781 31.3541Z" fill="white"/>
<path fill-rule="evenodd" clip-rule="evenodd" d="M87.1715 25.97C86.7601 25.8177 86.3243 25.7423 85.8858 25.7476C85.4445 25.7422 85.0058 25.8175 84.5914 25.97C84.2164 26.1094 83.8747 26.3262 83.5885 26.6065C83.3017 26.89 83.0795 27.2324 82.9369 27.6102C82.7774 28.035 82.6993 28.4863 82.7065 28.9402C82.6992 29.3975 82.7773 29.8521 82.9369 30.2804C83.079 30.6615 83.3012 31.0073 83.5885 31.2944C83.8745 31.5761 84.2161 31.7944 84.5914 31.9353C85.0053 32.0901 85.4442 32.1665 85.8858 32.1606C86.3246 32.1664 86.7607 32.09 87.1715 31.9353C87.5444 31.7946 87.8832 31.5762 88.1657 31.2944C88.4497 31.0059 88.6698 30.6603 88.8115 30.2804C88.9702 29.8519 89.0483 29.3974 89.0418 28.9402C89.0484 28.4863 88.9702 28.0352 88.8115 27.6102C88.6693 27.2336 88.4492 26.8915 88.1657 26.6065C87.883 26.3261 87.5441 26.1091 87.1715 25.97ZM86.8275 30.3287C86.6273 30.6301 86.3134 30.7808 85.8858 30.7808C85.4485 30.7808 85.1264 30.6316 84.9237 30.3287C84.7211 30.0259 84.6191 29.5679 84.6191 28.9519C84.6191 28.3359 84.7211 27.8823 84.9237 27.578C85.1264 27.2737 85.4587 27.1273 85.8858 27.1273C86.3129 27.1273 86.6264 27.278 86.8275 27.578C87.0287 27.8779 87.1293 28.3359 87.1293 28.9519C87.1293 29.5679 87.0287 30.0259 86.8275 30.3287Z" fill="white"/>
<path fill-rule="evenodd" clip-rule="evenodd" d="M92.9805 25.7479C93.3801 25.7422 93.779 25.7817 94.1678 25.8654C94.4647 25.9284 94.7467 26.0392 95.0003 26.1925C95.4168 26.4409 95.6633 26.8654 95.6531 27.3168C95.6522 27.4616 95.6326 27.6057 95.5948 27.7464C95.5551 27.8961 95.4869 28.0384 95.3933 28.1669C95.289 28.3098 95.1556 28.4336 95.0003 28.5316C94.8068 28.6528 94.5908 28.7416 94.3626 28.7939C94.5692 28.8371 94.7697 28.9013 94.9604 28.9853C95.1362 29.0624 95.2975 29.1641 95.4383 29.2867C95.5713 29.4064 95.6776 29.5481 95.7513 29.7042C95.8301 29.8755 95.8687 30.0598 95.8645 30.2453C95.8744 30.5508 95.7921 30.8531 95.6264 31.1195C95.4732 31.3593 95.2599 31.5632 95.0037 31.7148C94.7293 31.873 94.4268 31.9872 94.1095 32.0524C93.7729 32.125 93.4281 32.1614 93.0821 32.1609H90.0166V25.7479H92.9805ZM92.0248 26.9461V28.3613H92.9189C93.1532 28.3699 93.3816 28.2934 93.5533 28.1488C93.7181 28.0067 93.8078 27.8076 93.7998 27.6017C93.7998 27.5218 93.7857 27.4424 93.7582 27.3666C93.7303 27.2871 93.6811 27.2151 93.615 27.1571C93.5366 27.0901 93.4435 27.0388 93.3419 27.0063C93.2059 26.9639 93.0627 26.944 92.9189 26.9476L92.0248 26.9461ZM93.6899 30.7005C93.5162 30.8362 93.2913 30.9058 93.0621 30.8949L92.0248 30.8889V29.4932H93.0621C93.212 29.4887 93.3616 29.5065 93.5051 29.546C93.6059 29.5743 93.6966 29.6263 93.7681 29.6967C93.8293 29.7575 93.8718 29.8318 93.8914 29.9122C93.9122 29.9978 93.9228 30.0853 93.923 30.1729C93.9334 30.3711 93.8484 30.5635 93.6899 30.7005Z" fill="white"/>
<path fill-rule="evenodd" clip-rule="evenodd" d="M101.683 28.1819C101.27 28.0649 100.837 28.0099 100.404 28.0188L99.346 28.0113V25.7473H97.3281V32.1604H100.419C100.813 32.1666 101.205 32.1156 101.581 32.0095C101.899 31.9199 102.194 31.7748 102.449 31.5824C102.683 31.4 102.868 31.1725 102.99 30.9167C103.117 30.6481 103.181 30.3588 103.177 30.067C103.178 29.8008 103.126 29.5364 103.024 29.2867C102.923 29.0381 102.757 28.8146 102.541 28.6347C102.295 28.4302 102.002 28.2758 101.683 28.1819ZM101.051 30.627C100.879 30.7777 100.644 30.8552 100.404 30.8398L99.3544 30.8458V29.3365H100.404C100.535 29.334 100.666 29.354 100.789 29.3953C100.892 29.4296 100.986 29.4849 101.061 29.5568C101.132 29.6239 101.186 29.7037 101.219 29.7908C101.254 29.8795 101.272 29.9729 101.271 30.067C101.281 30.2722 101.202 30.4728 101.051 30.627Z" fill="white"/>
<path fill-rule="evenodd" clip-rule="evenodd" d="M106.481 30.4181C106.227 30.1839 106.068 29.8079 106.008 29.2869H109.581C109.651 29.2896 109.721 29.2797 109.788 29.2577C109.842 29.2375 109.887 29.1993 109.917 29.1494C109.953 29.085 109.975 29.0137 109.982 28.9402C109.995 28.8265 110.001 28.7121 110 28.5977C110.006 28.1875 109.936 27.7796 109.794 27.3949C109.668 27.0586 109.472 26.7529 109.219 26.498C108.971 26.2513 108.672 26.0612 108.344 25.9404C107.562 25.6659 106.707 25.6846 105.938 25.9931C105.21 26.301 104.641 26.8959 104.365 27.6378C104.222 28.0155 104.15 28.4163 104.152 28.8202C104.142 29.3156 104.227 29.8083 104.402 30.2717C104.551 30.6633 104.781 31.0188 105.077 31.315C105.362 31.595 105.703 31.8109 106.078 31.9486C106.47 32.0923 106.884 32.1641 107.301 32.1608C107.524 32.1601 107.746 32.1454 107.967 32.1169C108.205 32.0851 108.44 32.0307 108.668 31.9545C108.907 31.8742 109.136 31.7652 109.349 31.6296C109.581 31.4829 109.79 31.3024 109.969 31.0941L109.431 30.4268C109.354 30.3192 109.227 30.2585 109.095 30.2659C108.984 30.2653 108.874 30.2919 108.776 30.3434C108.752 30.3557 108.727 30.3682 108.702 30.381C108.621 30.4231 108.533 30.4682 108.44 30.5176C108.306 30.5868 108.167 30.645 108.024 30.6917C107.844 30.7468 107.657 30.773 107.468 30.7692C107.106 30.784 106.753 30.6582 106.481 30.4181ZM108.285 27.7754C108.323 27.9161 108.343 28.0613 108.342 28.2071L106.033 28.2129C106.07 27.8864 106.208 27.5796 106.427 27.3349C106.649 27.1245 106.947 27.0149 107.252 27.032C107.428 27.0269 107.602 27.0615 107.762 27.133C107.893 27.1953 108.008 27.2869 108.099 27.4008C108.185 27.5118 108.249 27.6392 108.285 27.7754Z" fill="white"/>
<rect width="42" height="42" rx="9" fill="white"/>
<path fill-rule="evenodd" clip-rule="evenodd" d="M19.2501 9.24442C19.8477 9.78194 20.6292 10.0821 21.4415 10.086H21.5486C22.3644 10.0835 23.1499 9.7834 23.7509 9.24442C26.2791 7.00333 29.945 6.31038 33.1297 7.76148C36.212 9.16557 37.9999 12.2027 37.9999 15.4158C38.0032 15.7863 37.7979 16.1286 37.4656 16.3069C37.1332 16.4853 36.7274 16.4709 36.4091 16.2695C31.959 13.5684 26.8217 12.143 21.5828 12.1557H21.4275C16.173 12.1708 11.0293 13.6334 6.58722 16.3756C6.2713 16.572 5.87126 16.5859 5.54191 16.4118C5.21256 16.2377 5.00558 15.9029 5.00106 15.5371C4.94985 12.2785 6.74863 9.18377 9.87128 7.76148C13.056 6.31038 16.7219 7.00787 19.2501 9.24442ZM6.42426 20.18C6.93642 20.9912 7.66587 21.9738 8.51327 23.061C8.85073 23.4861 9.47069 23.5769 9.92094 23.2672C16.8893 18.5197 26.1399 18.4895 33.1406 23.1914C33.5901 23.4937 34.2031 23.4006 34.5374 22.9791C35.2831 22.0522 35.9784 21.0875 36.6202 20.089C36.903 19.6322 36.7724 19.0392 36.3222 18.7365C27.4004 12.7194 15.5903 12.7551 6.70673 18.8259C6.26174 19.1338 6.1381 19.7265 6.42426 20.18ZM13.4968 28.926C12.7161 28.0511 11.937 27.1626 11.1889 26.2907C11.0004 26.0708 10.9167 25.7828 10.9587 25.4988C11.0008 25.2149 11.1647 24.9619 11.4093 24.8032C17.5209 20.7931 25.4997 20.7614 31.6444 24.7228C31.8909 24.8811 32.0564 25.1346 32.0994 25.4196C32.1424 25.7046 32.0587 25.994 31.8695 26.2149C31.1214 27.0868 30.3376 27.9768 29.5616 28.8548C29.2328 29.2249 28.6783 29.3089 28.2502 29.0534C24.1254 26.5711 18.9147 26.597 14.816 29.1201C14.3873 29.3817 13.8275 29.2994 13.4968 28.926ZM21.291 29.3051C18.4073 29.3824 16.9795 32.7744 18.9304 34.8487L19.0064 34.9321C19.6474 35.6127 20.5508 36 21.4974 36C22.444 36 23.3474 35.6127 23.9884 34.9321L24.0908 34.8229C26.0603 32.7274 24.5657 29.3218 21.6526 29.3051H21.5874H21.291Z" fill="url(#paint0_linear)"/>
<defs>
<linearGradient id="paint0_linear" x1="5" y1="36" x2="38" y2="36" gradientUnits="userSpaceOnUse">
<stop stop-color="#F26A35"/>
<stop offset="1" stop-color="#EE3048"/>
</linearGradient>
</defs>
</svg>
