<svg width="45" height="45" viewBox="0 0 45 45" fill="none" xmlns="http://www.w3.org/2000/svg">
<path fill-rule="evenodd" clip-rule="evenodd" d="M45 22.5C45 34.9264 34.9264 45 22.5 45C10.0736 45 0 34.9264 0 22.5C0 10.0736 10.0736 0 22.5 0C34.9264 0 45 10.0736 45 22.5ZM0.957447 22.5C0.957447 34.3976 10.6024 44.0426 22.5 44.0426C34.3976 44.0426 44.0426 34.3976 44.0426 22.5C44.0426 10.6024 34.3976 0.957447 22.5 0.957447C10.6024 0.957447 0.957447 10.6024 0.957447 22.5Z" fill="#DCDCDC"/>
<path fill-rule="evenodd" clip-rule="evenodd" d="M11.9531 33.0469V17.591H15.3753V11.9531H33.0469V29.3169C33.0469 31.7489 31.979 33.0469 29.9098 33.0469H11.9531ZM32.3438 12.6562H16.0826V27.9265H15.3667V18.2941H12.6562V32.3438H29.9188C31.5577 32.3438 32.3438 31.3895 32.3438 29.3169V12.6562Z" fill="#FF5252"/>
<path d="M19.314 23.1812C19.132 23.1812 18.9844 23.0335 18.9844 22.8516C18.9844 19.9439 21.3502 17.5781 24.2578 17.5781C25.6665 17.5781 26.9911 18.1269 27.9865 19.1229C28.1153 19.2518 28.1153 19.4604 27.9865 19.589C27.8576 19.7178 27.6493 19.7178 27.5204 19.589C26.6493 18.7172 25.4905 18.2373 24.2578 18.2373C21.7134 18.2373 19.6436 20.3071 19.6436 22.8516C19.6436 23.0335 19.4959 23.1812 19.314 23.1812Z" fill="#FF5252"/>
<path d="M28.0476 20.2148H26.2358C26.0536 20.2148 25.9062 20.0672 25.9062 19.8853C25.9062 19.7033 26.0536 19.5557 26.2358 19.5557H27.8838V17.9077C27.8838 17.7258 28.0311 17.5781 28.2134 17.5781C28.3956 17.5781 28.543 17.7258 28.543 17.9077V19.7195C28.543 19.9927 28.3208 20.2148 28.0476 20.2148Z" fill="#FF5252"/>
<path d="M24.2579 28.125C22.8493 28.125 21.525 27.5766 20.5293 26.5802C20.4004 26.4513 20.4004 26.243 20.5293 26.1142C20.6581 25.9853 20.8664 25.9853 20.9953 26.1142C21.8667 26.9859 23.0253 27.4658 24.2579 27.4658C26.8024 27.4658 28.8722 25.396 28.8722 22.8516C28.8722 22.6696 29.0195 22.522 29.2018 22.522C29.384 22.522 29.5314 22.6696 29.5314 22.8516C29.5314 25.7592 27.1656 28.125 24.2579 28.125Z" fill="#FF5252"/>
<path d="M20.3022 28.125C20.1203 28.125 19.9727 27.9777 19.9727 27.7954V25.9837C19.9727 25.7104 20.1948 25.4883 20.468 25.4883H22.2798C22.4617 25.4883 22.6094 25.6356 22.6094 25.8179C22.6094 26.0001 22.4617 26.1475 22.2798 26.1475H20.6318V27.7954C20.6318 27.9777 20.4842 28.125 20.3022 28.125Z" fill="#FF5252"/>
</svg>
