<svg width="225" height="225" viewBox="0 0 225 225" fill="none" xmlns="http://www.w3.org/2000/svg">
<path d="M25.7012 23.656L69.2952 72.0427L75.564 66.4067L31.97 18.02L25.7012 23.656Z" fill="#FF8A65"/>
<path fill-rule="evenodd" clip-rule="evenodd" d="M84.3669 42.9252C84.3669 61.537 69.2631 76.6249 50.6317 76.6249C32.0003 76.6249 16.8965 61.537 16.8965 42.9252C16.8965 24.3134 32.0003 9.22559 50.6317 9.22559C69.2631 9.22559 84.3669 24.3134 84.3669 42.9252ZM25.3303 42.9252C25.3303 56.8841 36.6581 68.1999 50.6317 68.1999C64.6053 68.1999 75.9331 56.8841 75.9331 42.9252C75.9331 28.9664 64.6053 17.6505 50.6317 17.6505C36.6581 17.6505 25.3303 28.9664 25.3303 42.9252Z" fill="#FF8A65"/>
<path fill-rule="evenodd" clip-rule="evenodd" d="M192.304 94.6613C209.577 77.3881 209.562 49.3679 192.271 32.0765C174.979 14.785 146.959 14.7703 129.686 32.0435L31.3904 130.339C14.1172 147.612 14.132 175.632 31.4234 192.924C48.7149 210.215 76.735 210.23 94.0082 192.957L192.304 94.6613ZM135.65 38.0071C149.633 24.024 172.316 24.036 186.314 38.0338C200.311 52.0316 200.323 74.7146 186.34 88.6977L88.0446 186.993C74.0616 200.976 51.3786 200.964 37.3808 186.967C23.3829 172.969 23.371 150.286 37.354 136.303L135.65 38.0071Z" fill="#FF8A65"/>
<path fill-rule="evenodd" clip-rule="evenodd" d="M126.168 128.899L96.3496 99.0806L48.6911 146.739C40.4658 154.964 40.4728 168.307 48.7069 176.541C56.9409 184.775 70.2838 184.782 78.5091 176.557L126.168 128.899ZM54.6547 152.703L96.3559 111.001L114.247 128.892L72.5455 170.593C67.6103 175.529 59.6046 175.524 54.6642 170.584C49.7238 165.644 49.7195 157.638 54.6547 152.703Z" fill="#FF8A65"/>
</svg>
