<svg width="129" height="37" viewBox="0 0 129 37" fill="none" xmlns="http://www.w3.org/2000/svg">
<rect x="1" y="0.584717" width="127" height="35" rx="17.5" stroke="white"/>
<path d="M25.5663 17.0884C25.5663 17.0884 18.3026 12.9885 17.876 12.7476C17.4486 12.5068 17.0234 12.6529 17.0234 13.1563V21.9087V30.839C17.0234 31.2159 17.3272 31.3793 17.6985 31.1703C18.069 30.9612 25.5663 26.729 25.5663 26.729C25.5663 26.729 26.5848 26.1544 27.0941 25.8672C27.9137 25.4048 29.5528 24.4801 29.5528 24.4801C29.5528 24.4801 32.9352 22.5705 33.3852 22.3174C33.8345 22.0635 33.7912 21.7156 33.4122 21.5152C33.0324 21.3156 29.5528 19.3379 29.5528 19.3379L25.5663 17.0884Z" fill="url(#paint0_linear)"/>
<path d="M26.9079 21.8793L17.3564 12.6572C17.1336 12.71 17 12.8798 17 13.1655V21.8793V30.811C17 31.0535 17.0959 31.1977 17.2138 31.2467L26.9079 21.8793Z" fill="url(#paint1_linear)"/>
<mask id="mask0" mask-type="alpha" maskUnits="userSpaceOnUse" x="17" y="21" width="13" height="11">
<path fill-rule="evenodd" clip-rule="evenodd" d="M17.6076 31.1952L23.1284 28.1057C24.4879 27.3382 25.5668 26.7292 25.5668 26.7292L29.5816 24.5262L26.9088 21.8804L17.2148 31.2489C17.3229 31.2843 17.5133 31.2649 17.6619 31.1902" fill="white"/>
</mask>
<g mask="url(#mask0)">
<path d="M25.5535 17.0871C25.5396 17.1198 18.2786 13.0124 17.8554 12.8028C17.425 12.5298 17 12.6762 17 13.1658V21.9523C17 21.949 17 30.5174 17 30.8839C17 31.2732 17.3037 31.437 17.6415 31.247C18.0452 31.0182 25.5396 26.7781 25.5535 26.7449L29.5452 24.4938C29.5245 24.5252 32.9055 22.612 33.323 22.388C33.8045 22.1041 33.7613 21.7555 33.3943 21.5892C33.0027 21.3548 29.5245 19.3735 29.5452 19.3381L25.5535 17.0871Z" fill="url(#paint2_linear)"/>
</g>
<path d="M17.863 12.7405C17.6791 12.6402 17.4964 12.6115 17.3486 12.652L26.908 21.8876L29.5527 19.3379L25.5662 17.0884C25.5662 17.0884 21.8089 14.9676 19.5402 13.6871L17.863 12.7405Z" fill="url(#paint3_linear)"/>
<path fill-rule="evenodd" clip-rule="evenodd" d="M82.277 24.9732L83.0442 24.2175C83.1183 24.1401 83.0142 24.1966 83.0142 24.1966C82.4956 24.4641 81.9304 24.7236 81.169 24.7236C79.6446 24.7236 78.2652 23.4855 77.8654 21.3566L79.1003 21.2564L82.8711 19.6659C82.8698 19.6615 82.8685 19.6571 82.8671 19.6526C82.7513 19.2644 82.5397 18.5555 81.7474 18.0085C81.2655 17.6904 80.6727 17.5396 80.0957 17.5396C78.4444 17.5396 76.4199 18.8129 76.4199 21.4092C76.4199 22.6632 76.9176 24.1023 78.056 24.9395C78.8755 25.5583 79.6788 25.593 80.1912 25.593C80.6727 25.593 81.2146 25.5295 81.7474 25.2769C81.8648 25.221 81.9823 25.1498 82.1001 25.0785C82.159 25.0428 82.2179 25.0071 82.277 24.9732ZM81.2002 19.4942C81.2002 19.729 81.0428 19.8299 80.7402 19.9468L77.8535 21.2787C77.848 21.1749 77.8406 21.0712 77.8333 20.9682C77.8193 20.7706 77.8055 20.5758 77.8055 20.3889C77.8055 18.5675 78.9949 18.0429 79.6284 18.0429C80.4836 18.0429 81.2002 18.8207 81.2002 19.4942Z" fill="white"/>
<path d="M75.1754 24.1264C75.1754 24.7754 75.2862 24.8764 75.8116 24.9274C76.0855 24.961 76.3584 24.9759 76.6284 25.0095L76.0372 25.3773H73.2196C73.5892 24.8764 73.6526 24.8264 73.6526 24.4927V24.12L73.6465 14.1877H72.4023L73.6 13.5847H75.8865C75.3909 13.8847 75.2426 14.0674 75.1791 14.652L75.1754 24.1264Z" fill="white"/>
<path fill-rule="evenodd" clip-rule="evenodd" d="M70.8038 18.3592C71.1703 18.6745 71.9352 19.3437 71.9352 20.6128C71.9352 21.8497 71.2687 22.4327 70.5966 22.9846L70.5679 23.0148C70.3687 23.2239 70.1491 23.4543 70.1491 23.8018C70.1491 24.1646 70.3814 24.3644 70.5541 24.513L70.5639 24.5215L71.1405 24.9872C71.8415 25.6064 72.4805 26.1741 72.4805 27.3274C72.4805 28.8984 71.0275 30.4828 68.2817 30.4828C65.9688 30.4828 64.8506 29.33 64.8506 28.0941C64.8506 27.4927 65.1368 26.6409 66.0809 26.0573C67.0573 25.4327 68.3754 25.342 69.1 25.2921L69.1289 25.2901L69.0955 25.2452C68.88 24.9554 68.6488 24.6444 68.6488 24.1522C68.6488 23.8989 68.7139 23.7371 68.7838 23.5634L68.7839 23.5633C68.7921 23.5429 68.8004 23.5223 68.8086 23.5014L68.7975 23.5025L68.7974 23.5025C68.6266 23.5194 68.4547 23.5365 68.2983 23.5365C66.6054 23.5365 65.6485 22.215 65.6485 20.9127C65.6485 20.1445 65.9834 19.2922 66.6712 18.6745C67.5812 17.8905 68.6663 17.7554 69.5286 17.7554H72.8178L71.7952 18.3592H70.8038ZM69.6808 25.7551C69.5487 25.737 69.4696 25.737 69.3103 25.737C69.1644 25.737 68.2951 25.7702 67.6219 26.0091C67.2657 26.1466 66.2362 26.5533 66.2362 27.7611C66.2362 28.9664 67.3477 29.8356 69.0671 29.8356C70.612 29.8356 71.4322 29.0531 71.4322 27.9994C71.4322 27.1322 70.9015 26.6747 69.6808 25.7551ZM70.5315 21.3214C70.5315 21.6229 70.4995 22.1539 70.1322 22.5382C69.8807 22.8017 69.4521 23.0045 69.0536 23.0045C67.6883 23.0045 67.0675 21.1551 67.0675 20.04C67.0675 19.6073 67.1481 19.1573 67.417 18.8104C67.6704 18.4753 68.1169 18.2587 68.529 18.2587C69.8501 18.2587 70.5315 20.1239 70.5315 21.3214Z" fill="white"/>
<path fill-rule="evenodd" clip-rule="evenodd" d="M56.9531 21.6264C56.9531 23.5113 58.3135 25.593 60.8561 25.593C63.4646 25.593 64.9203 23.4928 64.9203 21.5077C64.9203 19.4753 63.4476 17.5396 61.096 17.5396C58.6634 17.5396 56.9531 19.424 56.9531 21.6264ZM63.3269 22.3612C63.3269 23.018 63.2327 23.6917 62.8446 24.2315C62.475 24.7703 61.8343 25.0897 61.2065 25.0897C59.2611 25.0897 58.4773 22.3413 58.4773 20.6749C58.4773 19.9472 58.5891 19.2055 59.216 18.6152C59.6003 18.2603 60.1335 18.0429 60.6628 18.0429C62.6534 18.0429 63.3269 20.8758 63.3269 22.3612Z" fill="white"/>
<path fill-rule="evenodd" clip-rule="evenodd" d="M48.4316 21.6264C48.4316 23.5113 49.7903 25.593 52.3344 25.593C54.9444 25.593 56.3988 23.4928 56.3988 21.5077C56.3988 19.4753 54.9269 17.5396 52.5758 17.5396C50.1431 17.5396 48.4316 19.424 48.4316 21.6264ZM54.8054 22.3612C54.8054 23.018 54.7093 23.6917 54.3238 24.2315C53.9531 24.7703 53.3131 25.0897 52.6864 25.0897C50.7434 25.0897 49.9558 22.3413 49.9558 20.6749C49.9558 19.9472 50.0672 19.2055 50.6953 18.6152C51.0808 18.2603 51.6085 18.0429 52.1401 18.0429C54.1297 18.0429 54.8054 20.8758 54.8054 22.3612Z" fill="white"/>
<path d="M47.3764 25.0954L45.2228 25.6106C44.3502 25.7543 43.5666 25.8806 42.7369 25.8806C38.5829 25.8806 37 22.6867 37 20.1869C37 17.1342 39.2427 14.3037 43.0834 14.3037C43.896 14.3037 44.6777 14.4285 45.3899 14.6314C46.5186 14.9626 47.0465 15.3708 47.3764 15.61L46.1254 16.8512L45.5979 16.9745L45.974 16.3485C45.4646 15.8288 44.5282 14.8696 42.7511 14.8696C40.3752 14.8696 38.5829 16.7562 38.5829 19.5106C38.5829 22.4689 40.6294 25.2516 43.9117 25.2516C44.8762 25.2516 45.3727 25.0492 45.8235 24.8602V22.3241L43.5495 22.4519L44.7548 21.7757H47.9462L47.5559 22.168C47.4507 22.2615 47.4364 22.2933 47.4069 22.4186C47.3912 22.5618 47.3764 23.0173 47.3764 23.1775V25.0954Z" fill="white"/>
<path fill-rule="evenodd" clip-rule="evenodd" d="M87.6926 28.5412V24.2944C88.3005 25.1843 89.2485 25.752 90.3067 25.752C92.3172 25.752 93.6713 24.1323 93.6713 21.6376C93.6713 19.1261 92.3172 17.5396 90.3067 17.5396C89.1858 17.5396 88.2207 18.17 87.6926 18.9655V17.7347H86.8818V28.5412H87.6926ZM90.1998 18.3305C91.8879 18.3305 92.8399 19.7895 92.8399 21.7024C92.8399 23.6182 91.8879 25.0897 90.1998 25.0897C89.1515 25.0897 88.1489 24.1954 87.7132 23.4415V19.9458C88.1489 19.1933 89.1515 18.3305 90.1998 18.3305Z" fill="white"/>
<path d="M94.7793 14.7351H95.6107V25.5929H94.7793V14.7351Z" fill="white"/>
<path d="M104.65 27.7934C104.823 27.874 105.119 27.9234 105.307 27.9234C105.802 27.9234 106.148 27.7124 106.458 26.9671L107.049 25.5729L103.855 17.6833H104.76L107.5 24.5203L110.213 17.6833H111.13L107.235 27.2286C106.83 28.212 106.194 28.685 105.321 28.685C105.059 28.685 104.713 28.6366 104.51 28.5718L104.65 27.7934Z" fill="white"/>
<path fill-rule="evenodd" clip-rule="evenodd" d="M102.236 24.8683C102.266 25.0691 102.307 25.3096 102.362 25.5823H103.301C103.228 25.3284 103.173 25.0661 103.139 24.8032C103.106 24.5409 103.093 24.2716 103.093 23.9929V20.1123C103.093 19.2816 102.821 18.6461 102.279 18.2063C101.737 17.7621 101.018 17.5396 100.129 17.5396C99.2368 17.5396 98.5122 17.7656 97.959 18.2153C97.4034 18.6655 97.1421 19.1867 97.1722 19.7809L97.1894 19.8232H98.024C98.024 19.3824 98.2136 19.0167 98.59 18.7216C98.9698 18.4324 99.4685 18.2839 100.083 18.2839C100.756 18.2839 101.275 18.4463 101.644 18.7678C102.013 19.0888 102.197 19.5315 102.197 20.0944V21.0718H100.295C99.276 21.0718 98.4524 21.2904 97.8152 21.7301C97.178 22.1679 96.8584 22.7403 96.8584 23.4453C96.8584 24.1514 97.0791 24.7093 97.5176 25.1212C97.9576 25.5336 98.5743 25.7369 99.3686 25.7369C100.028 25.7369 100.509 25.5987 101.016 25.317C101.522 25.0373 101.918 24.682 102.197 24.2552C102.197 24.4634 102.211 24.6681 102.236 24.8683ZM101.164 24.5359C100.656 24.856 100.159 25.0178 99.4667 25.0178C98.936 25.0178 98.5198 24.881 98.2153 24.6048C97.9118 24.3316 97.759 23.971 97.759 23.52C97.759 23.0421 98.0001 22.631 98.4759 22.2914C98.9508 21.9508 99.5546 21.782 100.284 21.782H102.193V23.3003C102.013 23.8027 101.669 24.2177 101.164 24.5359Z" fill="white"/>
<path d="M37.0029 8.17843C37.0029 6.63985 38.1929 5.65015 39.6727 5.65015C40.6644 5.65015 41.313 6.10472 41.7172 6.66137L40.9928 7.06467C40.7183 6.69799 40.2374 6.4128 39.6727 6.4128C38.6662 6.4128 37.9184 7.14523 37.9184 8.17843C37.9184 9.19652 38.6662 9.94406 39.6727 9.94406C40.1917 9.94406 40.6492 9.717 40.8779 9.5046V8.74973H39.3524V7.99486H41.7629V9.81955C41.2673 10.3547 40.5501 10.7136 39.6727 10.7136C38.1929 10.7136 37.0029 9.71014 37.0029 8.17843Z" fill="white"/>
<path d="M42.917 10.6391V5.72461H46.4509V6.48409H43.8219V7.7508H46.3968V8.50982H43.8219V9.8801H46.4509V10.6391H42.917Z" fill="white"/>
<path d="M48.8543 10.6391V6.48409H47.3164V5.72461H51.2831V6.48409H49.7452V10.6391H48.8543Z" fill="white"/>
<path d="M54.4561 5.72461H55.3215V10.6391H54.4561V5.72461Z" fill="white"/>
<path d="M57.7981 10.6391V6.48409H56.2598V5.72461H60.2264V6.48409H58.689V10.6391H57.7981Z" fill="white"/>
<path fill-rule="evenodd" clip-rule="evenodd" d="M65.8153 5.65015C64.2711 5.65015 63.1826 6.72151 63.1826 8.18209C63.1826 9.64221 64.2711 10.7136 65.8153 10.7136C67.3508 10.7136 68.4475 9.64221 68.4475 8.18209C68.4475 6.72151 67.3508 5.65015 65.8153 5.65015ZM65.8153 6.39477C66.843 6.39477 67.5099 7.14244 67.5099 8.14463C67.5099 9.13911 66.843 9.89449 65.8153 9.89449C64.7799 9.89449 64.1202 9.13911 64.1202 8.14463C64.1202 7.14244 64.7799 6.39477 65.8153 6.39477Z" fill="white"/>
<path d="M72.9962 10.6391L70.3472 7.12481V10.6391H69.457V5.72461H70.3705L72.9658 9.12891V5.72461H73.8564V10.6391H72.9962Z" fill="white"/>
<defs>
<linearGradient id="paint0_linear" x1="22.8765" y1="17.988" x2="30.1955" y2="26.7626" gradientUnits="userSpaceOnUse">
<stop stop-color="#FF177B"/>
<stop offset="1" stop-color="#FFEC73"/>
</linearGradient>
<linearGradient id="paint1_linear" x1="10.4317" y1="-7.22627" x2="-10.651" y2="5.72863" gradientUnits="userSpaceOnUse">
<stop stop-color="#064AA2"/>
<stop offset="1" stop-color="#63FFD4"/>
</linearGradient>
<linearGradient id="paint2_linear" x1="26.9318" y1="13.4264" x2="10.8743" y2="21.2382" gradientUnits="userSpaceOnUse">
<stop stop-color="#FF4521"/>
<stop offset="1" stop-color="#8A33DB"/>
</linearGradient>
<linearGradient id="paint3_linear" x1="3.66858" y1="7.83983" x2="8.32467" y2="29.2758" gradientUnits="userSpaceOnUse">
<stop stop-color="#00A3B5"/>
<stop offset="1" stop-color="#D6FFA1"/>
</linearGradient>
</defs>
</svg>
