<svg width="45" height="45" viewBox="0 0 45 45" fill="none" xmlns="http://www.w3.org/2000/svg">
<path fill-rule="evenodd" clip-rule="evenodd" d="M33.9893 22.7393C33.9893 28.9525 28.9525 33.9893 22.7393 33.9893C16.5261 33.9893 11.4893 28.9525 11.4893 22.7393C11.4893 16.5261 16.5261 11.4893 22.7393 11.4893C28.9525 11.4893 33.9893 16.5261 33.9893 22.7393ZM12.4467 22.7393C12.4467 28.4237 17.0548 33.0318 22.7393 33.0318C28.4237 33.0318 33.0318 28.4237 33.0318 22.7393C33.0318 17.0548 28.4237 12.4467 22.7393 12.4467C17.0548 12.4467 12.4467 17.0548 12.4467 22.7393Z" fill="#FF5252"/>
<path fill-rule="evenodd" clip-rule="evenodd" d="M45 22.5C45 34.9264 34.9264 45 22.5 45C10.0736 45 0 34.9264 0 22.5C0 10.0736 10.0736 0 22.5 0C34.9264 0 45 10.0736 45 22.5ZM0.957447 22.5C0.957447 34.3976 10.6024 44.0426 22.5 44.0426C34.3976 44.0426 44.0426 34.3976 44.0426 22.5C44.0426 10.6024 34.3976 0.957447 22.5 0.957447C10.6024 0.957447 0.957447 10.6024 0.957447 22.5Z" fill="#DCDCDC"/>
<path fill-rule="evenodd" clip-rule="evenodd" d="M17.9996 23.2226C16.2784 21.1214 17.6883 18.1914 19.9731 18.1914C21.0341 18.1914 21.9922 18.651 22.8353 19.5437C23.4342 18.6431 24.4997 18.1914 25.9675 18.1914C27.3345 18.1914 28.1555 18.9263 28.3207 20.1155C28.4491 21.0395 28.163 22.1921 27.6217 23.154C26.9806 24.2933 25.5376 25.9767 23.2801 28.2309L22.9389 28.5716L22.6007 28.228C20.6122 26.2079 19.079 24.5403 17.9996 23.2226ZM19.9731 19.1489C18.4927 19.1489 17.5334 21.1425 18.7403 22.6159C19.737 23.8326 21.1388 25.3651 22.9443 27.2112C24.9476 25.1875 26.2321 23.671 26.7873 22.6845C27.2333 21.892 27.469 20.9424 27.3724 20.2473C27.2722 19.5259 26.8509 19.1489 25.9675 19.1489C24.5297 19.1489 23.7131 19.6197 23.3957 20.5669L23.1058 21.4323L22.5587 20.7019C21.7718 19.6513 20.9168 19.1489 19.9731 19.1489Z" fill="#FF5252"/>
</svg>
