<svg width="45" height="45" viewBox="0 0 45 45" fill="none" xmlns="http://www.w3.org/2000/svg">
<path fill-rule="evenodd" clip-rule="evenodd" d="M45 22.5C45 34.9264 34.9264 45 22.5 45C10.0736 45 0 34.9264 0 22.5C0 10.0736 10.0736 0 22.5 0C34.9264 0 45 10.0736 45 22.5ZM0.957447 22.5C0.957447 34.3976 10.6024 44.0426 22.5 44.0426C34.3976 44.0426 44.0426 34.3976 44.0426 22.5C44.0426 10.6024 34.3976 0.957447 22.5 0.957447C10.6024 0.957447 0.957447 10.6024 0.957447 22.5Z" fill="#DCDCDC"/>
<path fill-rule="evenodd" clip-rule="evenodd" d="M19.9815 11H25.5185C27.1651 11 28.5 12.4253 28.5 14.1835V18.1628H28.9773C30.6467 18.1628 32 19.5719 32 21.3101V29.8527C32 31.5909 30.6467 33 28.9773 33H16.0227C14.3533 33 13 31.5909 13 29.8527V21.3101C13 19.5719 14.3533 18.1628 16.0227 18.1628H17V14.1835C17 12.4253 18.3349 11 19.9815 11ZM27.6481 18.1628H17.8519V14.1835C17.8519 12.9276 18.8053 11.9096 19.9815 11.9096H25.5185C26.6947 11.9096 27.6481 12.9276 27.6481 14.1835V18.1628ZM17 19.062H16.0227C14.8303 19.062 13.8636 20.0685 13.8636 21.3101V29.8527C13.8636 31.0943 14.8303 32.1008 16.0227 32.1008H28.9773C30.1697 32.1008 31.1364 31.0943 31.1364 29.8527V21.3101C31.1364 20.0685 30.1697 19.062 28.9773 19.062H28.5V19.186H17V19.062ZM22.5 21.7442C23.8807 21.7442 25 22.9701 25 24.4823C25 25.4826 24.5055 26.3851 23.7324 26.8651C23.7317 26.9444 23.7353 27.0395 23.7475 27.3143C23.761 27.6201 23.7659 27.8093 23.7623 28.0181C23.7424 29.1834 23.4059 29.9302 22.5 29.9302C21.5949 29.9302 21.2554 29.1846 21.2269 28.0147C21.2219 27.8063 21.2252 27.6208 21.2362 27.3095C21.2459 27.0344 21.2486 26.9358 21.2467 26.8519C20.4849 26.3683 20 25.473 20 24.4823C20 22.9701 21.1193 21.7442 22.5 21.7442ZM22.06 27.9904C22.0779 28.725 22.211 29.0175 22.5 29.0175C22.7868 29.0175 22.9167 28.7292 22.9292 28.0009C22.9323 27.818 22.9278 27.6451 22.9151 27.3584C22.899 26.9936 22.8966 26.9208 22.9003 26.7893C22.9099 26.4548 22.9548 26.265 23.2049 26.137C23.7869 25.8389 24.1667 25.1983 24.1667 24.4823C24.1667 23.4741 23.4205 22.6569 22.5 22.6569C21.5795 22.6569 20.8333 23.4741 20.8333 24.4823C20.8333 25.1895 21.2037 25.8235 21.7748 26.1264C22.0174 26.255 22.0649 26.4453 22.078 26.7731C22.0833 26.9063 22.0813 26.9927 22.0689 27.3447C22.0586 27.6373 22.0555 27.8073 22.06 27.9904Z" fill="white"/>
</svg>
