<svg width="127" height="39" viewBox="0 0 127 39" fill="none" xmlns="http://www.w3.org/2000/svg">
<path fill-rule="evenodd" clip-rule="evenodd" d="M22.3873 35.1669C22.1356 35.0656 21.9033 34.8912 21.6902 34.6452V31.3121C21.9338 31.0265 22.1928 30.8062 22.4672 30.6487C22.7416 30.492 23.0739 30.4134 23.4653 30.4134C23.7139 30.4134 23.9362 30.4567 24.1319 30.5434C24.3272 30.6311 24.4935 30.7681 24.6309 30.9568C24.7679 31.1451 24.8729 31.39 24.947 31.6925C25.0204 31.9942 25.0574 32.3621 25.0574 32.7975C25.0574 33.2274 25.0138 33.6004 24.9281 33.9172C24.8417 34.2329 24.7182 34.4958 24.5584 34.7029C24.3982 34.9106 24.204 35.0656 23.9756 35.1669C23.7471 35.2679 23.4908 35.3192 23.2059 35.3192C22.9118 35.3192 22.6389 35.2679 22.3873 35.1669ZM22.6806 29.3194C22.2742 29.5316 21.911 29.8095 21.591 30.1524L21.4386 29.4644C21.3626 29.2467 21.2024 29.138 20.9588 29.138H19.8086V39H21.6902V35.9569C21.9338 36.1835 22.2105 36.3611 22.5208 36.4896C22.8304 36.617 23.2032 36.6813 23.6405 36.6813C24.1531 36.6813 24.617 36.5832 25.0308 36.3879C25.4445 36.1923 25.7973 35.921 26.0895 35.5729C26.3813 35.2245 26.6067 34.8141 26.7638 34.3409C26.9213 33.8677 27 33.353 27 32.7975C27 32.1888 26.9301 31.6491 26.7908 31.1778C26.6507 30.7071 26.4527 30.311 26.1964 29.9898C25.9397 29.6678 25.6352 29.4226 25.2824 29.2537C24.9289 29.0848 24.5391 29 24.1126 29C23.5641 29 23.0867 29.1072 22.6806 29.3194ZM9.0579 29.1068V36.5557H7.35925V32.4109C7.35925 32.2417 7.36813 32.0508 7.38588 31.8382C7.40364 31.626 7.43297 31.4281 7.47388 31.2438L5.17313 35.259C5.06081 35.4668 4.88327 35.5704 4.63972 35.5704H4.44172C4.1974 35.5704 4.01986 35.4668 3.90831 35.259L1.57668 31.2229C1.61257 31.4057 1.64191 31.6066 1.66468 31.8243C1.68745 32.0409 1.69864 32.2373 1.69864 32.4109V36.5557H0V29.1068H1.55391C1.68591 29.1068 1.81675 29.1333 1.94644 29.1865C2.07574 29.2397 2.18342 29.3458 2.27026 29.5048L4.11365 32.6352C4.19509 32.7806 4.27151 32.9333 4.34253 33.0952C4.41354 33.2571 4.47954 33.4209 4.54053 33.5846C4.60151 33.4209 4.66635 33.2564 4.73505 33.0919C4.80337 32.9282 4.87825 32.7762 4.95969 32.6352L6.78802 29.5048C6.87949 29.3414 6.98834 29.2335 7.1157 29.1832C7.24192 29.1318 7.37199 29.1068 7.50399 29.1068H9.0579ZM17.9497 29.1379V36.5724H16.0681V32.2319C16.0681 32.1207 16.0743 31.9996 16.087 31.8659C16.0997 31.733 16.1163 31.5998 16.1368 31.4643C16.0349 31.6864 15.9233 31.8817 15.8014 32.051C15.7913 32.0605 15.7404 32.127 15.6489 32.2499C15.5574 32.3737 15.4393 32.5319 15.2946 32.725L15.2809 32.7432L15.2802 32.7442C15.1391 32.9329 14.9802 33.1453 14.8033 33.3803L14.442 33.8628L14.2471 34.1234C13.8051 34.7177 13.3049 35.3892 12.7464 36.1374C12.6754 36.2391 12.5824 36.3382 12.4685 36.4347C12.3539 36.532 12.2234 36.5798 12.076 36.5798H10.9254V29.1452H12.8074V33.4857C12.8074 33.5969 12.8009 33.7192 12.7881 33.8517C12.7754 33.9846 12.7592 34.1189 12.7387 34.2544C12.8503 34.0173 12.9622 33.8216 13.0737 33.6667C13.0788 33.6571 13.1274 33.5918 13.2185 33.4713C13.3099 33.3502 13.4281 33.1934 13.5728 33C13.7179 32.8072 13.8816 32.5884 14.0641 32.3443C14.2471 32.1002 14.4323 31.8509 14.6203 31.5943C15.0622 30.9999 15.5652 30.3284 16.1287 29.5802C16.2001 29.4741 16.2939 29.3732 16.4104 29.2796C16.5274 29.1848 16.6594 29.1379 16.8068 29.1379H17.9497Z" fill="white"/>
<path fill-rule="evenodd" clip-rule="evenodd" d="M102.732 10.7903C102.752 10.7748 102.772 10.7523 102.794 10.7232L102.98 10.4621C102.837 10.3147 102.673 10.201 102.489 10.1207C102.305 10.0404 102.092 10 101.851 10C101.592 10 101.363 10.0442 101.165 10.1323C100.967 10.2208 100.801 10.343 100.668 10.499C100.534 10.6553 100.432 10.8412 100.362 11.0565C100.293 11.2718 100.258 11.5058 100.258 11.758C100.258 12.037 100.297 12.2853 100.374 12.5029C100.451 12.7206 100.557 12.9049 100.69 13.0554C100.824 13.2064 100.981 13.3212 101.16 13.4004C101.34 13.4795 101.533 13.5195 101.74 13.5195C101.86 13.5195 101.978 13.5098 102.096 13.4908C102.213 13.4718 102.326 13.4407 102.435 13.3973C102.544 13.3534 102.647 13.2972 102.745 13.2281C102.843 13.1586 102.932 13.0741 103.013 12.9736L102.814 12.709C102.783 12.6643 102.74 12.6418 102.683 12.6418C102.637 12.6418 102.594 12.6585 102.554 12.6923C102.514 12.7256 102.466 12.7625 102.409 12.8025C102.352 12.8428 102.282 12.8797 102.197 12.9134C102.112 12.9468 102.002 12.9635 101.867 12.9635C101.73 12.9635 101.607 12.9367 101.497 12.8832C101.387 12.8296 101.293 12.7516 101.216 12.6488C101.139 12.546 101.08 12.4199 101.038 12.2701C100.997 12.1208 100.976 11.95 100.976 11.758C100.976 11.5725 100.995 11.4061 101.033 11.2575C101.071 11.1089 101.129 10.9828 101.206 10.8788C101.283 10.7752 101.379 10.6953 101.493 10.6398C101.607 10.5839 101.741 10.556 101.893 10.556C102.011 10.556 102.109 10.5692 102.187 10.596C102.265 10.6227 102.332 10.6526 102.388 10.6848C102.443 10.717 102.491 10.7469 102.531 10.7733C102.572 10.8004 102.61 10.8136 102.647 10.8136C102.684 10.8136 102.713 10.8059 102.732 10.7903ZM79.7781 11.0395C79.8119 11.1435 79.8285 11.2556 79.8285 11.3762H78.1735C78.2129 11.1062 78.3054 10.8963 78.4509 10.7465C78.5968 10.5972 78.7969 10.5223 79.0516 10.5223C79.1778 10.5223 79.2892 10.544 79.3863 10.5875C79.4829 10.6313 79.5644 10.6914 79.6296 10.7687C79.6948 10.8455 79.744 10.9359 79.7781 11.0395ZM78.2421 12.3222C78.1921 12.1806 78.1625 12.0126 78.1542 11.8182H80.292C80.3549 11.8182 80.3985 11.7992 80.4228 11.7615C80.4467 11.7235 80.4584 11.6486 80.4584 11.5369C80.4584 11.2936 80.4232 11.0767 80.3523 10.8858C80.2814 10.6949 80.1833 10.5335 80.0571 10.4016C79.9309 10.2701 79.7808 10.1704 79.6068 10.1021C79.4325 10.0342 79.2434 10 79.0387 10C78.7928 10 78.5726 10.0443 78.3774 10.1323C78.183 10.2204 78.0177 10.3403 77.8817 10.4924C77.7453 10.6441 77.641 10.8226 77.5683 11.0282C77.4951 11.2335 77.4587 11.4542 77.4587 11.6913C77.4587 11.9881 77.4997 12.25 77.5812 12.4778C77.663 12.7055 77.776 12.8964 77.9207 13.0504C78.0655 13.2045 78.236 13.3213 78.4331 13.4004C78.6298 13.4796 78.8439 13.5191 79.0744 13.5191C79.1918 13.5191 79.3127 13.5098 79.4367 13.4908C79.561 13.4718 79.6815 13.4408 79.799 13.3969C79.9165 13.3535 80.0275 13.2972 80.1321 13.2277C80.2367 13.1587 80.3299 13.0737 80.4129 12.9736L80.2136 12.709C80.1833 12.6644 80.1397 12.6419 80.0832 12.6419C80.0396 12.6419 79.9919 12.6582 79.9396 12.6908C79.8873 12.723 79.8244 12.7587 79.7501 12.7979C79.6762 12.8367 79.589 12.8723 79.489 12.9049C79.3889 12.9371 79.2703 12.9534 79.1335 12.9534C78.9898 12.9534 78.8595 12.9305 78.7431 12.8848C78.6268 12.839 78.5267 12.7691 78.443 12.6756C78.3592 12.5817 78.2921 12.4638 78.2421 12.3222ZM76.7865 13.4693V10.0437H76.2154C76.1676 10.0437 76.1195 10.0542 76.0717 10.0755C76.024 10.0968 75.9834 10.1407 75.9508 10.2074L75.0599 11.7947C75.0295 11.8529 75.0011 11.9154 74.975 11.9825C74.9488 12.0492 74.9238 12.1163 74.8999 12.1835L74.8999 12.1834L74.8999 12.1834L74.8999 12.1834L74.8999 12.1834L74.8999 12.1834L74.8999 12.1834L74.8999 12.1833L74.8999 12.1833L74.8999 12.1833L74.8999 12.1833L74.8999 12.1833L74.8999 12.1833L74.8999 12.1833L74.8998 12.1833L74.8998 12.1832L74.8998 12.1832L74.8998 12.1832L74.8998 12.1832L74.8998 12.1832L74.8998 12.1832L74.8998 12.1832L74.8998 12.1831L74.8998 12.1831L74.8998 12.1831L74.8998 12.1831L74.8998 12.1831L74.8998 12.1831L74.8998 12.1831L74.8998 12.1831L74.8998 12.183L74.8998 12.183C74.8756 12.1161 74.8514 12.0491 74.8268 11.9825C74.8014 11.9154 74.7737 11.8529 74.743 11.7947L73.8391 10.2074C73.8043 10.143 73.7633 10.0996 73.7167 10.0771C73.6697 10.0549 73.6224 10.0437 73.5746 10.0437H73.0001V13.4693H73.6334V11.4028C73.6334 11.3295 73.6284 11.2465 73.619 11.1537C73.6091 11.061 73.5974 10.9756 73.5845 10.8973L74.665 12.8628C74.6866 12.9032 74.7142 12.935 74.7483 12.9587C74.7817 12.982 74.8203 12.9936 74.8639 12.9936H74.939C74.9825 12.9936 75.022 12.982 75.0568 12.9587C75.0913 12.935 75.1197 12.9032 75.1413 12.8628L76.2021 10.9074C76.1892 10.9857 76.1782 11.0699 76.1695 11.1603C76.1608 11.2507 76.1566 11.3314 76.1566 11.4028V13.4693H76.7865ZM83.3471 12.95V10.6128H82.4137C82.394 10.9255 82.3663 11.2056 82.3303 11.4535C82.2943 11.7011 82.253 11.9203 82.2064 12.1112C82.1594 12.3021 82.1074 12.4662 82.0514 12.6035C81.9945 12.7405 81.9358 12.8561 81.8747 12.95H83.3471ZM84.6364 12.9264V14.41C84.6364 14.4772 84.6175 14.5299 84.5792 14.5691C84.5409 14.6079 84.4928 14.6277 84.434 14.6277H84.0001V13.4692H81.3658V14.4232C81.3658 14.4748 81.3499 14.5218 81.3184 14.5641C81.2869 14.6064 81.2384 14.6277 81.1732 14.6277H80.7295V12.95H80.8303C80.9068 12.95 80.9815 12.9384 81.0558 12.9151C81.1297 12.8914 81.2002 12.8441 81.268 12.7727C81.3355 12.7013 81.3995 12.6001 81.4605 12.4697C81.5215 12.3389 81.5765 12.1663 81.6254 11.9521C81.6743 11.7379 81.7171 11.4757 81.7542 11.1653C81.7914 10.8553 81.8206 10.4847 81.8422 10.0537H84.0262V12.9264H84.6364ZM88.1094 13.4692V10.0537H87.6849C87.6303 10.0537 87.5815 10.0727 87.5382 10.1103C87.4947 10.1488 87.4598 10.1899 87.4336 10.2345L85.9874 12.2703C85.942 12.3374 85.8972 12.422 85.8537 12.5248C85.8624 12.4666 85.8696 12.4088 85.8749 12.3506C85.8806 12.2928 85.8832 12.2404 85.8832 12.1935V10.0537H85.1813V13.4723H85.6058C85.6604 13.4723 85.7093 13.4529 85.7525 13.4137C85.7961 13.3749 85.8309 13.3342 85.8571 13.2915L87.3033 11.2522C87.3272 11.2188 87.3495 11.1816 87.37 11.1401C87.3908 11.0989 87.412 11.0539 87.4336 11.0047C87.4249 11.0629 87.4185 11.1195 87.4139 11.1754C87.4098 11.2313 87.4075 11.2825 87.4075 11.3294V13.4692H88.1094ZM92.4144 12.9265V14.4102C92.4144 14.4769 92.3958 14.5301 92.3591 14.5689C92.3219 14.6081 92.2742 14.6275 92.2154 14.6275H91.7815V13.4689H88.9641V10.0538H89.6664V12.9265H91.1058V10.0538H91.8042V12.9265H92.4144ZM95.8874 13.4692V10.0537H95.463C95.4084 10.0537 95.3595 10.0727 95.3163 10.1103C95.2723 10.1488 95.2378 10.1899 95.2117 10.2345L93.7655 12.2703C93.72 12.3374 93.6753 12.422 93.6317 12.5248C93.6404 12.4666 93.6476 12.4088 93.6529 12.3506C93.6586 12.2928 93.6613 12.2404 93.6613 12.1935V10.0537H92.9594V13.4723H93.3838C93.4384 13.4723 93.4873 13.4529 93.5305 13.4137C93.5741 13.3749 93.609 13.3342 93.6351 13.2915L95.0813 11.2522C95.1052 11.2188 95.1276 11.1816 95.148 11.1401C95.1689 11.0989 95.1901 11.0539 95.2117 11.0047C95.203 11.0629 95.1965 11.1195 95.192 11.1754C95.1878 11.2313 95.1855 11.2825 95.1855 11.3294V13.4692H95.8874ZM99.5824 10.0537V13.4692H98.8839V11.9188H97.4441V13.4692H96.7426V10.0537H97.4441V11.3764H98.8839V10.0537H99.5824ZM105.578 10.2479C105.613 10.1897 105.66 10.1427 105.72 10.1074C105.78 10.0714 105.843 10.0539 105.908 10.0539H106.456L105.637 11.3362C105.585 11.4231 105.53 11.4933 105.474 11.5473C105.417 11.6004 105.347 11.6419 105.265 11.6707C105.372 11.7021 105.46 11.7498 105.531 11.8134C105.602 11.8771 105.665 11.9589 105.722 12.0594L106.548 13.469H106.064C105.94 13.469 105.844 13.448 105.776 13.4054C105.707 13.3631 105.649 13.3006 105.601 13.218L105.036 12.2201C104.991 12.1355 104.931 12.073 104.857 12.0327C104.783 11.9927 104.699 11.9721 104.606 11.9721H104.276V13.4725H103.574V10.0539H104.276V11.4902H104.56C104.651 11.4902 104.727 11.4724 104.788 11.4363C104.849 11.401 104.901 11.3463 104.945 11.2726L105.578 10.2479ZM109.968 13.4692V10.0537H109.544C109.489 10.0537 109.441 10.0727 109.397 10.1103C109.353 10.1488 109.319 10.1899 109.292 10.2345L107.847 12.2703C107.801 12.3374 107.756 12.422 107.713 12.5248C107.722 12.4666 107.728 12.4088 107.734 12.3506C107.739 12.2928 107.742 12.2404 107.742 12.1935V10.0537H107.04V13.4723H107.465C107.519 13.4723 107.568 13.4529 107.612 13.4137C107.655 13.3749 107.69 13.3342 107.716 13.2915L109.162 11.2522C109.186 11.2188 109.208 11.1816 109.229 11.1401C109.25 11.0989 109.271 11.0539 109.292 11.0047C109.284 11.0629 109.277 11.1195 109.273 11.1754C109.269 11.2313 109.266 11.2825 109.266 11.3294V13.4692H109.968ZM113.007 11.3762C113.007 11.2556 112.99 11.1435 112.957 11.0395C112.923 10.9359 112.873 10.8455 112.808 10.7687C112.743 10.6914 112.661 10.6313 112.565 10.5875C112.468 10.544 112.356 10.5223 112.23 10.5223C111.976 10.5223 111.775 10.5972 111.629 10.7465C111.484 10.8963 111.391 11.1062 111.352 11.3762H113.007ZM111.333 11.8182C111.341 12.0126 111.371 12.1806 111.421 12.3222C111.471 12.4638 111.538 12.5817 111.621 12.6756C111.705 12.7691 111.805 12.839 111.922 12.8848C112.038 12.9305 112.168 12.9534 112.312 12.9534C112.449 12.9534 112.567 12.9371 112.667 12.9049C112.768 12.8723 112.855 12.8367 112.929 12.7979C113.003 12.7587 113.066 12.723 113.118 12.6908C113.17 12.6582 113.218 12.6419 113.262 12.6419C113.318 12.6419 113.362 12.6644 113.392 12.709L113.591 12.9736C113.508 13.0737 113.415 13.1587 113.311 13.2277C113.206 13.2972 113.095 13.3535 112.978 13.3969C112.86 13.4408 112.739 13.4718 112.615 13.4908C112.491 13.5098 112.371 13.5191 112.253 13.5191C112.022 13.5191 111.808 13.4796 111.612 13.4004C111.415 13.3213 111.244 13.2045 111.099 13.0504C110.954 12.8964 110.842 12.7055 110.76 12.4778C110.678 12.25 110.637 11.9881 110.637 11.6913C110.637 11.4542 110.674 11.2335 110.747 11.0282C110.82 10.8226 110.924 10.6441 111.06 10.4924C111.196 10.3403 111.361 10.2204 111.556 10.1323C111.751 10.0443 111.971 10 112.217 10C112.422 10 112.611 10.0342 112.785 10.1021C112.959 10.1704 113.109 10.2701 113.236 10.4016C113.362 10.5335 113.46 10.6949 113.531 10.8858C113.602 11.0767 113.637 11.2936 113.637 11.5369C113.637 11.6486 113.625 11.7235 113.601 11.7615C113.577 11.7992 113.533 11.8182 113.471 11.8182H111.333ZM75.928 21.1671V17.7516H75.5036C75.4494 17.7516 75.4005 17.7702 75.3569 17.8083C75.3133 17.8467 75.2785 17.8878 75.2523 17.9324L73.8065 19.9682C73.7606 20.0353 73.7163 20.1199 73.6727 20.2227C73.6814 20.1645 73.6882 20.1067 73.6935 20.0485C73.6992 19.9907 73.7019 19.938 73.7019 19.8914V17.7516H73V21.1702H73.4248C73.479 21.1702 73.5279 21.1508 73.5715 21.1116C73.6147 21.0728 73.6496 21.0321 73.6757 20.9894L75.1219 18.9501C75.1458 18.9168 75.1682 18.8795 75.1886 18.838C75.2095 18.7969 75.2307 18.7519 75.2523 18.7026C75.2436 18.7608 75.2371 18.8174 75.233 18.8733C75.2284 18.9292 75.2262 18.9804 75.2262 19.0273V21.1671H75.928ZM79.6229 17.7516V21.1671H78.9245V19.6167H77.4847V21.1671H76.7832V17.7516H77.4847V19.0743H78.9245V17.7516H79.6229ZM83.5252 20.3231C83.3346 20.533 83.0621 20.6502 82.7074 20.6746V18.2404C83.0621 18.2652 83.3346 18.3828 83.5252 18.5935C83.7155 18.8045 83.8106 19.0932 83.8106 19.4594C83.8106 19.8253 83.7155 20.1136 83.5252 20.3231ZM81.276 18.5935C81.4666 18.3828 81.7391 18.2652 82.0938 18.2404V20.6746C81.7391 20.6502 81.4666 20.533 81.276 20.3231C81.0857 20.1136 80.9906 19.8253 80.9906 19.4594C80.9906 19.0932 81.0857 18.8045 81.276 18.5935ZM83.4616 17.852C83.2414 17.7647 82.9969 17.7146 82.7271 17.7011V16.345H82.0707V17.7011C81.8008 17.7146 81.5564 17.7655 81.3366 17.8535C81.1168 17.942 80.9296 18.0619 80.7749 18.2136C80.6207 18.3653 80.5009 18.5465 80.416 18.756C80.3311 18.9659 80.2887 19.1991 80.2887 19.456C80.2887 19.7147 80.3311 19.9491 80.416 20.159C80.5009 20.3689 80.6207 20.5497 80.7749 20.7014C80.9296 20.8531 81.1168 20.9734 81.3366 21.0615C81.5564 21.1499 81.8008 21.2004 82.0707 21.214V22.3255H82.7271V21.214C82.9969 21.2004 83.2414 21.1499 83.4616 21.0615C83.681 20.9734 83.8682 20.8531 84.0228 20.7014C84.1771 20.5497 84.2968 20.3689 84.3817 20.159C84.4666 19.9491 84.5091 19.7147 84.5091 19.456C84.5091 19.1968 84.4666 18.9624 84.3817 18.7525C84.2968 18.543 84.1771 18.3622 84.0228 18.2101C83.8682 18.0584 83.681 17.9389 83.4616 17.852ZM86.611 20.6547C86.9112 20.6547 87.1352 20.5511 87.2818 20.3451C87.4289 20.1383 87.5024 19.8431 87.5024 19.4593C87.5024 19.0752 87.4289 18.7792 87.2818 18.5701C87.1352 18.3617 86.9112 18.2569 86.611 18.2569C86.3063 18.2569 86.0801 18.3617 85.9319 18.5701C85.7841 18.7792 85.7102 19.0752 85.7102 19.4593C85.7102 19.8431 85.7841 20.1383 85.9319 20.3451C86.0801 20.5511 86.3063 20.6547 86.611 20.6547ZM86.611 17.6978C86.857 17.6978 87.0794 17.7394 87.2788 17.822C87.4778 17.9043 87.6472 18.0214 87.7878 18.1735C87.9284 18.3252 88.0364 18.5095 88.1126 18.726C88.1887 18.9425 88.227 19.1858 88.227 19.4558C88.227 19.7259 88.1887 19.9692 88.1126 20.186C88.0364 20.4025 87.9284 20.5872 87.7878 20.7401C87.6472 20.893 87.4778 21.0105 87.2788 21.0932C87.0794 21.1758 86.857 21.2173 86.611 21.2173C86.3632 21.2173 86.1396 21.1758 85.9402 21.0932C85.7413 21.0105 85.5711 20.893 85.4294 20.7401C85.288 20.5872 85.1792 20.4025 85.103 20.186C85.0269 19.9692 84.989 19.7259 84.989 19.4558C84.989 19.1858 85.0269 18.9425 85.103 18.726C85.1792 18.5095 85.288 18.3252 85.4294 18.1735C85.5711 18.0214 85.7413 17.9043 85.9402 17.822C86.1396 17.7394 86.3632 17.6978 86.611 17.6978ZM89.9227 20.5829C89.8059 20.5301 89.6987 20.4393 89.6009 20.3097V18.7259C89.7119 18.5785 89.8321 18.4652 89.9617 18.3861C90.0909 18.3069 90.2452 18.267 90.4233 18.267C90.5408 18.267 90.6465 18.2887 90.7401 18.3306C90.8334 18.3733 90.9129 18.4416 90.9785 18.5351C91.0437 18.6286 91.0937 18.75 91.1286 18.8982C91.1635 19.0468 91.1805 19.2261 91.1805 19.436C91.1805 19.8418 91.104 20.1479 90.9508 20.3532C90.7974 20.5588 90.5832 20.6613 90.3092 20.6613C90.1679 20.6613 90.039 20.6353 89.9227 20.5829ZM90.0401 17.8417C89.8624 17.9445 89.704 18.0796 89.5649 18.2472L89.5062 17.8887C89.48 17.7971 89.4194 17.7517 89.3235 17.7517H88.899V22.3021H89.6009V20.8521C89.7119 20.9658 89.8355 21.0551 89.9715 21.1199C90.1072 21.1847 90.2732 21.2172 90.4692 21.2172C90.6909 21.2172 90.8902 21.1719 91.0664 21.0815C91.2427 20.991 91.3927 20.8661 91.517 20.7067C91.641 20.5468 91.7361 20.3582 91.8024 20.1406C91.8687 19.9229 91.9021 19.6882 91.9021 19.436C91.9021 19.1543 91.8722 18.9048 91.8123 18.6875C91.7524 18.4695 91.6683 18.2871 91.5591 18.1401C91.4503 17.9926 91.32 17.8805 91.1676 17.8037C91.0153 17.7265 90.8459 17.6881 90.6586 17.6881C90.4233 17.6881 90.2171 17.7393 90.0401 17.8417ZM96.3673 17.7416V21.1672H95.737V19.1007C95.737 19.0293 95.7416 18.9486 95.7503 18.8582C95.759 18.7678 95.77 18.6836 95.7829 18.6052L94.7221 20.5607C94.7005 20.6011 94.6721 20.6329 94.6372 20.6562C94.6024 20.6798 94.5633 20.6915 94.5197 20.6915H94.4447C94.4011 20.6915 94.3625 20.6798 94.3287 20.6562C94.295 20.6329 94.2673 20.6011 94.2454 20.5607L93.1652 18.5952C93.1781 18.6735 93.1895 18.7589 93.1994 18.8512C93.2092 18.9444 93.2141 19.027 93.2141 19.1007V21.1672H92.5809V17.7416H93.1554C93.2031 17.7416 93.2505 17.7524 93.2971 17.7749C93.3441 17.7974 93.3851 17.8409 93.4199 17.9053L94.3238 19.4926C94.3541 19.5508 94.3822 19.6132 94.4072 19.6804C94.4321 19.747 94.4563 19.8139 94.4805 19.8809L94.4807 19.8814C94.5046 19.8142 94.5296 19.7471 94.5557 19.6804C94.5819 19.6132 94.6099 19.5508 94.6406 19.4926L95.5316 17.9053C95.5642 17.8386 95.6044 17.7947 95.6525 17.7734C95.7003 17.752 95.748 17.7416 95.7962 17.7416H96.3673ZM98.3715 19.7357C98.5432 19.7031 98.7543 19.6825 99.0044 19.6736V20.3064C98.8805 20.4403 98.7524 20.5423 98.6209 20.6125C98.4894 20.6831 98.3321 20.7181 98.1495 20.7181C98.0775 20.7181 98.0115 20.7099 97.952 20.6928C97.8918 20.6762 97.8398 20.6498 97.7951 20.6125C97.7504 20.5761 97.7159 20.5291 97.6909 20.4721C97.6659 20.4154 97.6534 20.3464 97.6534 20.266C97.6534 20.1838 97.6765 20.1077 97.7235 20.0383C97.7701 19.9692 97.8467 19.9095 97.9535 19.8594C98.06 19.809 98.1991 19.7679 98.3715 19.7357ZM98.489 17.6878C97.9687 17.6878 97.5203 17.8675 97.144 18.2268L97.2714 18.4611C97.293 18.4995 97.3206 18.5313 97.3544 18.5569C97.3885 18.5825 97.429 18.5954 97.4771 18.5954C97.5359 18.5954 97.5912 18.5779 97.6435 18.5434C97.6954 18.5088 97.7557 18.4712 97.8228 18.4312C97.8906 18.3909 97.9698 18.3536 98.0612 18.3191C98.1525 18.2842 98.2658 18.2671 98.4007 18.2671C98.5986 18.2671 98.749 18.3272 98.851 18.4479C98.9533 18.5686 99.0044 18.7517 99.0044 18.9973V19.2247C98.6258 19.2336 98.3079 19.2705 98.0498 19.3353C97.7921 19.4 97.584 19.4823 97.4264 19.5816C97.2683 19.681 97.1554 19.7931 97.0868 19.918C97.0182 20.043 96.9841 20.1714 96.9841 20.3029C96.9841 20.4573 97.0083 20.5912 97.0576 20.7049C97.1065 20.8185 97.1732 20.914 97.2585 20.9912C97.3434 21.068 97.4438 21.1254 97.5601 21.1635C97.6765 21.2015 97.8023 21.2205 97.9372 21.2205C98.0589 21.2205 98.1707 21.21 98.2719 21.1887C98.3727 21.1677 98.4674 21.1359 98.5557 21.0932C98.6437 21.051 98.7293 20.9994 98.8119 20.9377C98.8945 20.8764 98.9783 20.8065 99.0632 20.7281L99.1318 21.0063C99.1557 21.0711 99.1852 21.1138 99.2201 21.1351C99.255 21.1565 99.3057 21.167 99.3736 21.167H99.6866V18.9973C99.6866 18.8029 99.6601 18.626 99.6067 18.4665C99.5532 18.3071 99.4763 18.1689 99.3751 18.0529C99.2739 17.9369 99.1485 17.8469 98.9995 17.7833C98.8506 17.7197 98.6804 17.6878 98.489 17.6878ZM103.956 20.6244V22.1077C103.956 22.1749 103.937 22.228 103.901 22.2668C103.863 22.306 103.816 22.3254 103.757 22.3254H103.323V21.1668H100.506V17.7517H101.208V20.6244H102.647V17.7517H103.346V20.6244H103.956ZM107.429 21.1671V17.7516H107.004C106.95 17.7516 106.901 17.7702 106.858 17.8083C106.814 17.8467 106.779 17.8878 106.753 17.9324L105.307 19.9682C105.261 20.0353 105.217 20.1199 105.173 20.2227C105.182 20.1645 105.189 20.1067 105.194 20.0485C105.2 19.9907 105.203 19.938 105.203 19.8914V17.7516H104.501V21.1702H104.925C104.98 21.1702 105.029 21.1508 105.072 21.1116C105.116 21.0728 105.15 21.0321 105.177 20.9894L106.623 18.9501C106.647 18.9168 106.669 18.8795 106.689 18.838C106.71 18.7969 106.732 18.7519 106.753 18.7026C106.744 18.7608 106.738 18.8174 106.733 18.8733C106.729 18.9292 106.727 18.9804 106.727 19.0273V21.1671H107.429ZM109.723 20.6547C110.023 20.6547 110.247 20.5511 110.394 20.3451C110.541 20.1383 110.614 19.8431 110.614 19.4593C110.614 19.0752 110.541 18.7792 110.394 18.5701C110.247 18.3617 110.023 18.2569 109.723 18.2569C109.419 18.2569 109.192 18.3617 109.044 18.5701C108.896 18.7792 108.822 19.0752 108.822 19.4593C108.822 19.8431 108.896 20.1383 109.044 20.3451C109.192 20.5511 109.419 20.6547 109.723 20.6547ZM109.723 17.6978C109.969 17.6978 110.192 17.7394 110.391 17.822C110.59 17.9043 110.759 18.0214 110.9 18.1735C111.04 18.3252 111.149 18.5095 111.225 18.726C111.301 18.9425 111.339 19.1858 111.339 19.4558C111.339 19.7259 111.301 19.9692 111.225 20.186C111.149 20.4025 111.04 20.5872 110.9 20.7401C110.759 20.893 110.59 21.0105 110.391 21.0932C110.192 21.1758 109.969 21.2173 109.723 21.2173C109.475 21.2173 109.252 21.1758 109.053 21.0932C108.854 21.0105 108.683 20.893 108.542 20.7401C108.4 20.5872 108.292 20.4025 108.215 20.186C108.139 19.9692 108.101 19.7259 108.101 19.4558C108.101 19.1858 108.139 18.9425 108.215 18.726C108.292 18.5095 108.4 18.3252 108.542 18.1735C108.683 18.0214 108.854 17.9043 109.053 17.822C109.252 17.7394 109.475 17.6978 109.723 17.6978ZM114.851 21.1671V17.7516H114.153V19.0743H112.713V17.7516H112.011V21.1671H112.713V19.6167H114.153V21.1671H114.851ZM118.549 17.7516V21.1671H117.851V19.6167H116.411V21.1671H115.709V17.7516H116.411V19.0743H117.851V17.7516H118.549ZM123.331 21.167H122.629V17.7515H123.331V21.167ZM120.999 20.6028C120.922 20.6308 120.832 20.6447 120.73 20.6447H120.073V19.5696H120.723C120.836 19.5696 120.932 19.584 121.01 19.6115C121.088 19.6394 121.152 19.6775 121.201 19.7256C121.25 19.7733 121.286 19.8292 121.309 19.8928C121.332 19.9564 121.343 20.0239 121.343 20.0953C121.343 20.1756 121.331 20.2494 121.306 20.3165C121.281 20.3836 121.242 20.441 121.191 20.4888C121.14 20.5369 121.076 20.5749 120.999 20.6028ZM121.304 19.1362C121.145 19.0792 120.95 19.0509 120.72 19.0509H120.073V17.7515H119.408V21.167H120.73C120.928 21.167 121.103 21.141 121.257 21.0882C121.41 21.0358 121.539 20.9617 121.645 20.8655C121.751 20.7697 121.83 20.6564 121.885 20.5256C121.939 20.3952 121.967 20.2505 121.967 20.0922C121.967 19.956 121.945 19.8249 121.901 19.6988C121.858 19.5727 121.787 19.4614 121.689 19.3655C121.591 19.2693 121.463 19.1932 121.304 19.1362ZM126.37 19.0742C126.37 18.9535 126.353 18.8414 126.319 18.7374C126.286 18.6338 126.236 18.5434 126.171 18.4666C126.106 18.3894 126.024 18.3292 125.927 18.2854C125.831 18.2419 125.719 18.2202 125.593 18.2202C125.339 18.2202 125.138 18.2951 124.993 18.4445C124.847 18.5942 124.754 18.8041 124.715 19.0742H126.37ZM124.695 19.5161C124.704 19.7105 124.734 19.8785 124.783 20.0201C124.833 20.1617 124.9 20.2797 124.984 20.3732C125.068 20.4671 125.168 20.5369 125.285 20.5827C125.401 20.6285 125.531 20.6514 125.675 20.6514C125.812 20.6514 125.93 20.6351 126.03 20.6025C126.13 20.5703 126.217 20.5346 126.291 20.4958C126.366 20.4566 126.428 20.4209 126.481 20.3887C126.533 20.3561 126.581 20.3398 126.624 20.3398C126.681 20.3398 126.724 20.3623 126.755 20.4069L126.954 20.6715C126.871 20.7716 126.778 20.8566 126.673 20.9257C126.569 20.9951 126.458 21.0514 126.341 21.0948C126.223 21.1387 126.102 21.1697 125.978 21.1887C125.854 21.2077 125.733 21.2171 125.616 21.2171C125.385 21.2171 125.171 21.1775 124.974 21.0983C124.778 21.0192 124.607 20.9024 124.462 20.7484C124.317 20.5943 124.204 20.4034 124.122 20.1757C124.041 19.9479 124 19.686 124 19.3892C124 19.1522 124.037 18.9314 124.109 18.7261C124.182 18.5205 124.287 18.342 124.423 18.1903C124.559 18.0382 124.724 17.9183 124.919 17.8303C125.114 17.7422 125.334 17.698 125.58 17.698C125.785 17.698 125.974 17.7321 126.148 17.8C126.322 17.8683 126.472 17.968 126.598 18.0995C126.724 18.2315 126.823 18.3929 126.894 18.5837C126.964 18.7746 127 18.9915 127 19.2348C127 19.3465 126.988 19.4214 126.964 19.4594C126.94 19.4971 126.897 19.5161 126.833 19.5161H124.695ZM74.0234 28.2804C73.9071 28.228 73.7998 28.1372 73.7021 28.0077V26.4235C73.8127 26.2764 73.9332 26.1631 74.0629 26.084C74.1921 26.0048 74.346 25.9649 74.5245 25.9649C74.6419 25.9649 74.7477 25.9866 74.8413 26.0285C74.9345 26.0712 75.0141 26.1391 75.0793 26.233C75.1449 26.3265 75.1945 26.4479 75.2298 26.5961C75.2646 26.7447 75.2817 26.924 75.2817 27.1339C75.2817 27.5397 75.2051 27.8459 75.0516 28.0511C74.8985 28.2568 74.6844 28.3592 74.4104 28.3592C74.269 28.3592 74.1398 28.3332 74.0234 28.2804ZM74.1409 25.5396C73.9636 25.6425 73.8052 25.7775 73.6661 25.9451L73.6073 25.5866C73.5812 25.495 73.5205 25.4492 73.4247 25.4492H73.0002V30H73.7021V28.5501C73.8127 28.6638 73.9363 28.753 74.0727 28.8178C74.2084 28.8826 74.3744 28.9152 74.5703 28.9152C74.792 28.9152 74.9914 28.8698 75.1676 28.7794C75.3438 28.689 75.4939 28.564 75.6178 28.4042C75.7421 28.2447 75.8373 28.0562 75.9036 27.8385C75.9699 27.6208 76.0033 27.3861 76.0033 27.1339C76.0033 26.8522 75.9733 26.6027 75.9134 26.3855C75.8536 26.1674 75.769 25.9851 75.6603 25.838C75.5515 25.6906 75.4211 25.5784 75.2688 25.5012C75.1164 25.424 74.9467 25.386 74.7594 25.386C74.5245 25.386 74.3183 25.4372 74.1409 25.5396ZM78.8657 26.7721C78.8657 26.6514 78.8491 26.5393 78.8149 26.4353C78.7812 26.3317 78.7319 26.2413 78.6668 26.1645C78.6012 26.0873 78.5201 26.0271 78.4235 25.9833C78.3264 25.9398 78.215 25.9181 78.0888 25.9181C77.8341 25.9181 77.634 25.993 77.4881 26.1423C77.3422 26.2921 77.2501 26.502 77.2107 26.7721H78.8657ZM77.1914 27.214C77.1997 27.4084 77.2293 27.5764 77.2793 27.718C77.3293 27.8596 77.3964 27.9776 77.4802 28.0711C77.5639 28.165 77.664 28.2348 77.7803 28.2806C77.8967 28.3264 78.027 28.3492 78.1707 28.3492C78.3075 28.3492 78.4261 28.333 78.5262 28.3004C78.6262 28.2682 78.7134 28.2325 78.7873 28.1933C78.8612 28.1545 78.9245 28.1188 78.9764 28.0862C79.0291 28.054 79.0768 28.0377 79.12 28.0377C79.1769 28.0377 79.2205 28.0602 79.2508 28.1048L79.4501 28.3694C79.3671 28.4695 79.2735 28.5545 79.1693 28.6236C79.0647 28.693 78.9537 28.7493 78.8362 28.7927C78.7187 28.8366 78.5982 28.8676 78.4739 28.8866C78.3499 28.9056 78.229 28.9149 78.1115 28.9149C77.8811 28.9149 77.667 28.8754 77.4703 28.7962C77.2732 28.7171 77.1027 28.6003 76.9579 28.4462C76.8131 28.2922 76.7002 28.1013 76.6184 27.8736C76.5365 27.6458 76.4959 27.3839 76.4959 27.0867C76.4959 26.85 76.5323 26.6293 76.6055 26.4236C76.6782 26.2184 76.7825 26.0399 76.9189 25.8882C77.0546 25.7361 77.2202 25.6162 77.4146 25.5282C77.6094 25.4397 77.83 25.3958 78.0759 25.3958C78.2802 25.3958 78.4697 25.43 78.644 25.4979C78.818 25.5662 78.9681 25.6659 79.0943 25.7974C79.2205 25.9293 79.3186 26.0907 79.3895 26.2812C79.46 26.4725 79.4956 26.6894 79.4956 26.9327C79.4956 27.0444 79.4838 27.1193 79.4596 27.1569C79.4357 27.195 79.3921 27.214 79.3292 27.214H77.1914ZM84.6918 28.8648V25.4493H83.9934V28.3224H82.7727V25.4493H82.0708V28.3224H80.8501V25.4493H80.1482V28.8648H84.6918ZM87.7339 26.7721C87.7339 26.6514 87.7172 26.5393 87.6831 26.4353C87.6494 26.3317 87.6001 26.2413 87.5349 26.1645C87.4694 26.0873 87.3883 26.0271 87.2916 25.9833C87.1946 25.9398 87.0832 25.9181 86.957 25.9181C86.7023 25.9181 86.5022 25.993 86.3563 26.1423C86.2104 26.2921 86.1183 26.502 86.0789 26.7721H87.7339ZM86.0596 27.214C86.0679 27.4084 86.0975 27.5764 86.1475 27.718C86.1975 27.8596 86.2646 27.9776 86.3483 28.0711C86.4321 28.165 86.5322 28.2348 86.6485 28.2806C86.7649 28.3264 86.8952 28.3492 87.0389 28.3492C87.1757 28.3492 87.2943 28.333 87.3943 28.3004C87.4944 28.2682 87.5816 28.2325 87.6555 28.1933C87.7294 28.1545 87.7927 28.1188 87.8446 28.0862C87.8973 28.054 87.945 28.0377 87.9882 28.0377C88.0451 28.0377 88.0886 28.0602 88.119 28.1048L88.3183 28.3694C88.2353 28.4695 88.1417 28.5545 88.0375 28.6236C87.9329 28.693 87.8218 28.7493 87.7044 28.7927C87.5869 28.8366 87.4664 28.8676 87.342 28.8866C87.2181 28.9056 87.0972 28.9149 86.9797 28.9149C86.7493 28.9149 86.5352 28.8754 86.3385 28.7962C86.1414 28.7171 85.9709 28.6003 85.8261 28.4462C85.6813 28.2922 85.5684 28.1013 85.4865 27.8736C85.4047 27.6458 85.3641 27.3839 85.3641 27.0867C85.3641 26.85 85.4005 26.6293 85.4737 26.4236C85.5464 26.2184 85.6506 26.0399 85.7871 25.8882C85.9228 25.7361 86.0884 25.6162 86.2828 25.5282C86.4776 25.4397 86.6982 25.3958 86.9441 25.3958C87.1484 25.3958 87.3379 25.43 87.5122 25.4979C87.6862 25.5662 87.8362 25.6659 87.9624 25.7974C88.0886 25.9293 88.1868 26.0907 88.2577 26.2812C88.3282 26.4725 88.3638 26.6894 88.3638 26.9327C88.3638 27.0444 88.352 27.1193 88.3278 27.1569C88.3039 27.195 88.2603 27.214 88.1974 27.214H86.0596ZM91.8563 28.8648V25.4493H91.1578V26.772H89.7184V25.4493H89.0165V28.8648H89.7184V27.3144H91.1578V28.8648H91.8563ZM95.6426 25.4493V28.8648H94.9408V26.725C94.9408 26.6781 94.943 26.6269 94.9476 26.5714C94.9517 26.5155 94.9582 26.4585 94.9669 26.4003C94.9453 26.4496 94.9241 26.4946 94.9032 26.5361C94.8828 26.5772 94.8604 26.6145 94.8365 26.6482L93.3903 28.6875C93.3642 28.7298 93.3293 28.7705 93.2861 28.8097C93.2425 28.8485 93.1936 28.8683 93.1391 28.8683H92.7146V25.4493H93.4165V27.5891C93.4165 27.636 93.4138 27.6884 93.4081 27.7462C93.4028 27.8044 93.3956 27.8626 93.3869 27.9204C93.4309 27.818 93.4752 27.733 93.5207 27.6659L94.9669 25.6301C94.9931 25.5855 95.0279 25.5444 95.0715 25.5063C95.1147 25.4683 95.164 25.4493 95.2182 25.4493H95.6426ZM98.2405 25.925V27.0098H97.8001C97.6019 27.0098 97.4447 26.9617 97.3283 26.8655C97.212 26.7697 97.1536 26.6381 97.1536 26.4705C97.1536 26.408 97.1635 26.3444 97.1832 26.28C97.2029 26.2152 97.2355 26.1566 97.2809 26.1042C97.3268 26.0515 97.3878 26.0084 97.464 25.975C97.5402 25.9417 97.6345 25.925 97.7478 25.925H98.2405ZM98.9098 28.8648V25.4493H97.7281C97.4996 25.4493 97.3044 25.4776 97.1422 25.5347C96.98 25.5917 96.8481 25.6666 96.7458 25.7589C96.6435 25.8517 96.5688 25.9572 96.5222 26.0755C96.4752 26.1939 96.4521 26.3145 96.4521 26.4371C96.4521 26.531 96.4676 26.6253 96.4991 26.72C96.5309 26.815 96.5813 26.9027 96.6511 26.983C96.7208 27.0634 96.8121 27.1336 96.9255 27.1937C97.0384 27.2543 97.1756 27.2965 97.3367 27.3214C97.1885 27.3745 97.0733 27.4754 96.9906 27.6225L96.0928 28.8648H96.576C96.7003 28.8648 96.7932 28.8442 96.855 28.8031C96.9171 28.7616 96.9709 28.6988 97.0168 28.6138L97.6402 27.6997C97.6618 27.664 97.6842 27.6318 97.7069 27.6023C97.7297 27.5736 97.7562 27.5487 97.7854 27.5286C97.8146 27.5088 97.8502 27.4933 97.8915 27.482C97.9328 27.4708 97.9851 27.4653 98.048 27.4653H98.2405V28.8648H98.9098Z" fill="white"/>
<path fill-rule="evenodd" clip-rule="evenodd" d="M47.7625 8.03532C47.7769 7.83137 47.7107 7.63461 47.5767 7.48061C47.4428 7.32623 47.2567 7.23352 47.0532 7.21952C47.0346 7.21801 47.0165 7.21763 46.9987 7.21763C46.8152 7.21763 46.6374 7.28423 46.4985 7.40493C46.3442 7.53926 46.2515 7.72542 46.2375 7.92899C46.2231 8.13218 46.2893 8.32932 46.4233 8.4837C46.5576 8.6377 46.7433 8.73078 46.9468 8.74478C47.1481 8.75992 47.3463 8.69408 47.5015 8.55937C47.6554 8.42505 47.7481 8.23926 47.7625 8.03532ZM56.5375 24.605C56.7403 24.6198 56.937 24.5543 57.0925 24.4192C57.2465 24.2853 57.3391 24.0991 57.3531 23.8956C57.3675 23.6916 57.3017 23.4945 57.1678 23.3405C57.0335 23.1865 56.8477 23.0938 56.6442 23.0798C56.6256 23.0783 56.6075 23.0775 56.5897 23.0775C56.4062 23.0775 56.2284 23.1445 56.0892 23.2652C55.9352 23.3991 55.8425 23.5853 55.8281 23.7889C55.8142 23.9924 55.88 24.1892 56.0143 24.3439C56.1486 24.4979 56.3343 24.5907 56.5375 24.605ZM65 18.0034C65 8.06029 56.9412 0 46.9998 0C37.0588 0 29 8.06029 29 18.0034C29 26.6343 35.0727 33.8451 43.1773 35.5985V24.7197C43.1773 24.6648 43.1554 24.6111 43.1164 24.5725L41.2665 22.7214C41.2271 22.6821 41.1745 22.6605 41.1189 22.6605H39.2255C39.1388 22.6605 39.0628 22.7135 39.0314 22.7956C38.9307 23.0601 38.7643 23.2985 38.549 23.4854C38.2331 23.7605 37.8291 23.9118 37.4114 23.9118H37.3944C36.9287 23.9077 36.4728 23.7037 36.1452 23.3518C35.818 23.0011 35.6466 22.5334 35.675 22.0687C35.7033 21.5995 35.9144 21.1708 36.2693 20.8625C36.6185 20.5586 37.0679 20.4084 37.5302 20.4406C37.9929 20.4731 38.4159 20.6835 38.7204 21.0339C38.8543 21.1879 38.9587 21.3627 39.0314 21.5534C39.0624 21.6347 39.1384 21.6873 39.2251 21.6873H41.4643C41.557 21.6873 41.6444 21.7237 41.7098 21.7891L44.0493 24.129C44.1148 24.1945 44.1511 24.2819 44.1511 24.3746L44.1507 35.7813C44.9229 35.9043 45.7117 35.9788 46.5133 36V21.7876C46.5133 21.7327 46.4914 21.679 46.4524 21.6404L41.2672 16.4543C41.2286 16.4153 41.1745 16.393 41.1197 16.393H37.5631C37.4765 16.393 37.4005 16.446 37.3694 16.5281C37.2684 16.7926 37.1016 17.031 36.8867 17.2179C36.5708 17.493 36.1668 17.6443 35.7491 17.6443H35.734C35.2664 17.6402 34.8109 17.4362 34.4829 17.0843C34.1557 16.7336 33.9847 16.2659 34.0127 15.8012C34.041 15.332 34.2521 14.9033 34.607 14.5949C34.9562 14.2907 35.4049 14.1397 35.8679 14.1727C36.331 14.2052 36.7535 14.416 37.0581 14.7663C37.192 14.9204 37.2964 15.0948 37.3691 15.2859C37.4001 15.3672 37.4761 15.4198 37.5628 15.4198H40.4671C40.5821 15.4198 40.6755 15.3264 40.6755 15.2113V13.1344C40.6755 13.0481 40.6218 12.9717 40.5393 12.9399C39.8217 12.6633 39.3753 11.9633 39.429 11.1975C39.4611 10.7347 39.6719 10.312 40.0222 10.0071C40.3717 9.70322 40.8208 9.55301 41.2831 9.58517C41.7462 9.61771 42.1687 9.82809 42.4733 10.1785C42.7774 10.5289 42.9276 10.9765 42.8955 11.44C42.8629 11.9028 42.6522 12.3254 42.3019 12.63C42.1476 12.7647 41.9728 12.8691 41.7825 12.9418C41.7011 12.9728 41.6486 13.0489 41.6486 13.1355V15.3729C41.6486 15.4278 41.6709 15.4815 41.7095 15.5205L46.3949 20.2063C46.4252 20.237 46.4603 20.2256 46.4705 20.2215C46.4808 20.2173 46.5133 20.2003 46.5133 20.1572V9.79782C46.5133 9.71155 46.46 9.63511 46.3771 9.60333C45.6594 9.32711 45.2134 8.62673 45.2668 7.86126C45.2993 7.39812 45.5096 6.97547 45.86 6.67087C46.2095 6.36665 46.6589 6.21643 47.1209 6.2486C47.5839 6.28114 48.0069 6.49152 48.311 6.8419C48.6156 7.19228 48.7654 7.64028 48.7332 8.10342C48.7007 8.56618 48.49 8.98922 48.14 9.29344C47.9857 9.42776 47.8109 9.53295 47.6206 9.60522C47.5393 9.63625 47.4867 9.7123 47.4867 9.79895V22.6609C47.4867 22.704 47.5192 22.7211 47.5295 22.7252C47.5393 22.729 47.5745 22.7407 47.6051 22.7101L52.2902 18.0238C52.3291 17.9852 52.3514 17.9315 52.3514 17.8766V13.9683C52.3514 13.8821 52.2977 13.8056 52.2153 13.7739C51.4976 13.4976 51.0512 12.7976 51.1045 12.0318C51.1371 11.5686 51.3478 11.146 51.6977 10.8414C52.0477 10.5372 52.4971 10.3862 52.9586 10.4191C53.4217 10.4517 53.8446 10.6624 54.1488 11.0128C54.4534 11.3628 54.6035 11.8108 54.571 12.2739C54.5389 12.7371 54.3278 13.1597 53.9778 13.4643C53.8235 13.5987 53.6487 13.7035 53.4584 13.7757C53.3771 13.8072 53.3245 13.8832 53.3245 13.9695V17.717C53.3245 17.832 53.4179 17.9255 53.5329 17.9255H56.4425C56.5292 17.9255 56.6052 17.8729 56.6366 17.7908C56.7369 17.5263 56.9037 17.2875 57.1186 17.1006C57.4681 16.7967 57.9176 16.6473 58.3795 16.6783C58.8429 16.7109 59.2655 16.9216 59.5697 17.272C59.8742 17.622 60.024 18.07 59.9919 18.5331C59.9597 18.9963 59.749 19.4189 59.3987 19.7235C59.0514 20.0255 58.5993 20.1787 58.1378 20.1458C57.4689 20.0989 56.8806 19.6626 56.6385 19.0349C56.6063 18.9524 56.5299 18.8987 56.4437 18.8987H52.8781C52.8224 18.8987 52.7702 18.9202 52.7309 18.96L47.5476 24.1442C47.5086 24.1828 47.4867 24.2365 47.4867 24.2914V36C48.2883 35.9788 49.0771 35.9043 49.8497 35.7813L49.85 26.0429C49.85 25.9502 49.886 25.8628 49.9514 25.7969L52.2909 23.457C52.3567 23.3916 52.4441 23.3552 52.5368 23.3552L54.9232 23.3556C55.0159 23.0355 55.1975 22.7513 55.451 22.5311C55.8005 22.2269 56.25 22.0763 56.7119 22.1085C57.1746 22.141 57.5975 22.3518 57.9021 22.7022C58.2062 23.0525 58.356 23.5002 58.3239 23.9633C58.2917 24.4264 58.081 24.8495 57.7307 25.1537C57.3838 25.4556 56.9321 25.6074 56.4698 25.576C55.7427 25.5253 55.1279 25.0265 54.9244 24.3292H52.8818C52.8258 24.3292 52.774 24.3508 52.7343 24.3901L50.8836 26.2412C50.8442 26.2809 50.8223 26.3331 50.8223 26.3887V35.5985C58.9273 33.8451 65 26.6343 65 18.0034ZM37.4621 21.4115C37.444 21.41 37.4258 21.4092 37.408 21.4092C37.2246 21.4092 37.0467 21.4758 36.9075 21.5969C36.7535 21.7312 36.6609 21.9174 36.6469 22.121C36.6325 22.3241 36.6983 22.5213 36.8326 22.6753C36.9665 22.8297 37.1527 22.9227 37.3558 22.9367C37.5578 22.9511 37.7553 22.886 37.9104 22.7513C38.0648 22.617 38.1575 22.4309 38.1715 22.2273C38.1862 22.0233 38.12 21.8266 37.9861 21.6726C37.8518 21.5182 37.666 21.4255 37.4621 21.4115ZM58.2055 19.1745C58.4083 19.1904 58.605 19.1242 58.7605 18.9891C58.9144 18.8551 59.0071 18.669 59.0211 18.465C59.0355 18.2615 58.9697 18.0643 58.8357 17.9103C58.7014 17.7563 58.5157 17.6636 58.3118 17.6496C58.2932 17.6481 58.2755 17.6473 58.2577 17.6473C58.0738 17.6473 57.8964 17.7143 57.7572 17.835C57.6032 17.969 57.5105 18.1551 57.4961 18.3587C57.4821 18.5623 57.548 18.759 57.6823 18.9138C57.8166 19.0678 58.0023 19.1605 58.2055 19.1745ZM41.9243 11.3719C41.9387 11.1679 41.8729 10.9712 41.739 10.8172C41.6051 10.6628 41.4189 10.5701 41.2154 10.5561C41.1968 10.5546 41.1787 10.5542 41.1609 10.5542C40.977 10.5542 40.7996 10.6208 40.6604 10.7415C40.5064 10.8758 40.4137 11.062 40.3997 11.2656C40.3854 11.4688 40.4512 11.6659 40.5855 11.8203C40.7198 11.9743 40.9055 12.0674 41.1091 12.0814C41.3103 12.0961 41.5086 12.0306 41.6637 11.8959C41.8177 11.7616 41.9103 11.5755 41.9243 11.3719ZM53.3396 12.7299C53.4936 12.596 53.5863 12.4098 53.6003 12.2058C53.6146 12.0023 53.5488 11.8051 53.4145 11.6511C53.2806 11.4971 53.0948 11.4044 52.8909 11.39C52.8728 11.3889 52.8546 11.3882 52.8368 11.3882C52.653 11.3882 52.4755 11.4548 52.3363 11.5758C52.1823 11.7098 52.0896 11.8959 52.0753 12.0995C52.0613 12.3031 52.1271 12.4998 52.2614 12.6542C52.3957 12.8086 52.5815 12.9013 52.7846 12.9153C52.9878 12.9304 53.1841 12.8646 53.3396 12.7299ZM36.3238 15.4047C36.4577 15.5587 36.5235 15.7558 36.5092 15.9594C36.4952 16.1633 36.4025 16.3495 36.2485 16.4834C36.0934 16.6185 35.8955 16.684 35.6935 16.6692C35.4904 16.6549 35.3046 16.5621 35.1703 16.4078C35.036 16.2534 34.9702 16.0566 34.9846 15.8531C34.9985 15.6495 35.0912 15.4633 35.2452 15.3294C35.3844 15.2087 35.5619 15.1417 35.7457 15.1417C35.7635 15.1417 35.7817 15.1425 35.8002 15.144C36.0037 15.158 36.1895 15.2507 36.3238 15.4047Z" fill="white"/>
</svg>
