<svg width="45" height="45" viewBox="0 0 45 45" fill="none" xmlns="http://www.w3.org/2000/svg">
<path fill-rule="evenodd" clip-rule="evenodd" d="M45 22.5C45 34.9264 34.9264 45 22.5 45C10.0736 45 0 34.9264 0 22.5C0 10.0736 10.0736 0 22.5 0C34.9264 0 45 10.0736 45 22.5ZM0.957447 22.5C0.957447 34.3976 10.6024 44.0426 22.5 44.0426C34.3976 44.0426 44.0426 34.3976 44.0426 22.5C44.0426 10.6024 34.3976 0.957447 22.5 0.957447C10.6024 0.957447 0.957447 10.6024 0.957447 22.5Z" fill="#DCDCDC"/>
<path fill-rule="evenodd" clip-rule="evenodd" d="M27.8378 10H16.1622C14.968 10 14 10.9485 14 12.1186V32.8814C14 34.0515 14.968 35 16.1622 35H27.8378C29.032 35 30 34.0515 30 32.8814V12.1186C30 10.9485 29.032 10 27.8378 10ZM14.8649 12.1186C14.8649 11.4166 15.4457 10.8475 16.1622 10.8475H27.8378C28.5543 10.8475 29.1351 11.4166 29.1351 12.1186V32.8814C29.1351 33.5834 28.5543 34.1525 27.8378 34.1525H16.1622C15.4457 34.1525 14.8649 33.5834 14.8649 32.8814V12.1186ZM26.3011 11.5H17.6989C16.5112 11.5 15.5484 12.4412 15.5484 13.6023V27.8977C15.5484 29.0588 16.5112 30 17.6989 30H26.3011C27.4888 30 28.4516 29.0588 28.4516 27.8977V13.6023C28.4516 12.4412 27.4888 11.5 26.3011 11.5ZM16.4086 13.6023C16.4086 12.9056 16.9863 12.3409 17.6989 12.3409H26.3011C27.0137 12.3409 27.5914 12.9056 27.5914 13.6023V27.8977C27.5914 28.5944 27.0137 29.1591 26.3011 29.1591H17.6989C16.9863 29.1591 16.4086 28.5944 16.4086 27.8977V13.6023ZM22 34C22.9977 34 23.8065 33.2165 23.8065 32.25C23.8065 31.2835 22.9977 30.5 22 30.5C21.0023 30.5 20.1935 31.2835 20.1935 32.25C20.1935 33.2165 21.0023 34 22 34ZM22 33.125C21.5012 33.125 21.0968 32.7332 21.0968 32.25C21.0968 31.7668 21.5012 31.375 22 31.375C22.4988 31.375 22.9032 31.7668 22.9032 32.25C22.9032 32.7332 22.4988 33.125 22 33.125Z" fill="white"/>
</svg>
