<svg width="45" height="45" viewBox="0 0 45 45" fill="none" xmlns="http://www.w3.org/2000/svg">
<path fill-rule="evenodd" clip-rule="evenodd" d="M45 22.5C45 34.9264 34.9264 45 22.5 45C10.0736 45 0 34.9264 0 22.5C0 10.0736 10.0736 0 22.5 0C34.9264 0 45 10.0736 45 22.5ZM0.957447 22.5C0.957447 34.3976 10.6024 44.0426 22.5 44.0426C34.3976 44.0426 44.0426 34.3976 44.0426 22.5C44.0426 10.6024 34.3976 0.957447 22.5 0.957447C10.6024 0.957447 0.957447 10.6024 0.957447 22.5Z" fill="#DCDCDC"/>
<path fill-rule="evenodd" clip-rule="evenodd" d="M14 22.7899V23.6303H16.2553V26.1707H14V27.1707H16.2553V33H17.0995V27.1707H26V26.1707H17.0995V23.6303H25.7723C29.2037 23.6303 31 21.9464 31 18.7052C31 15.4901 29.2429 13.5578 25.8402 13.0055L25.7723 13H16.2553V22.7899H14ZM17.0995 13.8404H25.7378C28.7199 14.3345 30.1558 15.9239 30.1558 18.7052C30.1558 21.4705 28.7484 22.7899 25.7723 22.7899H17.0995V13.8404Z" fill="white"/>
</svg>
