<svg width="45" height="45" viewBox="0 0 45 45" fill="none" xmlns="http://www.w3.org/2000/svg">
<path fill-rule="evenodd" clip-rule="evenodd" d="M22.1819 12V12.2661C22.3194 12.1031 22.5229 12 22.75 12C23.1642 12 23.5 12.3432 23.5 12.7667C23.5 13.1901 23.1642 13.5333 22.75 13.5333C22.3824 13.5333 22.0766 13.263 22.0124 12.9062H20.292C19.64 13.5332 19.3192 14.3038 19.3192 15.2445C19.3192 17.6932 21.04 23.4663 22.3893 24.1455C22.9489 24.4271 23.6885 24.6258 24.4791 24.7394C24.695 24.2688 25.1738 23.9415 25.7298 23.9415C26.3135 23.9415 26.8121 24.3021 27.0108 24.8105C27.9037 24.728 28.6758 24.5225 29.1121 24.1902C30.1896 23.3697 31.9822 17.534 32.0768 15.2261C32.143 13.611 31.8262 12.9062 31.3348 12.9062H29.4876C29.4234 13.263 29.1176 13.5333 28.75 13.5333C28.3358 13.5333 28 13.1901 28 12.7667C28 12.4543 28.1828 12.1855 28.445 12.0661V12H28.75H31.3348C32.5371 12 33.076 13.1988 32.9914 15.2629C32.8867 17.8175 31.0255 23.8764 29.6701 24.9086C29.0886 25.3514 28.1242 25.6168 27.0379 25.7151C26.9236 26.0692 26.6667 26.3601 26.3342 26.5218L26.3332 31.0141C26.1416 33.6146 24.8474 35 22.5456 35C20.2142 35 19.128 33.57 19.3971 30.9578V28.2958C19.1895 27.1668 18.4638 26.6353 17.0805 26.6353C15.6875 26.6353 14.836 27.1857 14.4294 28.3312V29.4117C15.3903 29.5842 16.1189 30.4168 16.1189 31.4179C16.1189 32.544 15.1969 33.4569 14.0595 33.4569C12.9221 33.4569 12 32.544 12 31.4179C12 30.4787 12.6413 29.6879 13.514 29.4512V28.1834L13.5371 28.1142C14.0619 26.5398 15.2772 25.729 17.0805 25.729C18.9054 25.729 20.0286 26.5688 20.3059 28.1801L20.3124 28.2562V30.9811L20.3099 31.0284C20.0847 33.1554 20.7929 34.0938 22.5456 34.0938C24.3351 34.0938 25.2616 33.102 25.4191 30.9811V26.6253C24.9228 26.5116 24.5296 26.1315 24.4013 25.6454C23.4912 25.5184 22.6352 25.2859 21.9745 24.9533C20.2074 24.0638 18.4039 18.013 18.4039 15.2445C18.4039 13.9884 18.8762 12.9344 19.8085 12.1144L19.9385 12H22.1819ZM14.0595 32.5507C13.4276 32.5507 12.9153 32.0435 12.9153 31.4179C12.9153 30.7923 13.4276 30.2851 14.0595 30.2851C14.6914 30.2851 15.2036 30.7923 15.2036 31.4179C15.2036 32.0435 14.6914 32.5507 14.0595 32.5507Z" fill="white"/>
<path fill-rule="evenodd" clip-rule="evenodd" d="M45 22.5C45 34.9264 34.9264 45 22.5 45C10.0736 45 0 34.9264 0 22.5C0 10.0736 10.0736 0 22.5 0C34.9264 0 45 10.0736 45 22.5ZM0.957447 22.5C0.957447 34.3976 10.6024 44.0426 22.5 44.0426C34.3976 44.0426 44.0426 34.3976 44.0426 22.5C44.0426 10.6024 34.3976 0.957447 22.5 0.957447C10.6024 0.957447 0.957447 10.6024 0.957447 22.5Z" fill="#DCDCDC"/>
</svg>
